ISO-10303-21;
HEADER;
FILE_DESCRIPTION((''),'2;1');
FILE_NAME('display glue', '2026-10-07T13:42:39', (''), (''), 'ImageToStl.com STEP Converter','', '');
FILE_SCHEMA(('AUTOMOTIVE_DESIGN_CC2'));
ENDSEC;
DATA;
#1=PRODUCT_DEFINITION_CONTEXT('',#4,'design');
#2=APPLICATION_PROTOCOL_DEFINITION('INTERNATIONAL STANDARD','automotive_design',1994,#4);
#3=(GEOMETRIC_REPRESENTATION_CONTEXT(3)GLOBAL_UNCERTAINTY_ASSIGNED_CONTEXT((#5))GLOBAL_UNIT_ASSIGNED_CONTEXT((#6,#7,#8))REPRESENTATION_CONTEXT('NONE','WORKSPACE'));
#4=APPLICATION_CONTEXT(' ');
#5=UNCERTAINTY_MEASURE_WITH_UNIT(LENGTH_MEASURE(1.0E-006),#6,'','');
#6=(CONVERSION_BASED_UNIT('METRE',#10)LENGTH_UNIT()NAMED_UNIT(#11));
#7=(NAMED_UNIT(#12)PLANE_ANGLE_UNIT()SI_UNIT($,.RADIAN.));
#8=(NAMED_UNIT(#12)SOLID_ANGLE_UNIT()SI_UNIT($,.STERADIAN.));
#9=AXIS2_PLACEMENT_3D('',#14,#15,#16);
#10=LENGTH_MEASURE_WITH_UNIT(LENGTH_MEASURE(1.0),#17);
#11=DIMENSIONAL_EXPONENTS(1.0,0.0,0.0,0.0,0.0,0.0,0.0);
#12=DIMENSIONAL_EXPONENTS(0.0,0.0,0.0,0.0,0.0,0.0,0.0);
#13=PRODUCT_CONTEXT('',#4,'mechanical');
#14=CARTESIAN_POINT('',(0.0,0.0,0.0));
#15=DIRECTION('',(0.0,0.0,1.0));
#16=DIRECTION('',(1.0,0.0,0.0));
#17=(NAMED_UNIT(#11)LENGTH_UNIT()SI_UNIT(.MILLI.,.METRE.));
#18=PRESENTATION_STYLE_ASSIGNMENT((#19));
#19=SURFACE_STYLE_USAGE(.BOTH.,#20);
#20=SURFACE_SIDE_STYLE('',(#21));
#21=SURFACE_STYLE_FILL_AREA(#22);
#22=FILL_AREA_STYLE('',(#23));
#23=FILL_AREA_STYLE_COLOUR('',#24);
#24=COLOUR_RGB('',0,0,0);
#25=SHAPE_DEFINITION_REPRESENTATION(#26,#27);
#26=PRODUCT_DEFINITION_SHAPE('productshape0','',#30);
#27=MANIFOLD_SURFACE_SHAPE_REPRESENTATION('',(#28,#9),#3);
#28=SHELL_BASED_SURFACE_MODEL('shell0',(#33));
#29=PRODUCT('product0','','',(#13));
#30=PRODUCT_DEFINITION('mesh0','',#31,#2);
#31=PRODUCT_DEFINITION_FORMATION_WITH_SPECIFIED_SOURCE('prodsource0','',#29,.NOT_KNOWN.);
#32=STYLED_ITEM('',(#18),#33);
#33=CLOSED_SHELL('',(#82,#104,#126,#148,#170,#192,#214,#236,#258,#280,#302,#324,#346,#368,#390,#412,#434,#456,#478,#500,#522,#544,#566,#588));
#34=CARTESIAN_POINT('',(-185.51201175417737,-63.53833675553594,106.3927121518687));
#35=VERTEX_POINT('',#34);
#36=CARTESIAN_POINT('',(-185.51201175417737,-63.53836919903812,347.8617705333677));
#37=VERTEX_POINT('',#36);
#38=CARTESIAN_POINT('',(-185.51201175417737,-49.5336421418482,347.8617724150265));
#39=VERTEX_POINT('',#38);
#40=CARTESIAN_POINT('',(-185.51201175417737,-49.53360969834601,106.39271403352754));
#41=VERTEX_POINT('',#40);
#42=CARTESIAN_POINT('',(189.88958142962292,-63.53836919903812,347.8617705333677));
#43=VERTEX_POINT('',#42);
#44=CARTESIAN_POINT('',(189.88958142962292,-49.5336421418482,347.8617724150265));
#45=VERTEX_POINT('',#44);
#46=CARTESIAN_POINT('',(189.88958142962292,-63.53833675553594,106.3927121518687));
#47=VERTEX_POINT('',#46);
#48=CARTESIAN_POINT('',(189.88958142962292,-49.53360969834601,106.39271403352754));
#49=VERTEX_POINT('',#48);
#50=CARTESIAN_POINT('',(-185.51201175417737,-63.53833675553594,106.3927121518687));
#51=VERTEX_POINT('',#50);
#52=CARTESIAN_POINT('',(-185.51201175417737,-49.53360969834601,106.39271403352754));
#53=VERTEX_POINT('',#52);
#54=CARTESIAN_POINT('',(166.92810400425878,-48.77541303622185,124.92791315365939));
#55=VERTEX_POINT('',#54);
#56=CARTESIAN_POINT('',(165.81651745620547,-48.77541303622185,124.92791315365939));
#57=VERTEX_POINT('',#56);
#58=CARTESIAN_POINT('',(165.81651745620547,-48.77542369892029,204.28777196737016));
#59=VERTEX_POINT('',#58);
#60=CARTESIAN_POINT('',(-161.3900062614739,-48.77542369892029,204.28777196737016));
#61=VERTEX_POINT('',#60);
#62=CARTESIAN_POINT('',(-161.3900062614739,-48.77541303622185,124.92791315365939));
#63=VERTEX_POINT('',#62);
#64=CARTESIAN_POINT('',(-162.55053432881323,-48.77541303622185,124.92791315365939));
#65=VERTEX_POINT('',#64);
#66=CARTESIAN_POINT('',(166.92810400425878,-48.775441004942955,333.0922694804357));
#67=VERTEX_POINT('',#66);
#68=CARTESIAN_POINT('',(-162.55053432881323,-48.775441004942955,333.0922694804357));
#69=VERTEX_POINT('',#68);
#70=CARTESIAN_POINT('',(-164.21078830234546,-63.53833743284759,111.43377728969298));
#71=VERTEX_POINT('',#70);
#72=CARTESIAN_POINT('',(-185.51201175417737,-63.53833675553594,106.3927121518687));
#73=VERTEX_POINT('',#72);
#74=CARTESIAN_POINT('',(168.58835797779102,-63.53833743284759,111.43377728969298));
#75=VERTEX_POINT('',#74);
#76=CARTESIAN_POINT('',(168.58835797779102,-63.53833924590374,124.92791117012978));
#77=VERTEX_POINT('',#76);
#78=CARTESIAN_POINT('',(-185.51201175417737,-63.53836919903812,347.8617705333677));
#79=VERTEX_POINT('',#78);
#80=CARTESIAN_POINT('',(-164.21078830234546,-63.53833924590374,124.92791117012978));
#81=VERTEX_POINT('',#80);
#82=FACE_SURFACE('',(#87),#83,.T.);
#83=PLANE('',#84);
#84=AXIS2_PLACEMENT_3D('',#34,#85,#86);
#85=DIRECTION('',(-1,0,0));
#86=DIRECTION('',(0,-1.3435883836500864E-07,0.9999999999999909));
#87=FACE_BOUND('',#88,.T.);
#88=EDGE_LOOP('',(#89,#90,#91));
#89=ORIENTED_EDGE('',*,*,#92,.T.);
#90=ORIENTED_EDGE('',*,*,#93,.T.);
#91=ORIENTED_EDGE('',*,*,#94,.T.);
#92=EDGE_CURVE('',#35,#37,#95,.F.);
#93=EDGE_CURVE('',#37,#39,#96,.T.);
#94=EDGE_CURVE('',#39,#35,#97,.T.);
#95=LINE('',#34,#98);
#96=LINE('',#36,#99);
#97=LINE('',#38,#100);
#98=VECTOR('',#101,1.0);
#99=VECTOR('',#102,1.0);
#100=VECTOR('',#103,1.0);
#101=DIRECTION('',(0,-1.3435883836500864E-07,0.9999999999999909));
#102=DIRECTION('',(0,0.999999999999991,1.3435883544238726E-07));
#103=DIRECTION('',(0,-0.057900584353938134,-0.9983223539175472));
#104=FACE_SURFACE('',(#109),#105,.T.);
#105=PLANE('',#106);
#106=AXIS2_PLACEMENT_3D('',#34,#107,#108);
#107=DIRECTION('',(-1,0,0));
#108=DIRECTION('',(0,0.057900584353938134,0.9983223539175472));
#109=FACE_BOUND('',#110,.T.);
#110=EDGE_LOOP('',(#111,#112,#113));
#111=ORIENTED_EDGE('',*,*,#114,.T.);
#112=ORIENTED_EDGE('',*,*,#115,.T.);
#113=ORIENTED_EDGE('',*,*,#116,.T.);
#114=EDGE_CURVE('',#35,#39,#117,.F.);
#115=EDGE_CURVE('',#39,#41,#118,.T.);
#116=EDGE_CURVE('',#41,#35,#119,.T.);
#117=LINE('',#34,#120);
#118=LINE('',#38,#121);
#119=LINE('',#40,#122);
#120=VECTOR('',#123,1.0);
#121=VECTOR('',#124,1.0);
#122=VECTOR('',#125,1.0);
#123=DIRECTION('',(0,0.057900584353938134,0.9983223539175472));
#124=DIRECTION('',(0,1.3435883836500867E-07,-0.9999999999999909));
#125=DIRECTION('',(0,-0.999999999999991,-1.3435883747182412E-07));
#126=FACE_SURFACE('',(#131),#127,.T.);
#127=PLANE('',#128);
#128=AXIS2_PLACEMENT_3D('',#38,#129,#130);
#129=DIRECTION('',(0,-1.3435883544238726E-07,0.999999999999991));
#130=DIRECTION('',(0,-0.999999999999991,-1.3435883544238726E-07));
#131=FACE_BOUND('',#132,.T.);
#132=EDGE_LOOP('',(#133,#134,#135));
#133=ORIENTED_EDGE('',*,*,#136,.T.);
#134=ORIENTED_EDGE('',*,*,#137,.T.);
#135=ORIENTED_EDGE('',*,*,#138,.T.);
#136=EDGE_CURVE('',#39,#37,#139,.F.);
#137=EDGE_CURVE('',#37,#43,#140,.T.);
#138=EDGE_CURVE('',#43,#39,#141,.T.);
#139=LINE('',#38,#142);
#140=LINE('',#36,#143);
#141=LINE('',#42,#144);
#142=VECTOR('',#145,1.0);
#143=VECTOR('',#146,1.0);
#144=VECTOR('',#147,1.0);
#145=DIRECTION('',(0,-0.999999999999991,-1.3435883544238726E-07));
#146=DIRECTION('',(1,0,0));
#147=DIRECTION('',(-0.9993048571645775,0.0372800542821937,5.008904678584573E-09));
#148=FACE_SURFACE('',(#153),#149,.T.);
#149=PLANE('',#150);
#150=AXIS2_PLACEMENT_3D('',#38,#151,#152);
#151=DIRECTION('',(0,-1.3435883544238726E-07,0.999999999999991));
#152=DIRECTION('',(0.9993048571645775,-0.0372800542821937,-5.008904678584573E-09));
#153=FACE_BOUND('',#154,.T.);
#154=EDGE_LOOP('',(#155,#156,#157));
#155=ORIENTED_EDGE('',*,*,#158,.T.);
#156=ORIENTED_EDGE('',*,*,#159,.T.);
#157=ORIENTED_EDGE('',*,*,#160,.T.);
#158=EDGE_CURVE('',#39,#43,#161,.F.);
#159=EDGE_CURVE('',#43,#45,#162,.T.);
#160=EDGE_CURVE('',#45,#39,#163,.T.);
#161=LINE('',#38,#164);
#162=LINE('',#42,#165);
#163=LINE('',#44,#166);
#164=VECTOR('',#167,1.0);
#165=VECTOR('',#168,1.0);
#166=VECTOR('',#169,1.0);
#167=DIRECTION('',(0.9993048571645775,-0.0372800542821937,-5.008904678584573E-09));
#168=DIRECTION('',(0,0.999999999999991,1.3435883544238726E-07));
#169=DIRECTION('',(-1,0,0));
#170=FACE_SURFACE('',(#175),#171,.T.);
#171=PLANE('',#172);
#172=AXIS2_PLACEMENT_3D('',#44,#173,#174);
#173=DIRECTION('',(NaN,NaN,NaN));
#174=DIRECTION('',(NaN,NaN,NaN));
#175=FACE_BOUND('',#176,.T.);
#176=EDGE_LOOP('',(#177,#178,#179));
#177=ORIENTED_EDGE('',*,*,#180,.T.);
#178=ORIENTED_EDGE('',*,*,#181,.T.);
#179=ORIENTED_EDGE('',*,*,#182,.T.);
#180=EDGE_CURVE('',#45,#45,#183,.F.);
#181=EDGE_CURVE('',#45,#43,#184,.T.);
#182=EDGE_CURVE('',#43,#45,#185,.T.);
#183=LINE('',#44,#186);
#184=LINE('',#44,#187);
#185=LINE('',#42,#188);
#186=VECTOR('',#189,1.0);
#187=VECTOR('',#190,1.0);
#188=VECTOR('',#191,1.0);
#189=DIRECTION('',(NaN,NaN,NaN));
#190=DIRECTION('',(0,-0.999999999999991,-1.3435883544238726E-07));
#191=DIRECTION('',(0,0.999999999999991,1.3435883544238726E-07));
#192=FACE_SURFACE('',(#197),#193,.T.);
#193=PLANE('',#194);
#194=AXIS2_PLACEMENT_3D('',#44,#195,#196);
#195=DIRECTION('',(1,0,0));
#196=DIRECTION('',(0,-0.999999999999991,-1.3435883544238726E-07));
#197=FACE_BOUND('',#198,.T.);
#198=EDGE_LOOP('',(#199,#200,#201));
#199=ORIENTED_EDGE('',*,*,#202,.T.);
#200=ORIENTED_EDGE('',*,*,#203,.T.);
#201=ORIENTED_EDGE('',*,*,#204,.T.);
#202=EDGE_CURVE('',#45,#43,#205,.F.);
#203=EDGE_CURVE('',#43,#47,#206,.T.);
#204=EDGE_CURVE('',#47,#45,#207,.T.);
#205=LINE('',#44,#208);
#206=LINE('',#42,#209);
#207=LINE('',#46,#210);
#208=VECTOR('',#211,1.0);
#209=VECTOR('',#212,1.0);
#210=VECTOR('',#213,1.0);
#211=DIRECTION('',(0,-0.999999999999991,-1.3435883544238726E-07));
#212=DIRECTION('',(0,1.3435883836500864E-07,-0.9999999999999909));
#213=DIRECTION('',(0,0.057900584353938134,0.9983223539175472));
#214=FACE_SURFACE('',(#219),#215,.T.);
#215=PLANE('',#216);
#216=AXIS2_PLACEMENT_3D('',#48,#217,#218);
#217=DIRECTION('',(NaN,NaN,NaN));
#218=DIRECTION('',(NaN,NaN,NaN));
#219=FACE_BOUND('',#220,.T.);
#220=EDGE_LOOP('',(#221,#222,#223));
#221=ORIENTED_EDGE('',*,*,#224,.T.);
#222=ORIENTED_EDGE('',*,*,#225,.T.);
#223=ORIENTED_EDGE('',*,*,#226,.T.);
#224=EDGE_CURVE('',#49,#49,#227,.F.);
#225=EDGE_CURVE('',#49,#45,#228,.T.);
#226=EDGE_CURVE('',#45,#49,#229,.T.);
#227=LINE('',#48,#230);
#228=LINE('',#48,#231);
#229=LINE('',#44,#232);
#230=VECTOR('',#233,1.0);
#231=VECTOR('',#234,1.0);
#232=VECTOR('',#235,1.0);
#233=DIRECTION('',(NaN,NaN,NaN));
#234=DIRECTION('',(0,-1.3435883836500867E-07,0.9999999999999909));
#235=DIRECTION('',(0,1.3435883836500867E-07,-0.9999999999999909));
#236=FACE_SURFACE('',(#241),#237,.T.);
#237=PLANE('',#238);
#238=AXIS2_PLACEMENT_3D('',#46,#239,#240);
#239=DIRECTION('',(1,0,0));
#240=DIRECTION('',(0,0.999999999999991,1.3435883747182412E-07));
#241=FACE_BOUND('',#242,.T.);
#242=EDGE_LOOP('',(#243,#244,#245));
#243=ORIENTED_EDGE('',*,*,#246,.T.);
#244=ORIENTED_EDGE('',*,*,#247,.T.);
#245=ORIENTED_EDGE('',*,*,#248,.T.);
#246=EDGE_CURVE('',#47,#49,#249,.F.);
#247=EDGE_CURVE('',#49,#45,#250,.T.);
#248=EDGE_CURVE('',#45,#47,#251,.T.);
#249=LINE('',#46,#252);
#250=LINE('',#48,#253);
#251=LINE('',#44,#254);
#252=VECTOR('',#255,1.0);
#253=VECTOR('',#256,1.0);
#254=VECTOR('',#257,1.0);
#255=DIRECTION('',(0,0.999999999999991,1.3435883747182412E-07));
#256=DIRECTION('',(0,-1.3435883836500867E-07,0.9999999999999909));
#257=DIRECTION('',(0,-0.057900584353938134,-0.9983223539175472));
#258=FACE_SURFACE('',(#263),#259,.T.);
#259=PLANE('',#260);
#260=AXIS2_PLACEMENT_3D('',#48,#261,#262);
#261=DIRECTION('',(0,1.3435883747182412E-07,-0.999999999999991));
#262=DIRECTION('',(0,-0.999999999999991,-1.3435883747182412E-07));
#263=FACE_BOUND('',#264,.T.);
#264=EDGE_LOOP('',(#265,#266,#267));
#265=ORIENTED_EDGE('',*,*,#268,.T.);
#266=ORIENTED_EDGE('',*,*,#269,.T.);
#267=ORIENTED_EDGE('',*,*,#270,.T.);
#268=EDGE_CURVE('',#49,#47,#271,.F.);
#269=EDGE_CURVE('',#47,#51,#272,.T.);
#270=EDGE_CURVE('',#51,#49,#273,.T.);
#271=LINE('',#48,#274);
#272=LINE('',#46,#275);
#273=LINE('',#50,#276);
#274=VECTOR('',#277,1.0);
#275=VECTOR('',#278,1.0);
#276=VECTOR('',#279,1.0);
#277=DIRECTION('',(0,-0.999999999999991,-1.3435883747182412E-07));
#278=DIRECTION('',(-1,0,0));
#279=DIRECTION('',(0.9993048571645775,0.0372800542821937,5.00890475424209E-09));
#280=FACE_SURFACE('',(#285),#281,.T.);
#281=PLANE('',#282);
#282=AXIS2_PLACEMENT_3D('',#48,#283,#284);
#283=DIRECTION('',(0,1.3435883747182412E-07,-0.999999999999991));
#284=DIRECTION('',(-0.9993048571645775,-0.0372800542821937,-5.00890475424209E-09));
#285=FACE_BOUND('',#286,.T.);
#286=EDGE_LOOP('',(#287,#288,#289));
#287=ORIENTED_EDGE('',*,*,#290,.T.);
#288=ORIENTED_EDGE('',*,*,#291,.T.);
#289=ORIENTED_EDGE('',*,*,#292,.T.);
#290=EDGE_CURVE('',#49,#51,#293,.F.);
#291=EDGE_CURVE('',#51,#53,#294,.T.);
#292=EDGE_CURVE('',#53,#49,#295,.T.);
#293=LINE('',#48,#296);
#294=LINE('',#50,#297);
#295=LINE('',#52,#298);
#296=VECTOR('',#299,1.0);
#297=VECTOR('',#300,1.0);
#298=VECTOR('',#301,1.0);
#299=DIRECTION('',(-0.9993048571645775,-0.0372800542821937,-5.00890475424209E-09));
#300=DIRECTION('',(0,0.999999999999991,1.3435883747182412E-07));
#301=DIRECTION('',(1,0,0));
#302=FACE_SURFACE('',(#307),#303,.T.);
#303=PLANE('',#304);
#304=AXIS2_PLACEMENT_3D('',#54,#305,#306);
#305=DIRECTION('',(0,0.999999999999991,1.3435883836849206E-07));
#306=DIRECTION('',(-1,0,0));
#307=FACE_BOUND('',#308,.T.);
#308=EDGE_LOOP('',(#309,#310,#311));
#309=ORIENTED_EDGE('',*,*,#312,.T.);
#310=ORIENTED_EDGE('',*,*,#313,.T.);
#311=ORIENTED_EDGE('',*,*,#314,.T.);
#312=EDGE_CURVE('',#55,#57,#315,.F.);
#313=EDGE_CURVE('',#57,#59,#316,.T.);
#314=EDGE_CURVE('',#59,#55,#317,.T.);
#315=LINE('',#54,#318);
#316=LINE('',#56,#319);
#317=LINE('',#58,#320);
#318=VECTOR('',#321,1.0);
#319=VECTOR('',#322,1.0);
#320=VECTOR('',#323,1.0);
#321=DIRECTION('',(-1,0,0));
#322=DIRECTION('',(0,-1.343588383684921E-07,0.999999999999991));
#323=DIRECTION('',(0.014005538034445694,1.3434566013682133E-07,-0.9999019176420993));
#324=FACE_SURFACE('',(#329),#325,.T.);
#325=PLANE('',#326);
#326=AXIS2_PLACEMENT_3D('',#60,#327,#328);
#327=DIRECTION('',(0,0.999999999999991,1.343588383684921E-07));
#328=DIRECTION('',(0,1.343588383684921E-07,-0.999999999999991));
#329=FACE_BOUND('',#330,.T.);
#330=EDGE_LOOP('',(#331,#332,#333));
#331=ORIENTED_EDGE('',*,*,#334,.T.);
#332=ORIENTED_EDGE('',*,*,#335,.T.);
#333=ORIENTED_EDGE('',*,*,#336,.T.);
#334=EDGE_CURVE('',#61,#63,#337,.F.);
#335=EDGE_CURVE('',#63,#65,#338,.T.);
#336=EDGE_CURVE('',#65,#61,#339,.T.);
#337=LINE('',#60,#340);
#338=LINE('',#62,#341);
#339=LINE('',#64,#342);
#340=VECTOR('',#343,1.0);
#341=VECTOR('',#344,1.0);
#342=VECTOR('',#345,1.0);
#343=DIRECTION('',(0,1.343588383684921E-07,-0.999999999999991));
#344=DIRECTION('',(-1,0,0));
#345=DIRECTION('',(0.014622052194191241,-1.3434447434457046E-07,0.9998930920801545));
#346=FACE_SURFACE('',(#351),#347,.T.);
#347=PLANE('',#348);
#348=AXIS2_PLACEMENT_3D('',#66,#349,#350);
#349=DIRECTION('',(1.4707568167012215E-16,0.9999999999999909,1.3435883837055218E-07));
#350=DIRECTION('',(0,1.3435883837055218E-07,-0.999999999999991));
#351=FACE_BOUND('',#352,.T.);
#352=EDGE_LOOP('',(#353,#354,#355));
#353=ORIENTED_EDGE('',*,*,#356,.T.);
#354=ORIENTED_EDGE('',*,*,#357,.T.);
#355=ORIENTED_EDGE('',*,*,#358,.T.);
#356=EDGE_CURVE('',#67,#55,#359,.F.);
#357=EDGE_CURVE('',#55,#59,#360,.T.);
#358=EDGE_CURVE('',#59,#67,#361,.T.);
#359=LINE('',#66,#362);
#360=LINE('',#54,#363);
#361=LINE('',#58,#364);
#362=VECTOR('',#365,1.0);
#363=VECTOR('',#366,1.0);
#364=VECTOR('',#367,1.0);
#365=DIRECTION('',(0,1.3435883837055218E-07,-0.999999999999991));
#366=DIRECTION('',(-0.014005538034445694,-1.3434566013682133E-07,0.9999019176420993));
#367=DIRECTION('',(0.008629707640560987,-1.343538353027779E-07,0.9999627633797271));
#368=FACE_SURFACE('',(#373),#369,.T.);
#369=PLANE('',#370);
#370=AXIS2_PLACEMENT_3D('',#60,#371,#372);
#371=DIRECTION('',(-1.4087503546817447E-16,0.9999999999999909,1.3435883837055218E-07));
#372=DIRECTION('',(-0.014622052194191241,1.3434447434457046E-07,-0.9998930920801545));
#373=FACE_BOUND('',#374,.T.);
#374=EDGE_LOOP('',(#375,#376,#377));
#375=ORIENTED_EDGE('',*,*,#378,.T.);
#376=ORIENTED_EDGE('',*,*,#379,.T.);
#377=ORIENTED_EDGE('',*,*,#380,.T.);
#378=EDGE_CURVE('',#61,#65,#381,.F.);
#379=EDGE_CURVE('',#65,#69,#382,.T.);
#380=EDGE_CURVE('',#69,#61,#383,.T.);
#381=LINE('',#60,#384);
#382=LINE('',#64,#385);
#383=LINE('',#68,#386);
#384=VECTOR('',#387,1.0);
#385=VECTOR('',#388,1.0);
#386=VECTOR('',#389,1.0);
#387=DIRECTION('',(-0.014622052194191241,1.3434447434457046E-07,-0.9998930920801545));
#388=DIRECTION('',(0,-1.3435883837055218E-07,0.999999999999991));
#389=DIRECTION('',(0.009009630771892317,1.3435338507615451E-07,-0.9999594124529934));
#390=FACE_SURFACE('',(#395),#391,.T.);
#391=PLANE('',#392);
#392=AXIS2_PLACEMENT_3D('',#66,#393,#394);
#393=DIRECTION('',(0,0.999999999999991,1.3435883837182148E-07));
#394=DIRECTION('',(-0.008629707640560987,1.343538353027779E-07,-0.9999627633797271));
#395=FACE_BOUND('',#396,.T.);
#396=EDGE_LOOP('',(#397,#398,#399));
#397=ORIENTED_EDGE('',*,*,#400,.T.);
#398=ORIENTED_EDGE('',*,*,#401,.T.);
#399=ORIENTED_EDGE('',*,*,#402,.T.);
#400=EDGE_CURVE('',#67,#59,#403,.F.);
#401=EDGE_CURVE('',#59,#61,#404,.T.);
#402=EDGE_CURVE('',#61,#67,#405,.T.);
#403=LINE('',#66,#406);
#404=LINE('',#58,#407);
#405=LINE('',#60,#408);
#406=VECTOR('',#409,1.0);
#407=VECTOR('',#410,1.0);
#408=VECTOR('',#411,1.0);
#409=DIRECTION('',(-0.008629707640560987,1.343538353027779E-07,-0.9999627633797271));
#410=DIRECTION('',(-1,0,0));
#411=DIRECTION('',(0.9309227893102048,-4.9070003711319124E-08,0.3652160461191508));
#412=FACE_SURFACE('',(#417),#413,.T.);
#413=PLANE('',#414);
#414=AXIS2_PLACEMENT_3D('',#60,#415,#416);
#415=DIRECTION('',(0,0.9999999999999909,1.3435883837182146E-07));
#416=DIRECTION('',(-0.009009630771892317,-1.3435338507615451E-07,0.9999594124529934));
#417=FACE_BOUND('',#418,.T.);
#418=EDGE_LOOP('',(#419,#420,#421));
#419=ORIENTED_EDGE('',*,*,#422,.T.);
#420=ORIENTED_EDGE('',*,*,#423,.T.);
#421=ORIENTED_EDGE('',*,*,#424,.T.);
#422=EDGE_CURVE('',#61,#69,#425,.F.);
#423=EDGE_CURVE('',#69,#67,#426,.T.);
#424=EDGE_CURVE('',#67,#61,#427,.T.);
#425=LINE('',#60,#428);
#426=LINE('',#68,#429);
#427=LINE('',#66,#430);
#428=VECTOR('',#431,1.0);
#429=VECTOR('',#432,1.0);
#430=VECTOR('',#433,1.0);
#431=DIRECTION('',(-0.009009630771892317,-1.3435338507615451E-07,0.9999594124529934));
#432=DIRECTION('',(1,0,0));
#433=DIRECTION('',(-0.9309227893102048,4.9070003711319124E-08,-0.3652160461191508));
#434=FACE_SURFACE('',(#439),#435,.T.);
#435=PLANE('',#436);
#436=AXIS2_PLACEMENT_3D('',#70,#437,#438);
#437=DIRECTION('',(0,-0.999999999999991,-1.3435883793522603E-07));
#438=DIRECTION('',(-0.9731208582636175,3.094217097060665E-08,-0.23029501777563377));
#439=FACE_BOUND('',#440,.T.);
#440=EDGE_LOOP('',(#441,#442,#443));
#441=ORIENTED_EDGE('',*,*,#444,.T.);
#442=ORIENTED_EDGE('',*,*,#445,.T.);
#443=ORIENTED_EDGE('',*,*,#446,.T.);
#444=EDGE_CURVE('',#71,#73,#447,.F.);
#445=EDGE_CURVE('',#73,#47,#448,.T.);
#446=EDGE_CURVE('',#47,#71,#449,.T.);
#447=LINE('',#70,#450);
#448=LINE('',#72,#451);
#449=LINE('',#46,#452);
#450=VECTOR('',#453,1.0);
#451=VECTOR('',#454,1.0);
#452=VECTOR('',#455,1.0);
#453=DIRECTION('',(-0.9731208582636175,3.094217097060665E-08,-0.23029501777563377));
#454=DIRECTION('',(1,0,0));
#455=DIRECTION('',(-0.9998986798429766,-1.912573627255356E-09,0.014234818167878058));
#456=FACE_SURFACE('',(#461),#457,.T.);
#457=PLANE('',#458);
#458=AXIS2_PLACEMENT_3D('',#70,#459,#460);
#459=DIRECTION('',(0,-0.9999999999999909,-1.34358837935226E-07));
#460=DIRECTION('',(0.9998986798429766,1.912573627255356E-09,-0.014234818167878058));
#461=FACE_BOUND('',#462,.T.);
#462=EDGE_LOOP('',(#463,#464,#465));
#463=ORIENTED_EDGE('',*,*,#466,.T.);
#464=ORIENTED_EDGE('',*,*,#467,.T.);
#465=ORIENTED_EDGE('',*,*,#468,.T.);
#466=EDGE_CURVE('',#71,#47,#469,.F.);
#467=EDGE_CURVE('',#47,#75,#470,.T.);
#468=EDGE_CURVE('',#75,#71,#471,.T.);
#469=LINE('',#70,#472);
#470=LINE('',#46,#473);
#471=LINE('',#74,#474);
#472=VECTOR('',#475,1.0);
#473=VECTOR('',#476,1.0);
#474=VECTOR('',#477,1.0);
#475=DIRECTION('',(0.9998986798429766,1.912573627255356E-09,-0.014234818167878058));
#476=DIRECTION('',(-0.9731208582636175,-3.094217097060665E-08,0.23029501777563377));
#477=DIRECTION('',(-1,0,0));
#478=FACE_SURFACE('',(#483),#479,.T.);
#479=PLANE('',#480);
#480=AXIS2_PLACEMENT_3D('',#76,#481,#482);
#481=DIRECTION('',(-7.569529056232878E-17,-0.9999999999999911,-1.343588382550795E-07));
#482=DIRECTION('',(0,1.3435883825507949E-07,-0.9999999999999909));
#483=FACE_BOUND('',#484,.T.);
#484=EDGE_LOOP('',(#485,#486,#487));
#485=ORIENTED_EDGE('',*,*,#488,.T.);
#486=ORIENTED_EDGE('',*,*,#489,.T.);
#487=ORIENTED_EDGE('',*,*,#490,.T.);
#488=EDGE_CURVE('',#77,#75,#491,.F.);
#489=EDGE_CURVE('',#75,#47,#492,.T.);
#490=EDGE_CURVE('',#47,#77,#493,.T.);
#491=LINE('',#76,#494);
#492=LINE('',#74,#495);
#493=LINE('',#46,#496);
#494=VECTOR('',#497,1.0);
#495=VECTOR('',#498,1.0);
#496=VECTOR('',#499,1.0);
#497=DIRECTION('',(0,1.3435883825507949E-07,-0.9999999999999909));
#498=DIRECTION('',(0.9731208582636175,3.094217097060665E-08,-0.23029501777563377));
#499=DIRECTION('',(-0.7543881032753016,-8.819699250385127E-08,0.6564286630218743));
#500=FACE_SURFACE('',(#505),#501,.T.);
#501=PLANE('',#502);
#502=AXIS2_PLACEMENT_3D('',#78,#503,#504);
#503=DIRECTION('',(1.0171072639293971E-16,-0.999999999999991,-1.3435883836500867E-07));
#504=DIRECTION('',(0,1.3435883836500864E-07,-0.9999999999999909));
#505=FACE_BOUND('',#506,.T.);
#506=EDGE_LOOP('',(#507,#508,#509));
#507=ORIENTED_EDGE('',*,*,#510,.T.);
#508=ORIENTED_EDGE('',*,*,#511,.T.);
#509=ORIENTED_EDGE('',*,*,#512,.T.);
#510=EDGE_CURVE('',#79,#73,#513,.F.);
#511=EDGE_CURVE('',#73,#71,#514,.T.);
#512=EDGE_CURVE('',#71,#79,#515,.T.);
#513=LINE('',#78,#516);
#514=LINE('',#72,#517);
#515=LINE('',#70,#518);
#516=VECTOR('',#519,1.0);
#517=VECTOR('',#520,1.0);
#518=VECTOR('',#521,1.0);
#519=DIRECTION('',(0,1.3435883836500864E-07,-0.9999999999999909));
#520=DIRECTION('',(0.9731208582636175,-3.094217097060665E-08,0.23029501777563377));
#521=DIRECTION('',(-0.08973257271110575,-1.338168208063514E-07,0.9959658956985568));
#522=FACE_SURFACE('',(#527),#523,.T.);
#523=PLANE('',#524);
#524=AXIS2_PLACEMENT_3D('',#78,#525,#526);
#525=DIRECTION('',(1.32184438490308E-15,-0.9999999999999909,-1.3435883825507912E-07));
#526=DIRECTION('',(0.08973257271110575,1.338168208063514E-07,-0.9959658956985568));
#527=FACE_BOUND('',#528,.T.);
#528=EDGE_LOOP('',(#529,#530,#531));
#529=ORIENTED_EDGE('',*,*,#532,.T.);
#530=ORIENTED_EDGE('',*,*,#533,.T.);
#531=ORIENTED_EDGE('',*,*,#534,.T.);
#532=EDGE_CURVE('',#79,#71,#535,.F.);
#533=EDGE_CURVE('',#71,#81,#536,.T.);
#534=EDGE_CURVE('',#81,#79,#537,.T.);
#535=LINE('',#78,#538);
#536=LINE('',#70,#539);
#537=LINE('',#80,#540);
#538=VECTOR('',#541,1.0);
#539=VECTOR('',#542,1.0);
#540=VECTOR('',#543,1.0);
#541=DIRECTION('',(0.08973257271110575,1.338168208063514E-07,-0.9959658956985568));
#542=DIRECTION('',(0,-1.3435883825507949E-07,0.9999999999999909));
#543=DIRECTION('',(-0.09511631517035905,-1.3374967764003552E-07,0.9954661654664085));
#544=FACE_SURFACE('',(#549),#545,.T.);
#545=PLANE('',#546);
#546=AXIS2_PLACEMENT_3D('',#76,#547,#548);
#547=DIRECTION('',(-1.7134984293557435E-16,-0.999999999999991,-1.3435883836500867E-07));
#548=DIRECTION('',(0.7543881032753016,8.819699250385127E-08,-0.6564286630218743));
#549=FACE_BOUND('',#550,.T.);
#550=EDGE_LOOP('',(#551,#552,#553));
#551=ORIENTED_EDGE('',*,*,#554,.T.);
#552=ORIENTED_EDGE('',*,*,#555,.T.);
#553=ORIENTED_EDGE('',*,*,#556,.T.);
#554=EDGE_CURVE('',#77,#47,#557,.F.);
#555=EDGE_CURVE('',#47,#43,#558,.T.);
#556=EDGE_CURVE('',#43,#77,#559,.T.);
#557=LINE('',#76,#560);
#558=LINE('',#46,#561);
#559=LINE('',#42,#562);
#560=VECTOR('',#563,1.0);
#561=VECTOR('',#564,1.0);
#562=VECTOR('',#565,1.0);
#563=DIRECTION('',(0.7543881032753016,8.819699250385127E-08,-0.6564286630218743));
#564=DIRECTION('',(0,-1.3435883836500864E-07,0.9999999999999909));
#565=DIRECTION('',(-0.09511631517035905,1.3374967764003552E-07,-0.9954661654664085));
#566=FACE_SURFACE('',(#571),#567,.T.);
#567=PLANE('',#568);
#568=AXIS2_PLACEMENT_3D('',#78,#569,#570);
#569=DIRECTION('',(0,-0.999999999999991,-1.3435883838138104E-07));
#570=DIRECTION('',(0.09511631517035905,1.3374967764003552E-07,-0.9954661654664085));
#571=FACE_BOUND('',#572,.T.);
#572=EDGE_LOOP('',(#573,#574,#575));
#573=ORIENTED_EDGE('',*,*,#576,.T.);
#574=ORIENTED_EDGE('',*,*,#577,.T.);
#575=ORIENTED_EDGE('',*,*,#578,.T.);
#576=EDGE_CURVE('',#79,#81,#579,.F.);
#577=EDGE_CURVE('',#81,#77,#580,.T.);
#578=EDGE_CURVE('',#77,#79,#581,.T.);
#579=LINE('',#78,#582);
#580=LINE('',#80,#583);
#581=LINE('',#76,#584);
#582=VECTOR('',#585,1.0);
#583=VECTOR('',#586,1.0);
#584=VECTOR('',#587,1.0);
#585=DIRECTION('',(0.09511631517035905,1.3374967764003552E-07,-0.9954661654664085));
#586=DIRECTION('',(1,0,0));
#587=DIRECTION('',(-0.8462524782158842,-7.158398117045199E-08,0.5327820784462154));
#588=FACE_SURFACE('',(#593),#589,.T.);
#589=PLANE('',#590);
#590=AXIS2_PLACEMENT_3D('',#76,#591,#592);
#591=DIRECTION('',(0,-0.999999999999991,-1.3435883838138104E-07));
#592=DIRECTION('',(0.09511631517035905,-1.3374967764003552E-07,0.9954661654664085));
#593=FACE_BOUND('',#594,.T.);
#594=EDGE_LOOP('',(#595,#596,#597));
#595=ORIENTED_EDGE('',*,*,#598,.T.);
#596=ORIENTED_EDGE('',*,*,#599,.T.);
#597=ORIENTED_EDGE('',*,*,#600,.T.);
#598=EDGE_CURVE('',#77,#43,#601,.F.);
#599=EDGE_CURVE('',#43,#79,#602,.T.);
#600=EDGE_CURVE('',#79,#77,#603,.T.);
#601=LINE('',#76,#604);
#602=LINE('',#42,#605);
#603=LINE('',#78,#606);
#604=VECTOR('',#607,1.0);
#605=VECTOR('',#608,1.0);
#606=VECTOR('',#609,1.0);
#607=DIRECTION('',(0.09511631517035905,-1.3374967764003552E-07,0.9954661654664085));
#608=DIRECTION('',(-1,0,0));
#609=DIRECTION('',(0.8462524782158842,7.158398117045199E-08,-0.5327820784462154));
#610=SHAPE_DEFINITION_REPRESENTATION(#611,#612);
#611=PRODUCT_DEFINITION_SHAPE('productshape1','',#615);
#612=MANIFOLD_SURFACE_SHAPE_REPRESENTATION('',(#613,#9),#3);
#613=SHELL_BASED_SURFACE_MODEL('shell1',(#618));
#614=PRODUCT('product1','','',(#13));
#615=PRODUCT_DEFINITION('mesh1','',#616,#2);
#616=PRODUCT_DEFINITION_FORMATION_WITH_SPECIFIED_SOURCE('prodsource1','',#614,.NOT_KNOWN.);
#617=STYLED_ITEM('',(#18),#618);
#618=CLOSED_SHELL('',(#719,#741,#763,#785,#807,#829,#851,#873,#895,#917,#939,#961,#983,#1005,#1027,#1049,#1071,#1093,#1115,#1137,#1159,#1181,#1203,#1225,#1247,#1269,#1291,#1313,#1335,#1357,#1379,#1401,#1423,#1445,#1467,#1489,#1511,#1533,#1555,#1577,#1599,#1621,#1643,#1665,#1687,#1709));
#619=CARTESIAN_POINT('',(-164.21078830234546,-49.53361218871382,124.92791305178862));
#620=VERTEX_POINT('',#619);
#621=CARTESIAN_POINT('',(-164.21078830234546,-63.53833924590374,124.92791117012978));
#622=VERTEX_POINT('',#621);
#623=CARTESIAN_POINT('',(-164.21078830234546,-63.53833743284759,111.43377728969298));
#624=VERTEX_POINT('',#623);
#625=CARTESIAN_POINT('',(-164.21078830234546,-49.533610375657666,111.43377917135183));
#626=VERTEX_POINT('',#625);
#627=CARTESIAN_POINT('',(-162.55053432881323,-49.53361218871382,124.92791305178862));
#628=VERTEX_POINT('',#627);
#629=CARTESIAN_POINT('',(-162.55053432881323,-48.77541303622185,124.92791315365939));
#630=VERTEX_POINT('',#629);
#631=CARTESIAN_POINT('',(-161.3900062614739,-48.77541303622185,124.92791315365939));
#632=VERTEX_POINT('',#631);
#633=CARTESIAN_POINT('',(-161.3900062614739,-56.506028133806566,124.92791211498292));
#634=VERTEX_POINT('',#633);
#635=CARTESIAN_POINT('',(166.92810400425878,-49.53361218871382,124.92791305178862));
#636=VERTEX_POINT('',#635);
#637=CARTESIAN_POINT('',(168.58835797779102,-49.53361218871382,124.92791305178862));
#638=VERTEX_POINT('',#637);
#639=CARTESIAN_POINT('',(168.58835797779102,-63.53833924590374,124.92791117012978));
#640=VERTEX_POINT('',#639);
#641=CARTESIAN_POINT('',(165.81651745620547,-48.77541303622185,124.92791315365939));
#642=VERTEX_POINT('',#641);
#643=CARTESIAN_POINT('',(166.92810400425878,-48.77541303622185,124.92791315365939));
#644=VERTEX_POINT('',#643);
#645=CARTESIAN_POINT('',(165.81651745620547,-56.506028133806566,124.92791211498292));
#646=VERTEX_POINT('',#645);
#647=CARTESIAN_POINT('',(168.58835797779102,-49.533610375657666,111.43377917135183));
#648=VERTEX_POINT('',#647);
#649=CARTESIAN_POINT('',(168.58835797779102,-63.53833743284759,111.43377728969298));
#650=VERTEX_POINT('',#649);
#651=CARTESIAN_POINT('',(168.58835797779102,-49.53361153927439,120.09429408987626));
#652=VERTEX_POINT('',#651);
#653=CARTESIAN_POINT('',(-164.21078830234546,-63.53833743284759,111.43377728969298));
#654=VERTEX_POINT('',#653);
#655=CARTESIAN_POINT('',(-164.21078830234546,-49.533610375657666,111.43377917135183));
#656=VERTEX_POINT('',#655);
#657=CARTESIAN_POINT('',(-161.3900062614739,-48.77542369892029,204.28777196737016));
#658=VERTEX_POINT('',#657);
#659=CARTESIAN_POINT('',(-161.3900062614739,-56.50603879650501,204.2877709286937));
#660=VERTEX_POINT('',#659);
#661=CARTESIAN_POINT('',(-161.3900062614739,-56.506028133806566,124.92791211498292));
#662=VERTEX_POINT('',#661);
#663=CARTESIAN_POINT('',(-161.3900062614739,-48.77541303622185,124.92791315365939));
#664=VERTEX_POINT('',#663);
#665=CARTESIAN_POINT('',(165.81651745620547,-48.77542369892029,204.28777196737016));
#666=VERTEX_POINT('',#665);
#667=CARTESIAN_POINT('',(165.81651745620547,-56.50603879650501,204.2877709286937));
#668=VERTEX_POINT('',#667);
#669=CARTESIAN_POINT('',(165.81651745620547,-56.506028133806566,124.92791211498292));
#670=VERTEX_POINT('',#669);
#671=CARTESIAN_POINT('',(165.81651745620547,-48.77541303622185,124.92791315365939));
#672=VERTEX_POINT('',#671);
#673=CARTESIAN_POINT('',(-161.3900062614739,-56.506028133806566,124.92791211498292));
#674=VERTEX_POINT('',#673);
#675=CARTESIAN_POINT('',(-161.3900062614739,-56.50603879650501,204.2877709286937));
#676=VERTEX_POINT('',#675);
#677=CARTESIAN_POINT('',(166.92810400425878,-49.53361218871382,124.92791305178862));
#678=VERTEX_POINT('',#677);
#679=CARTESIAN_POINT('',(166.92810400425878,-49.533640157434924,333.0922693785649));
#680=VERTEX_POINT('',#679);
#681=CARTESIAN_POINT('',(189.88958142962292,-49.5336421418482,347.8617724150265));
#682=VERTEX_POINT('',#681);
#683=CARTESIAN_POINT('',(189.88958142962292,-49.53360969834601,106.39271403352754));
#684=VERTEX_POINT('',#683);
#685=CARTESIAN_POINT('',(168.58835797779102,-49.53361153927439,120.09429408987626));
#686=VERTEX_POINT('',#685);
#687=CARTESIAN_POINT('',(168.58835797779102,-49.53361218871382,124.92791305178862));
#688=VERTEX_POINT('',#687);
#689=CARTESIAN_POINT('',(-162.55053432881323,-49.533640157434924,333.0922693785649));
#690=VERTEX_POINT('',#689);
#691=CARTESIAN_POINT('',(-162.55053432881323,-49.53361218871382,124.92791305178862));
#692=VERTEX_POINT('',#691);
#693=CARTESIAN_POINT('',(-164.21078830234546,-49.53361218871382,124.92791305178862));
#694=VERTEX_POINT('',#693);
#695=CARTESIAN_POINT('',(-185.51201175417737,-49.5336421418482,347.8617724150265));
#696=VERTEX_POINT('',#695);
#697=CARTESIAN_POINT('',(-164.21078830234546,-49.533610375657666,111.43377917135183));
#698=VERTEX_POINT('',#697);
#699=CARTESIAN_POINT('',(-185.51201175417737,-49.53360969834601,106.39271403352754));
#700=VERTEX_POINT('',#699);
#701=CARTESIAN_POINT('',(168.58835797779102,-49.533610375657666,111.43377917135183));
#702=VERTEX_POINT('',#701);
#703=CARTESIAN_POINT('',(-162.55053432881323,-48.77541303622185,124.92791315365939));
#704=VERTEX_POINT('',#703);
#705=CARTESIAN_POINT('',(-162.55053432881323,-49.53361218871382,124.92791305178862));
#706=VERTEX_POINT('',#705);
#707=CARTESIAN_POINT('',(-162.55053432881323,-49.533640157434924,333.0922693785649));
#708=VERTEX_POINT('',#707);
#709=CARTESIAN_POINT('',(-162.55053432881323,-48.775441004942955,333.0922694804357));
#710=VERTEX_POINT('',#709);
#711=CARTESIAN_POINT('',(166.92810400425878,-49.533640157434924,333.0922693785649));
#712=VERTEX_POINT('',#711);
#713=CARTESIAN_POINT('',(166.92810400425878,-48.775441004942955,333.0922694804357));
#714=VERTEX_POINT('',#713);
#715=CARTESIAN_POINT('',(166.92810400425878,-49.53361218871382,124.92791305178862));
#716=VERTEX_POINT('',#715);
#717=CARTESIAN_POINT('',(166.92810400425878,-48.77541303622185,124.92791315365939));
#718=VERTEX_POINT('',#717);
#719=FACE_SURFACE('',(#724),#720,.T.);
#720=PLANE('',#721);
#721=AXIS2_PLACEMENT_3D('',#619,#722,#723);
#722=DIRECTION('',(1,0,0));
#723=DIRECTION('',(0,-0.999999999999991,-1.3435883747182412E-07));
#724=FACE_BOUND('',#725,.T.);
#725=EDGE_LOOP('',(#726,#727,#728));
#726=ORIENTED_EDGE('',*,*,#729,.T.);
#727=ORIENTED_EDGE('',*,*,#730,.T.);
#728=ORIENTED_EDGE('',*,*,#731,.T.);
#729=EDGE_CURVE('',#620,#622,#732,.F.);
#730=EDGE_CURVE('',#622,#624,#733,.T.);
#731=EDGE_CURVE('',#624,#620,#734,.T.);
#732=LINE('',#619,#735);
#733=LINE('',#621,#736);
#734=LINE('',#623,#737);
#735=VECTOR('',#738,1.0);
#736=VECTOR('',#739,1.0);
#737=VECTOR('',#740,1.0);
#738=DIRECTION('',(0,-0.999999999999991,-1.3435883747182412E-07));
#739=DIRECTION('',(0,1.3435883825507949E-07,-0.9999999999999909));
#740=DIRECTION('',(0,0.7201119775062882,0.6938578671831738));
#741=FACE_SURFACE('',(#746),#742,.T.);
#742=PLANE('',#743);
#743=AXIS2_PLACEMENT_3D('',#619,#744,#745);
#744=DIRECTION('',(1,0,0));
#745=DIRECTION('',(0,-0.7201119775062882,-0.6938578671831738));
#746=FACE_BOUND('',#747,.T.);
#747=EDGE_LOOP('',(#748,#749,#750));
#748=ORIENTED_EDGE('',*,*,#751,.T.);
#749=ORIENTED_EDGE('',*,*,#752,.T.);
#750=ORIENTED_EDGE('',*,*,#753,.T.);
#751=EDGE_CURVE('',#620,#624,#754,.F.);
#752=EDGE_CURVE('',#624,#626,#755,.T.);
#753=EDGE_CURVE('',#626,#620,#756,.T.);
#754=LINE('',#619,#757);
#755=LINE('',#623,#758);
#756=LINE('',#625,#759);
#757=VECTOR('',#760,1.0);
#758=VECTOR('',#761,1.0);
#759=VECTOR('',#762,1.0);
#760=DIRECTION('',(0,-0.7201119775062882,-0.6938578671831738));
#761=DIRECTION('',(0,0.999999999999991,1.3435883747182412E-07));
#762=DIRECTION('',(0,-1.3435883825507949E-07,0.9999999999999909));
#763=FACE_SURFACE('',(#768),#764,.T.);
#764=PLANE('',#765);
#765=AXIS2_PLACEMENT_3D('',#627,#766,#767);
#766=DIRECTION('',(0,1.343588521386386E-07,-0.9999999999999909));
#767=DIRECTION('',(0,0.9999999999999909,1.3435885213863858E-07));
#768=FACE_BOUND('',#769,.T.);
#769=EDGE_LOOP('',(#770,#771,#772));
#770=ORIENTED_EDGE('',*,*,#773,.T.);
#771=ORIENTED_EDGE('',*,*,#774,.T.);
#772=ORIENTED_EDGE('',*,*,#775,.T.);
#773=EDGE_CURVE('',#628,#630,#776,.F.);
#774=EDGE_CURVE('',#630,#632,#777,.T.);
#775=EDGE_CURVE('',#632,#628,#778,.T.);
#776=LINE('',#627,#779);
#777=LINE('',#629,#780);
#778=LINE('',#631,#781);
#779=VECTOR('',#782,1.0);
#780=VECTOR('',#783,1.0);
#781=VECTOR('',#784,1.0);
#782=DIRECTION('',(0,0.9999999999999909,1.3435885213863858E-07));
#783=DIRECTION('',(1,0,0));
#784=DIRECTION('',(-0.8371703348176532,-0.5469422551799167,-7.348653359209263E-08));
#785=FACE_SURFACE('',(#790),#786,.T.);
#786=PLANE('',#787);
#787=AXIS2_PLACEMENT_3D('',#627,#788,#789);
#788=DIRECTION('',(8.282605730312799E-15,1.3435883946097152E-07,-0.9999999999999909));
#789=DIRECTION('',(0.8371703348176532,0.5469422551799167,7.348653359209263E-08));
#790=FACE_BOUND('',#791,.T.);
#791=EDGE_LOOP('',(#792,#793,#794));
#792=ORIENTED_EDGE('',*,*,#795,.T.);
#793=ORIENTED_EDGE('',*,*,#796,.T.);
#794=ORIENTED_EDGE('',*,*,#797,.T.);
#795=EDGE_CURVE('',#628,#632,#798,.F.);
#796=EDGE_CURVE('',#632,#634,#799,.T.);
#797=EDGE_CURVE('',#634,#628,#800,.T.);
#798=LINE('',#627,#801);
#799=LINE('',#631,#802);
#800=LINE('',#633,#803);
#801=VECTOR('',#804,1.0);
#802=VECTOR('',#805,1.0);
#803=VECTOR('',#806,1.0);
#804=DIRECTION('',(0.8371703348176532,0.5469422551799167,7.348653359209263E-08));
#805=DIRECTION('',(0,-0.9999999999999909,-1.3435883946097152E-07));
#806=DIRECTION('',(-0.16418682597133646,0.9864292606048548,1.32535489305319E-07));
#807=FACE_SURFACE('',(#812),#808,.T.);
#808=PLANE('',#809);
#809=AXIS2_PLACEMENT_3D('',#621,#810,#811);
#810=DIRECTION('',(0,1.3435883747182412E-07,-0.999999999999991));
#811=DIRECTION('',(0,0.999999999999991,1.3435883747182412E-07));
#812=FACE_BOUND('',#813,.T.);
#813=EDGE_LOOP('',(#814,#815,#816));
#814=ORIENTED_EDGE('',*,*,#817,.T.);
#815=ORIENTED_EDGE('',*,*,#818,.T.);
#816=ORIENTED_EDGE('',*,*,#819,.T.);
#817=EDGE_CURVE('',#622,#620,#820,.F.);
#818=EDGE_CURVE('',#620,#628,#821,.T.);
#819=EDGE_CURVE('',#628,#622,#822,.T.);
#820=LINE('',#621,#823);
#821=LINE('',#619,#824);
#822=LINE('',#627,#825);
#823=VECTOR('',#826,1.0);
#824=VECTOR('',#827,1.0);
#825=VECTOR('',#828,1.0);
#826=DIRECTION('',(0,0.999999999999991,1.3435883747182412E-07));
#827=DIRECTION('',(1,0,0));
#828=DIRECTION('',(-0.1177251735273458,-0.9930462141904265,-1.3342453489442295E-07));
#829=FACE_SURFACE('',(#834),#830,.T.);
#830=PLANE('',#831);
#831=AXIS2_PLACEMENT_3D('',#635,#832,#833);
#832=DIRECTION('',(0,1.3435883747182412E-07,-0.999999999999991));
#833=DIRECTION('',(1,0,0));
#834=FACE_BOUND('',#835,.T.);
#835=EDGE_LOOP('',(#836,#837,#838));
#836=ORIENTED_EDGE('',*,*,#839,.T.);
#837=ORIENTED_EDGE('',*,*,#840,.T.);
#838=ORIENTED_EDGE('',*,*,#841,.T.);
#839=EDGE_CURVE('',#636,#638,#842,.F.);
#840=EDGE_CURVE('',#638,#640,#843,.T.);
#841=EDGE_CURVE('',#640,#636,#844,.T.);
#842=LINE('',#635,#845);
#843=LINE('',#637,#846);
#844=LINE('',#639,#847);
#845=VECTOR('',#848,1.0);
#846=VECTOR('',#849,1.0);
#847=VECTOR('',#850,1.0);
#848=DIRECTION('',(1,0,0));
#849=DIRECTION('',(0,-0.999999999999991,-1.3435883747182412E-07));
#850=DIRECTION('',(-0.1177251735273458,0.9930462141904265,1.3342453489442295E-07));
#851=FACE_SURFACE('',(#856),#852,.T.);
#852=PLANE('',#853);
#853=AXIS2_PLACEMENT_3D('',#641,#854,#855);
#854=DIRECTION('',(0,1.343588521386386E-07,-0.999999999999991));
#855=DIRECTION('',(1,0,0));
#856=FACE_BOUND('',#857,.T.);
#857=EDGE_LOOP('',(#858,#859,#860));
#858=ORIENTED_EDGE('',*,*,#861,.T.);
#859=ORIENTED_EDGE('',*,*,#862,.T.);
#860=ORIENTED_EDGE('',*,*,#863,.T.);
#861=EDGE_CURVE('',#642,#644,#864,.F.);
#862=EDGE_CURVE('',#644,#636,#865,.T.);
#863=EDGE_CURVE('',#636,#642,#866,.T.);
#864=LINE('',#641,#867);
#865=LINE('',#643,#868);
#866=LINE('',#635,#869);
#867=VECTOR('',#870,1.0);
#868=VECTOR('',#871,1.0);
#869=VECTOR('',#872,1.0);
#870=DIRECTION('',(1,0,0));
#871=DIRECTION('',(0,-0.9999999999999909,-1.3435885213863858E-07));
#872=DIRECTION('',(-0.8261238195099051,0.5634886288456582,7.570968536487868E-08));
#873=FACE_SURFACE('',(#878),#874,.T.);
#874=PLANE('',#875);
#875=AXIS2_PLACEMENT_3D('',#645,#876,#877);
#876=DIRECTION('',(-8.64727663039723E-15,1.3435883946097152E-07,-0.9999999999999909));
#877=DIRECTION('',(0,0.9999999999999909,1.3435883946097152E-07));
#878=FACE_BOUND('',#879,.T.);
#879=EDGE_LOOP('',(#880,#881,#882));
#880=ORIENTED_EDGE('',*,*,#883,.T.);
#881=ORIENTED_EDGE('',*,*,#884,.T.);
#882=ORIENTED_EDGE('',*,*,#885,.T.);
#883=EDGE_CURVE('',#646,#642,#886,.F.);
#884=EDGE_CURVE('',#642,#636,#887,.T.);
#885=EDGE_CURVE('',#636,#646,#888,.T.);
#886=LINE('',#645,#889);
#887=LINE('',#641,#890);
#888=LINE('',#635,#891);
#889=VECTOR('',#892,1.0);
#890=VECTOR('',#893,1.0);
#891=VECTOR('',#894,1.0);
#892=DIRECTION('',(0,0.9999999999999909,1.3435883946097152E-07));
#893=DIRECTION('',(0.8261238195099051,-0.5634886288456582,-7.570968536487868E-08));
#894=DIRECTION('',(-0.15743808253897026,-0.9875288604220308,-1.3268323025911035E-07));
#895=FACE_SURFACE('',(#900),#896,.T.);
#896=PLANE('',#897);
#897=AXIS2_PLACEMENT_3D('',#621,#898,#899);
#898=DIRECTION('',(-2.1422960381357845E-15,1.3435883772579234E-07,-0.9999999999999911));
#899=DIRECTION('',(0.1177251735273458,0.9930462141904265,1.3342453489442295E-07));
#900=FACE_BOUND('',#901,.T.);
#901=EDGE_LOOP('',(#902,#903,#904));
#902=ORIENTED_EDGE('',*,*,#905,.T.);
#903=ORIENTED_EDGE('',*,*,#906,.T.);
#904=ORIENTED_EDGE('',*,*,#907,.T.);
#905=EDGE_CURVE('',#622,#628,#908,.F.);
#906=EDGE_CURVE('',#628,#634,#909,.T.);
#907=EDGE_CURVE('',#634,#622,#910,.T.);
#908=LINE('',#621,#911);
#909=LINE('',#627,#912);
#910=LINE('',#633,#913);
#911=VECTOR('',#914,1.0);
#912=VECTOR('',#915,1.0);
#913=VECTOR('',#916,1.0);
#914=DIRECTION('',(0.1177251735273458,0.9930462141904265,1.3342453489442295E-07));
#915=DIRECTION('',(0.16418682597133646,-0.9864292606048548,-1.32535489305319E-07));
#916=DIRECTION('',(-0.37228450340803404,-0.9281186607984013,-1.2470094373894962E-07));
#917=FACE_SURFACE('',(#922),#918,.T.);
#918=PLANE('',#919);
#919=AXIS2_PLACEMENT_3D('',#645,#920,#921);
#920=DIRECTION('',(2.1963922151164396E-15,1.343588377322054E-07,-0.999999999999991));
#921=DIRECTION('',(0.15743808253897026,0.9875288604220308,1.3268323025911035E-07));
#922=FACE_BOUND('',#923,.T.);
#923=EDGE_LOOP('',(#924,#925,#926));
#924=ORIENTED_EDGE('',*,*,#927,.T.);
#925=ORIENTED_EDGE('',*,*,#928,.T.);
#926=ORIENTED_EDGE('',*,*,#929,.T.);
#927=EDGE_CURVE('',#646,#636,#930,.F.);
#928=EDGE_CURVE('',#636,#640,#931,.T.);
#929=EDGE_CURVE('',#640,#646,#932,.T.);
#930=LINE('',#645,#933);
#931=LINE('',#635,#934);
#932=LINE('',#639,#935);
#933=VECTOR('',#936,1.0);
#934=VECTOR('',#937,1.0);
#935=VECTOR('',#938,1.0);
#936=DIRECTION('',(0.15743808253897026,0.9875288604220308,1.3268323025911035E-07));
#937=DIRECTION('',(0.1177251735273458,-0.9930462141904265,-1.3342453489442295E-07));
#938=DIRECTION('',(-0.36670043473199987,0.9303390732240298,1.2499927576982096E-07));
#939=FACE_SURFACE('',(#944),#940,.T.);
#940=PLANE('',#941);
#941=AXIS2_PLACEMENT_3D('',#621,#942,#943);
#942=DIRECTION('',(0,1.343588368664802E-07,-0.9999999999999909));
#943=DIRECTION('',(0.37228450340803404,0.9281186607984013,1.2470094373894962E-07));
#944=FACE_BOUND('',#945,.T.);
#945=EDGE_LOOP('',(#946,#947,#948));
#946=ORIENTED_EDGE('',*,*,#949,.T.);
#947=ORIENTED_EDGE('',*,*,#950,.T.);
#948=ORIENTED_EDGE('',*,*,#951,.T.);
#949=EDGE_CURVE('',#622,#634,#952,.F.);
#950=EDGE_CURVE('',#634,#646,#953,.T.);
#951=EDGE_CURVE('',#646,#622,#954,.T.);
#952=LINE('',#621,#955);
#953=LINE('',#633,#956);
#954=LINE('',#645,#957);
#955=VECTOR('',#958,1.0);
#956=VECTOR('',#959,1.0);
#957=VECTOR('',#960,1.0);
#958=DIRECTION('',(0.37228450340803404,0.9281186607984013,1.2470094373894962E-07));
#959=DIRECTION('',(1,0,0));
#960=DIRECTION('',(-0.9997730560822897,-0.02130343474368916,-2.8623047134230645E-09));
#961=FACE_SURFACE('',(#966),#962,.T.);
#962=PLANE('',#963);
#963=AXIS2_PLACEMENT_3D('',#645,#964,#965);
#964=DIRECTION('',(0,1.3435883686648022E-07,-0.999999999999991));
#965=DIRECTION('',(0.36670043473199987,-0.9303390732240298,-1.2499927576982096E-07));
#966=FACE_BOUND('',#967,.T.);
#967=EDGE_LOOP('',(#968,#969,#970));
#968=ORIENTED_EDGE('',*,*,#971,.T.);
#969=ORIENTED_EDGE('',*,*,#972,.T.);
#970=ORIENTED_EDGE('',*,*,#973,.T.);
#971=EDGE_CURVE('',#646,#640,#974,.F.);
#972=EDGE_CURVE('',#640,#622,#975,.T.);
#973=EDGE_CURVE('',#622,#646,#976,.T.);
#974=LINE('',#645,#977);
#975=LINE('',#639,#978);
#976=LINE('',#621,#979);
#977=VECTOR('',#980,1.0);
#978=VECTOR('',#981,1.0);
#979=VECTOR('',#982,1.0);
#980=DIRECTION('',(0.36670043473199987,-0.9303390732240298,-1.2499927576982096E-07));
#981=DIRECTION('',(-1,0,0));
#982=DIRECTION('',(0.9997730560822897,0.02130343474368916,2.8623047134230645E-09));
#983=FACE_SURFACE('',(#988),#984,.T.);
#984=PLANE('',#985);
#985=AXIS2_PLACEMENT_3D('',#647,#986,#987);
#986=DIRECTION('',(-1,-0,0));
#987=DIRECTION('',(0,-0.999999999999991,-1.3435883747182412E-07));
#988=FACE_BOUND('',#989,.T.);
#989=EDGE_LOOP('',(#990,#991,#992));
#990=ORIENTED_EDGE('',*,*,#993,.T.);
#991=ORIENTED_EDGE('',*,*,#994,.T.);
#992=ORIENTED_EDGE('',*,*,#995,.T.);
#993=EDGE_CURVE('',#648,#650,#996,.F.);
#994=EDGE_CURVE('',#650,#640,#997,.T.);
#995=EDGE_CURVE('',#640,#648,#998,.T.);
#996=LINE('',#647,#999);
#997=LINE('',#649,#1000);
#998=LINE('',#639,#1001);
#999=VECTOR('',#1002,1.0);
#1000=VECTOR('',#1003,1.0);
#1001=VECTOR('',#1004,1.0);
#1002=DIRECTION('',(0,-0.999999999999991,-1.3435883747182412E-07));
#1003=DIRECTION('',(0,-1.3435883825507949E-07,0.9999999999999909));
#1004=DIRECTION('',(0,0.7201121639581356,-0.693857673676332));
#1005=FACE_SURFACE('',(#1010),#1006,.T.);
#1006=PLANE('',#1007);
#1007=AXIS2_PLACEMENT_3D('',#639,#1008,#1009);
#1008=DIRECTION('',(-1,0,0));
#1009=DIRECTION('',(0,0.999999999999991,1.3435883747182412E-07));
#1010=FACE_BOUND('',#1011,.T.);
#1011=EDGE_LOOP('',(#1012,#1013,#1014));
#1012=ORIENTED_EDGE('',*,*,#1015,.T.);
#1013=ORIENTED_EDGE('',*,*,#1016,.T.);
#1014=ORIENTED_EDGE('',*,*,#1017,.T.);
#1015=EDGE_CURVE('',#640,#638,#1018,.F.);
#1016=EDGE_CURVE('',#638,#652,#1019,.T.);
#1017=EDGE_CURVE('',#652,#640,#1020,.T.);
#1018=LINE('',#639,#1021);
#1019=LINE('',#637,#1022);
#1020=LINE('',#651,#1023);
#1021=VECTOR('',#1024,1.0);
#1022=VECTOR('',#1025,1.0);
#1023=VECTOR('',#1026,1.0);
#1024=DIRECTION('',(0,0.999999999999991,1.3435883747182412E-07));
#1025=DIRECTION('',(0,1.3435883828963427E-07,-0.999999999999991));
#1026=DIRECTION('',(0,-0.9452814046206586,0.32625613569463296));
#1027=FACE_SURFACE('',(#1032),#1028,.T.);
#1028=PLANE('',#1029);
#1029=AXIS2_PLACEMENT_3D('',#639,#1030,#1031);
#1030=DIRECTION('',(-1,0,0));
#1031=DIRECTION('',(0,0.9452814046206586,-0.32625613569463296));
#1032=FACE_BOUND('',#1033,.T.);
#1033=EDGE_LOOP('',(#1034,#1035,#1036));
#1034=ORIENTED_EDGE('',*,*,#1037,.T.);
#1035=ORIENTED_EDGE('',*,*,#1038,.T.);
#1036=ORIENTED_EDGE('',*,*,#1039,.T.);
#1037=EDGE_CURVE('',#640,#652,#1040,.F.);
#1038=EDGE_CURVE('',#652,#648,#1041,.T.);
#1039=EDGE_CURVE('',#648,#640,#1042,.T.);
#1040=LINE('',#639,#1043);
#1041=LINE('',#651,#1044);
#1042=LINE('',#647,#1045);
#1043=VECTOR('',#1046,1.0);
#1044=VECTOR('',#1047,1.0);
#1045=VECTOR('',#1048,1.0);
#1046=DIRECTION('',(0,0.9452814046206586,-0.32625613569463296));
#1047=DIRECTION('',(0,1.3435883823579374E-07,-0.999999999999991));
#1048=DIRECTION('',(0,-0.7201121639581356,0.693857673676332));
#1049=FACE_SURFACE('',(#1054),#1050,.T.);
#1050=PLANE('',#1051);
#1051=AXIS2_PLACEMENT_3D('',#653,#1052,#1053);
#1052=DIRECTION('',(0,-1.3435883747182415E-07,0.999999999999991));
#1053=DIRECTION('',(1,0,0));
#1054=FACE_BOUND('',#1055,.T.);
#1055=EDGE_LOOP('',(#1056,#1057,#1058));
#1056=ORIENTED_EDGE('',*,*,#1059,.T.);
#1057=ORIENTED_EDGE('',*,*,#1060,.T.);
#1058=ORIENTED_EDGE('',*,*,#1061,.T.);
#1059=EDGE_CURVE('',#654,#650,#1062,.F.);
#1060=EDGE_CURVE('',#650,#648,#1063,.T.);
#1061=EDGE_CURVE('',#648,#654,#1064,.T.);
#1062=LINE('',#653,#1065);
#1063=LINE('',#649,#1066);
#1064=LINE('',#647,#1067);
#1065=VECTOR('',#1068,1.0);
#1066=VECTOR('',#1069,1.0);
#1067=VECTOR('',#1070,1.0);
#1068=DIRECTION('',(1,0,0));
#1069=DIRECTION('',(0,0.999999999999991,1.3435883747182412E-07));
#1070=DIRECTION('',(-0.999115742898703,-0.042044408569665334,-5.649037857610685E-09));
#1071=FACE_SURFACE('',(#1076),#1072,.T.);
#1072=PLANE('',#1073);
#1073=AXIS2_PLACEMENT_3D('',#653,#1074,#1075);
#1074=DIRECTION('',(0,-1.3435883747182415E-07,0.999999999999991));
#1075=DIRECTION('',(0.999115742898703,0.042044408569665334,5.649037857610685E-09));
#1076=FACE_BOUND('',#1077,.T.);
#1077=EDGE_LOOP('',(#1078,#1079,#1080));
#1078=ORIENTED_EDGE('',*,*,#1081,.T.);
#1079=ORIENTED_EDGE('',*,*,#1082,.T.);
#1080=ORIENTED_EDGE('',*,*,#1083,.T.);
#1081=EDGE_CURVE('',#654,#648,#1084,.F.);
#1082=EDGE_CURVE('',#648,#656,#1085,.T.);
#1083=EDGE_CURVE('',#656,#654,#1086,.T.);
#1084=LINE('',#653,#1087);
#1085=LINE('',#647,#1088);
#1086=LINE('',#655,#1089);
#1087=VECTOR('',#1090,1.0);
#1088=VECTOR('',#1091,1.0);
#1089=VECTOR('',#1092,1.0);
#1090=DIRECTION('',(0.999115742898703,0.042044408569665334,5.649037857610685E-09));
#1091=DIRECTION('',(-1,0,0));
#1092=DIRECTION('',(0,-0.999999999999991,-1.3435883747182412E-07));
#1093=FACE_SURFACE('',(#1098),#1094,.T.);
#1094=PLANE('',#1095);
#1095=AXIS2_PLACEMENT_3D('',#657,#1096,#1097);
#1096=DIRECTION('',(1,0,0));
#1097=DIRECTION('',(0,-0.9999999999999909,-1.3435883762271486E-07));
#1098=FACE_BOUND('',#1099,.T.);
#1099=EDGE_LOOP('',(#1100,#1101,#1102));
#1100=ORIENTED_EDGE('',*,*,#1103,.T.);
#1101=ORIENTED_EDGE('',*,*,#1104,.T.);
#1102=ORIENTED_EDGE('',*,*,#1105,.T.);
#1103=EDGE_CURVE('',#658,#660,#1106,.F.);
#1104=EDGE_CURVE('',#660,#662,#1107,.T.);
#1105=EDGE_CURVE('',#662,#658,#1108,.T.);
#1106=LINE('',#657,#1109);
#1107=LINE('',#659,#1110);
#1108=LINE('',#661,#1111);
#1109=VECTOR('',#1112,1.0);
#1110=VECTOR('',#1113,1.0);
#1111=VECTOR('',#1114,1.0);
#1112=DIRECTION('',(0,-0.9999999999999909,-1.3435883762271486E-07));
#1113=DIRECTION('',(0,1.3435883836849204E-07,-0.9999999999999909));
#1114=DIRECTION('',(0,0.0969531093862725,0.9952889502955076));
#1115=FACE_SURFACE('',(#1120),#1116,.T.);
#1116=PLANE('',#1117);
#1117=AXIS2_PLACEMENT_3D('',#657,#1118,#1119);
#1118=DIRECTION('',(1,0,0));
#1119=DIRECTION('',(0,-0.0969531093862725,-0.9952889502955076));
#1120=FACE_BOUND('',#1121,.T.);
#1121=EDGE_LOOP('',(#1122,#1123,#1124));
#1122=ORIENTED_EDGE('',*,*,#1125,.T.);
#1123=ORIENTED_EDGE('',*,*,#1126,.T.);
#1124=ORIENTED_EDGE('',*,*,#1127,.T.);
#1125=EDGE_CURVE('',#658,#662,#1128,.F.);
#1126=EDGE_CURVE('',#662,#664,#1129,.T.);
#1127=EDGE_CURVE('',#664,#658,#1130,.T.);
#1128=LINE('',#657,#1131);
#1129=LINE('',#661,#1132);
#1130=LINE('',#663,#1133);
#1131=VECTOR('',#1134,1.0);
#1132=VECTOR('',#1135,1.0);
#1133=VECTOR('',#1136,1.0);
#1134=DIRECTION('',(0,-0.0969531093862725,-0.9952889502955076));
#1135=DIRECTION('',(0,0.9999999999999909,1.3435883946097152E-07));
#1136=DIRECTION('',(0,-1.343588383684921E-07,0.999999999999991));
#1137=FACE_SURFACE('',(#1142),#1138,.T.);
#1138=PLANE('',#1139);
#1139=AXIS2_PLACEMENT_3D('',#665,#1140,#1141);
#1140=DIRECTION('',(0,1.343588376227149E-07,-0.999999999999991));
#1141=DIRECTION('',(0,-0.9999999999999909,-1.3435883762271486E-07));
#1142=FACE_BOUND('',#1143,.T.);
#1143=EDGE_LOOP('',(#1144,#1145,#1146));
#1144=ORIENTED_EDGE('',*,*,#1147,.T.);
#1145=ORIENTED_EDGE('',*,*,#1148,.T.);
#1146=ORIENTED_EDGE('',*,*,#1149,.T.);
#1147=EDGE_CURVE('',#666,#668,#1150,.F.);
#1148=EDGE_CURVE('',#668,#660,#1151,.T.);
#1149=EDGE_CURVE('',#660,#666,#1152,.T.);
#1150=LINE('',#665,#1153);
#1151=LINE('',#667,#1154);
#1152=LINE('',#659,#1155);
#1153=VECTOR('',#1156,1.0);
#1154=VECTOR('',#1157,1.0);
#1155=VECTOR('',#1158,1.0);
#1156=DIRECTION('',(0,-0.9999999999999909,-1.3435883762271486E-07));
#1157=DIRECTION('',(-1,0,0));
#1158=DIRECTION('',(0.9997210204116111,0.023619512001035393,3.1734901776749086E-09));
#1159=FACE_SURFACE('',(#1164),#1160,.T.);
#1160=PLANE('',#1161);
#1161=AXIS2_PLACEMENT_3D('',#665,#1162,#1163);
#1162=DIRECTION('',(0,1.343588376227149E-07,-0.999999999999991));
#1163=DIRECTION('',(-0.9997210204116111,-0.023619512001035393,-3.1734901776749086E-09));
#1164=FACE_BOUND('',#1165,.T.);
#1165=EDGE_LOOP('',(#1166,#1167,#1168));
#1166=ORIENTED_EDGE('',*,*,#1169,.T.);
#1167=ORIENTED_EDGE('',*,*,#1170,.T.);
#1168=ORIENTED_EDGE('',*,*,#1171,.T.);
#1169=EDGE_CURVE('',#666,#660,#1172,.F.);
#1170=EDGE_CURVE('',#660,#658,#1173,.T.);
#1171=EDGE_CURVE('',#658,#666,#1174,.T.);
#1172=LINE('',#665,#1175);
#1173=LINE('',#659,#1176);
#1174=LINE('',#657,#1177);
#1175=VECTOR('',#1178,1.0);
#1176=VECTOR('',#1179,1.0);
#1177=VECTOR('',#1180,1.0);
#1178=DIRECTION('',(-0.9997210204116111,-0.023619512001035393,-3.1734901776749086E-09));
#1179=DIRECTION('',(0,0.9999999999999909,1.3435883762271486E-07));
#1180=DIRECTION('',(1,0,0));
#1181=FACE_SURFACE('',(#1186),#1182,.T.);
#1182=PLANE('',#1183);
#1183=AXIS2_PLACEMENT_3D('',#669,#1184,#1185);
#1184=DIRECTION('',(-1,0,0));
#1185=DIRECTION('',(0,-1.3435883836849204E-07,0.9999999999999909));
#1186=FACE_BOUND('',#1187,.T.);
#1187=EDGE_LOOP('',(#1188,#1189,#1190));
#1188=ORIENTED_EDGE('',*,*,#1191,.T.);
#1189=ORIENTED_EDGE('',*,*,#1192,.T.);
#1190=ORIENTED_EDGE('',*,*,#1193,.T.);
#1191=EDGE_CURVE('',#670,#668,#1194,.F.);
#1192=EDGE_CURVE('',#668,#666,#1195,.T.);
#1193=EDGE_CURVE('',#666,#670,#1196,.T.);
#1194=LINE('',#669,#1197);
#1195=LINE('',#667,#1198);
#1196=LINE('',#665,#1199);
#1197=VECTOR('',#1200,1.0);
#1198=VECTOR('',#1201,1.0);
#1199=VECTOR('',#1202,1.0);
#1200=DIRECTION('',(0,-1.3435883836849204E-07,0.9999999999999909));
#1201=DIRECTION('',(0,0.9999999999999909,1.3435883762271486E-07));
#1202=DIRECTION('',(0,-0.0969531093862725,-0.9952889502955076));
#1203=FACE_SURFACE('',(#1208),#1204,.T.);
#1204=PLANE('',#1205);
#1205=AXIS2_PLACEMENT_3D('',#669,#1206,#1207);
#1206=DIRECTION('',(-1,0,0));
#1207=DIRECTION('',(0,0.0969531093862725,0.9952889502955076));
#1208=FACE_BOUND('',#1209,.T.);
#1209=EDGE_LOOP('',(#1210,#1211,#1212));
#1210=ORIENTED_EDGE('',*,*,#1213,.T.);
#1211=ORIENTED_EDGE('',*,*,#1214,.T.);
#1212=ORIENTED_EDGE('',*,*,#1215,.T.);
#1213=EDGE_CURVE('',#670,#666,#1216,.F.);
#1214=EDGE_CURVE('',#666,#672,#1217,.T.);
#1215=EDGE_CURVE('',#672,#670,#1218,.T.);
#1216=LINE('',#669,#1219);
#1217=LINE('',#665,#1220);
#1218=LINE('',#671,#1221);
#1219=VECTOR('',#1222,1.0);
#1220=VECTOR('',#1223,1.0);
#1221=VECTOR('',#1224,1.0);
#1222=DIRECTION('',(0,0.0969531093862725,0.9952889502955076));
#1223=DIRECTION('',(0,1.343588383684921E-07,-0.999999999999991));
#1224=DIRECTION('',(0,-0.9999999999999909,-1.3435883946097152E-07));
#1225=FACE_SURFACE('',(#1230),#1226,.T.);
#1226=PLANE('',#1227);
#1227=AXIS2_PLACEMENT_3D('',#673,#1228,#1229);
#1228=DIRECTION('',(0,0.9999999999999909,1.3435883836849204E-07));
#1229=DIRECTION('',(0,-1.3435883836849204E-07,0.9999999999999909));
#1230=FACE_BOUND('',#1231,.T.);
#1231=EDGE_LOOP('',(#1232,#1233,#1234));
#1232=ORIENTED_EDGE('',*,*,#1235,.T.);
#1233=ORIENTED_EDGE('',*,*,#1236,.T.);
#1234=ORIENTED_EDGE('',*,*,#1237,.T.);
#1235=EDGE_CURVE('',#674,#676,#1238,.F.);
#1236=EDGE_CURVE('',#676,#668,#1239,.T.);
#1237=EDGE_CURVE('',#668,#674,#1240,.T.);
#1238=LINE('',#673,#1241);
#1239=LINE('',#675,#1242);
#1240=LINE('',#667,#1243);
#1241=VECTOR('',#1244,1.0);
#1242=VECTOR('',#1245,1.0);
#1243=VECTOR('',#1246,1.0);
#1244=DIRECTION('',(0,-1.3435883836849204E-07,0.9999999999999909));
#1245=DIRECTION('',(1,0,0));
#1246=DIRECTION('',(-0.9718248939567689,3.1668915601730756E-08,-0.2357039997240481));
#1247=FACE_SURFACE('',(#1252),#1248,.T.);
#1248=PLANE('',#1249);
#1249=AXIS2_PLACEMENT_3D('',#673,#1250,#1251);
#1250=DIRECTION('',(-0,0.9999999999999909,1.3435883836849204E-07));
#1251=DIRECTION('',(0.9718248939567689,-3.1668915601730756E-08,0.2357039997240481));
#1252=FACE_BOUND('',#1253,.T.);
#1253=EDGE_LOOP('',(#1254,#1255,#1256));
#1254=ORIENTED_EDGE('',*,*,#1257,.T.);
#1255=ORIENTED_EDGE('',*,*,#1258,.T.);
#1256=ORIENTED_EDGE('',*,*,#1259,.T.);
#1257=EDGE_CURVE('',#674,#668,#1260,.F.);
#1258=EDGE_CURVE('',#668,#670,#1261,.T.);
#1259=EDGE_CURVE('',#670,#674,#1262,.T.);
#1260=LINE('',#673,#1263);
#1261=LINE('',#667,#1264);
#1262=LINE('',#669,#1265);
#1263=VECTOR('',#1266,1.0);
#1264=VECTOR('',#1267,1.0);
#1265=VECTOR('',#1268,1.0);
#1266=DIRECTION('',(0.9718248939567689,-3.1668915601730756E-08,0.2357039997240481));
#1267=DIRECTION('',(0,1.3435883836849204E-07,-0.9999999999999909));
#1268=DIRECTION('',(-1,0,0));
#1269=FACE_SURFACE('',(#1274),#1270,.T.);
#1270=PLANE('',#1271);
#1271=AXIS2_PLACEMENT_3D('',#677,#1272,#1273);
#1272=DIRECTION('',(1.05137842824541E-16,0.999999999999991,1.343588383705522E-07));
#1273=DIRECTION('',(0,-1.3435883837055218E-07,0.999999999999991));
#1274=FACE_BOUND('',#1275,.T.);
#1275=EDGE_LOOP('',(#1276,#1277,#1278));
#1276=ORIENTED_EDGE('',*,*,#1279,.T.);
#1277=ORIENTED_EDGE('',*,*,#1280,.T.);
#1278=ORIENTED_EDGE('',*,*,#1281,.T.);
#1279=EDGE_CURVE('',#678,#680,#1282,.F.);
#1280=EDGE_CURVE('',#680,#682,#1283,.T.);
#1281=EDGE_CURVE('',#682,#678,#1284,.T.);
#1282=LINE('',#677,#1285);
#1283=LINE('',#679,#1286);
#1284=LINE('',#681,#1287);
#1285=VECTOR('',#1288,1.0);
#1286=VECTOR('',#1289,1.0);
#1287=VECTOR('',#1290,1.0);
#1288=DIRECTION('',(0,-1.3435883837055218E-07,0.999999999999991));
#1289=DIRECTION('',(0.8410359387957497,-7.268534379082861E-08,0.5409792506685877));
#1290=DIRECTION('',(-0.1024548105192806,1.3365179646339337E-07,-0.9947376597884693));
#1291=FACE_SURFACE('',(#1296),#1292,.T.);
#1292=PLANE('',#1293);
#1293=AXIS2_PLACEMENT_3D('',#681,#1294,#1295);
#1294=DIRECTION('',(1.54246147894093E-16,0.999999999999991,1.3435883836500867E-07));
#1295=DIRECTION('',(0,1.3435883836500867E-07,-0.9999999999999909));
#1296=FACE_BOUND('',#1297,.T.);
#1297=EDGE_LOOP('',(#1298,#1299,#1300));
#1298=ORIENTED_EDGE('',*,*,#1301,.T.);
#1299=ORIENTED_EDGE('',*,*,#1302,.T.);
#1300=ORIENTED_EDGE('',*,*,#1303,.T.);
#1301=EDGE_CURVE('',#682,#684,#1304,.F.);
#1302=EDGE_CURVE('',#684,#686,#1305,.T.);
#1303=EDGE_CURVE('',#686,#682,#1306,.T.);
#1304=LINE('',#681,#1307);
#1305=LINE('',#683,#1308);
#1306=LINE('',#685,#1309);
#1307=VECTOR('',#1310,1.0);
#1308=VECTOR('',#1311,1.0);
#1309=VECTOR('',#1312,1.0);
#1310=DIRECTION('',(0,1.3435883836500867E-07,-0.9999999999999909));
#1311=DIRECTION('',(-0.8410359100804917,-7.268534956776716E-08,0.5409792953108962));
#1312=DIRECTION('',(0.09311547253530049,-1.3377509171749882E-07,0.995655316248806));
#1313=FACE_SURFACE('',(#1318),#1314,.T.);
#1314=PLANE('',#1315);
#1315=AXIS2_PLACEMENT_3D('',#687,#1316,#1317);
#1316=DIRECTION('',(0,0.9999999999999909,1.3435883838138104E-07));
#1317=DIRECTION('',(-1,0,0));
#1318=FACE_BOUND('',#1319,.T.);
#1319=EDGE_LOOP('',(#1320,#1321,#1322));
#1320=ORIENTED_EDGE('',*,*,#1323,.T.);
#1321=ORIENTED_EDGE('',*,*,#1324,.T.);
#1322=ORIENTED_EDGE('',*,*,#1325,.T.);
#1323=EDGE_CURVE('',#688,#678,#1326,.F.);
#1324=EDGE_CURVE('',#678,#682,#1327,.T.);
#1325=EDGE_CURVE('',#682,#688,#1328,.T.);
#1326=LINE('',#687,#1329);
#1327=LINE('',#677,#1330);
#1328=LINE('',#681,#1331);
#1329=VECTOR('',#1332,1.0);
#1330=VECTOR('',#1333,1.0);
#1331=VECTOR('',#1334,1.0);
#1332=DIRECTION('',(-1,0,0));
#1333=DIRECTION('',(0.1024548105192806,-1.3365179646339337E-07,0.9947376597884693));
#1334=DIRECTION('',(-0.09511631517035905,1.3374967764003552E-07,-0.9954661654664085));
#1335=FACE_SURFACE('',(#1340),#1336,.T.);
#1336=PLANE('',#1337);
#1337=AXIS2_PLACEMENT_3D('',#681,#1338,#1339);
#1338=DIRECTION('',(9.602037188133927E-16,0.999999999999991,1.3435883828963472E-07));
#1339=DIRECTION('',(-0.09311547253530049,1.3377509171749882E-07,-0.995655316248806));
#1340=FACE_BOUND('',#1341,.T.);
#1341=EDGE_LOOP('',(#1342,#1343,#1344));
#1342=ORIENTED_EDGE('',*,*,#1345,.T.);
#1343=ORIENTED_EDGE('',*,*,#1346,.T.);
#1344=ORIENTED_EDGE('',*,*,#1347,.T.);
#1345=EDGE_CURVE('',#682,#686,#1348,.F.);
#1346=EDGE_CURVE('',#686,#688,#1349,.T.);
#1347=EDGE_CURVE('',#688,#682,#1350,.T.);
#1348=LINE('',#681,#1351);
#1349=LINE('',#685,#1352);
#1350=LINE('',#687,#1353);
#1351=VECTOR('',#1354,1.0);
#1352=VECTOR('',#1355,1.0);
#1353=VECTOR('',#1356,1.0);
#1354=DIRECTION('',(-0.09311547253530049,1.3377509171749882E-07,-0.995655316248806));
#1355=DIRECTION('',(0,-1.3435883828963427E-07,0.999999999999991));
#1356=DIRECTION('',(0.09511631517035905,-1.3374967764003552E-07,0.9954661654664085));
#1357=FACE_SURFACE('',(#1362),#1358,.T.);
#1358=PLANE('',#1359);
#1359=AXIS2_PLACEMENT_3D('',#689,#1360,#1361);
#1360=DIRECTION('',(0,0.999999999999991,1.3435883837055218E-07));
#1361=DIRECTION('',(0,1.3435883837055218E-07,-0.999999999999991));
#1362=FACE_BOUND('',#1363,.T.);
#1363=EDGE_LOOP('',(#1364,#1365,#1366));
#1364=ORIENTED_EDGE('',*,*,#1367,.T.);
#1365=ORIENTED_EDGE('',*,*,#1368,.T.);
#1366=ORIENTED_EDGE('',*,*,#1369,.T.);
#1367=EDGE_CURVE('',#690,#692,#1370,.F.);
#1368=EDGE_CURVE('',#692,#694,#1371,.T.);
#1369=EDGE_CURVE('',#694,#690,#1372,.T.);
#1370=LINE('',#689,#1373);
#1371=LINE('',#691,#1374);
#1372=LINE('',#693,#1375);
#1373=VECTOR('',#1376,1.0);
#1374=VECTOR('',#1377,1.0);
#1375=VECTOR('',#1378,1.0);
#1376=DIRECTION('',(0,1.3435883837055218E-07,-0.999999999999991));
#1377=DIRECTION('',(-1,0,0));
#1378=DIRECTION('',(0.007975434409814115,-1.3435456518406415E-07,0.9999681957172221));
#1379=FACE_SURFACE('',(#1384),#1380,.T.);
#1380=PLANE('',#1381);
#1381=AXIS2_PLACEMENT_3D('',#681,#1382,#1383);
#1382=DIRECTION('',(NaN,NaN,NaN));
#1383=DIRECTION('',(NaN,NaN,NaN));
#1384=FACE_BOUND('',#1385,.T.);
#1385=EDGE_LOOP('',(#1386,#1387,#1388));
#1386=ORIENTED_EDGE('',*,*,#1389,.T.);
#1387=ORIENTED_EDGE('',*,*,#1390,.T.);
#1388=ORIENTED_EDGE('',*,*,#1391,.T.);
#1389=EDGE_CURVE('',#682,#682,#1392,.F.);
#1390=EDGE_CURVE('',#682,#680,#1393,.T.);
#1391=EDGE_CURVE('',#680,#682,#1394,.T.);
#1392=LINE('',#681,#1395);
#1393=LINE('',#681,#1396);
#1394=LINE('',#679,#1397);
#1395=VECTOR('',#1398,1.0);
#1396=VECTOR('',#1399,1.0);
#1397=VECTOR('',#1400,1.0);
#1398=DIRECTION('',(NaN,NaN,NaN));
#1399=DIRECTION('',(-0.8410359387957497,7.268534379082861E-08,-0.5409792506685877));
#1400=DIRECTION('',(0.8410359387957497,-7.268534379082861E-08,0.5409792506685877));
#1401=FACE_SURFACE('',(#1406),#1402,.T.);
#1402=PLANE('',#1403);
#1403=AXIS2_PLACEMENT_3D('',#681,#1404,#1405);
#1404=DIRECTION('',(0,0.9999999999999909,1.343588385340053E-07));
#1405=DIRECTION('',(-0.8410359387957497,7.268534379082861E-08,-0.5409792506685877));
#1406=FACE_BOUND('',#1407,.T.);
#1407=EDGE_LOOP('',(#1408,#1409,#1410));
#1408=ORIENTED_EDGE('',*,*,#1411,.T.);
#1409=ORIENTED_EDGE('',*,*,#1412,.T.);
#1410=ORIENTED_EDGE('',*,*,#1413,.T.);
#1411=EDGE_CURVE('',#682,#680,#1414,.F.);
#1412=EDGE_CURVE('',#680,#690,#1415,.T.);
#1413=EDGE_CURVE('',#690,#682,#1416,.T.);
#1414=LINE('',#681,#1417);
#1415=LINE('',#679,#1418);
#1416=LINE('',#689,#1419);
#1417=VECTOR('',#1420,1.0);
#1418=VECTOR('',#1421,1.0);
#1419=VECTOR('',#1422,1.0);
#1420=DIRECTION('',(-0.8410359387957497,7.268534379082861E-08,-0.5409792506685877));
#1421=DIRECTION('',(-1,0,0));
#1422=DIRECTION('',(0.9991230808692911,-5.625560244394698E-09,0.04186967009967756));
#1423=FACE_SURFACE('',(#1428),#1424,.T.);
#1424=PLANE('',#1425);
#1425=AXIS2_PLACEMENT_3D('',#695,#1426,#1427);
#1426=DIRECTION('',(-0,0.999999999999991,1.3435883853400532E-07));
#1427=DIRECTION('',(1,0,0));
#1428=FACE_BOUND('',#1429,.T.);
#1429=EDGE_LOOP('',(#1430,#1431,#1432));
#1430=ORIENTED_EDGE('',*,*,#1433,.T.);
#1431=ORIENTED_EDGE('',*,*,#1434,.T.);
#1432=ORIENTED_EDGE('',*,*,#1435,.T.);
#1433=EDGE_CURVE('',#696,#682,#1436,.F.);
#1434=EDGE_CURVE('',#682,#690,#1437,.T.);
#1435=EDGE_CURVE('',#690,#696,#1438,.T.);
#1436=LINE('',#695,#1439);
#1437=LINE('',#681,#1440);
#1438=LINE('',#689,#1441);
#1439=VECTOR('',#1442,1.0);
#1440=VECTOR('',#1443,1.0);
#1441=VECTOR('',#1444,1.0);
#1442=DIRECTION('',(1,0,0));
#1443=DIRECTION('',(-0.9991230808692911,5.625560244394698E-09,-0.04186967009967756));
#1444=DIRECTION('',(-0.8410359387957497,-7.268534379082861E-08,0.5409792506685877));
#1445=FACE_SURFACE('',(#1450),#1446,.T.);
#1446=PLANE('',#1447);
#1447=AXIS2_PLACEMENT_3D('',#695,#1448,#1449);
#1448=DIRECTION('',(-1.0460126289363943E-16,0.9999999999999909,1.3435883837138645E-07));
#1449=DIRECTION('',(0.8410359387957497,7.268534379082861E-08,-0.5409792506685877));
#1450=FACE_BOUND('',#1451,.T.);
#1451=EDGE_LOOP('',(#1452,#1453,#1454));
#1452=ORIENTED_EDGE('',*,*,#1455,.T.);
#1453=ORIENTED_EDGE('',*,*,#1456,.T.);
#1454=ORIENTED_EDGE('',*,*,#1457,.T.);
#1455=EDGE_CURVE('',#696,#690,#1458,.F.);
#1456=EDGE_CURVE('',#690,#694,#1459,.T.);
#1457=EDGE_CURVE('',#694,#696,#1460,.T.);
#1458=LINE('',#695,#1461);
#1459=LINE('',#689,#1462);
#1460=LINE('',#693,#1463);
#1461=VECTOR('',#1464,1.0);
#1462=VECTOR('',#1465,1.0);
#1463=VECTOR('',#1466,1.0);
#1464=DIRECTION('',(0.8410359387957497,7.268534379082861E-08,-0.5409792506685877));
#1465=DIRECTION('',(-0.007975434409814115,1.3435456518406415E-07,-0.9999681957172221));
#1466=DIRECTION('',(-0.09511631517035905,-1.3374967764003552E-07,0.9954661654664085));
#1467=FACE_SURFACE('',(#1472),#1468,.T.);
#1468=PLANE('',#1469);
#1469=AXIS2_PLACEMENT_3D('',#695,#1470,#1471);
#1470=DIRECTION('',(-1.3218413673793316E-15,0.9999999999999909,1.3435883825507954E-07));
#1471=DIRECTION('',(0.09511631517035905,1.3374967764003552E-07,-0.9954661654664085));
#1472=FACE_BOUND('',#1473,.T.);
#1473=EDGE_LOOP('',(#1474,#1475,#1476));
#1474=ORIENTED_EDGE('',*,*,#1477,.T.);
#1475=ORIENTED_EDGE('',*,*,#1478,.T.);
#1476=ORIENTED_EDGE('',*,*,#1479,.T.);
#1477=EDGE_CURVE('',#696,#694,#1480,.F.);
#1478=EDGE_CURVE('',#694,#698,#1481,.T.);
#1479=EDGE_CURVE('',#698,#696,#1482,.T.);
#1480=LINE('',#695,#1483);
#1481=LINE('',#693,#1484);
#1482=LINE('',#697,#1485);
#1483=VECTOR('',#1486,1.0);
#1484=VECTOR('',#1487,1.0);
#1485=VECTOR('',#1488,1.0);
#1486=DIRECTION('',(0.09511631517035905,1.3374967764003552E-07,-0.9954661654664085));
#1487=DIRECTION('',(0,1.3435883825507949E-07,-0.9999999999999909));
#1488=DIRECTION('',(-0.08973257271110577,-1.3381682080635143E-07,0.9959658956985568));
#1489=FACE_SURFACE('',(#1494),#1490,.T.);
#1490=PLANE('',#1491);
#1491=AXIS2_PLACEMENT_3D('',#699,#1492,#1493);
#1492=DIRECTION('',(-1.0171070004453962E-16,0.999999999999991,1.3435883836500867E-07));
#1493=DIRECTION('',(0,-1.3435883836500867E-07,0.9999999999999909));
#1494=FACE_BOUND('',#1495,.T.);
#1495=EDGE_LOOP('',(#1496,#1497,#1498));
#1496=ORIENTED_EDGE('',*,*,#1499,.T.);
#1497=ORIENTED_EDGE('',*,*,#1500,.T.);
#1498=ORIENTED_EDGE('',*,*,#1501,.T.);
#1499=EDGE_CURVE('',#700,#696,#1502,.F.);
#1500=EDGE_CURVE('',#696,#698,#1503,.T.);
#1501=EDGE_CURVE('',#698,#700,#1504,.T.);
#1502=LINE('',#699,#1505);
#1503=LINE('',#695,#1506);
#1504=LINE('',#697,#1507);
#1505=VECTOR('',#1508,1.0);
#1506=VECTOR('',#1509,1.0);
#1507=VECTOR('',#1510,1.0);
#1508=DIRECTION('',(0,-1.3435883836500867E-07,0.9999999999999909));
#1509=DIRECTION('',(0.08973257271110577,1.3381682080635143E-07,-0.9959658956985568));
#1510=DIRECTION('',(-0.9731208582636175,3.094217097060665E-08,-0.23029501777563377));
#1511=FACE_SURFACE('',(#1516),#1512,.T.);
#1512=PLANE('',#1513);
#1513=AXIS2_PLACEMENT_3D('',#699,#1514,#1515);
#1514=DIRECTION('',(0,0.999999999999991,1.34358837935226E-07));
#1515=DIRECTION('',(0.9731208582636175,-3.094217097060665E-08,0.23029501777563377));
#1516=FACE_BOUND('',#1517,.T.);
#1517=EDGE_LOOP('',(#1518,#1519,#1520));
#1518=ORIENTED_EDGE('',*,*,#1521,.T.);
#1519=ORIENTED_EDGE('',*,*,#1522,.T.);
#1520=ORIENTED_EDGE('',*,*,#1523,.T.);
#1521=EDGE_CURVE('',#700,#698,#1524,.F.);
#1522=EDGE_CURVE('',#698,#702,#1525,.T.);
#1523=EDGE_CURVE('',#702,#700,#1526,.T.);
#1524=LINE('',#699,#1527);
#1525=LINE('',#697,#1528);
#1526=LINE('',#701,#1529);
#1527=VECTOR('',#1530,1.0);
#1528=VECTOR('',#1531,1.0);
#1529=VECTOR('',#1532,1.0);
#1530=DIRECTION('',(0.9731208582636175,-3.094217097060665E-08,0.23029501777563377));
#1531=DIRECTION('',(1,0,0));
#1532=DIRECTION('',(-0.9998986798429766,1.912573627255356E-09,-0.014234818167878058));
#1533=FACE_SURFACE('',(#1538),#1534,.T.);
#1534=PLANE('',#1535);
#1535=AXIS2_PLACEMENT_3D('',#685,#1536,#1537);
#1536=DIRECTION('',(NaN,NaN,NaN));
#1537=DIRECTION('',(0.8410359100804917,7.268534956776716E-08,-0.5409792953108962));
#1538=FACE_BOUND('',#1539,.T.);
#1539=EDGE_LOOP('',(#1540,#1541,#1542));
#1540=ORIENTED_EDGE('',*,*,#1543,.T.);
#1541=ORIENTED_EDGE('',*,*,#1544,.T.);
#1542=ORIENTED_EDGE('',*,*,#1545,.T.);
#1543=EDGE_CURVE('',#686,#684,#1546,.F.);
#1544=EDGE_CURVE('',#684,#684,#1547,.T.);
#1545=EDGE_CURVE('',#684,#686,#1548,.T.);
#1546=LINE('',#685,#1549);
#1547=LINE('',#683,#1550);
#1548=LINE('',#683,#1551);
#1549=VECTOR('',#1552,1.0);
#1550=VECTOR('',#1553,1.0);
#1551=VECTOR('',#1554,1.0);
#1552=DIRECTION('',(0.8410359100804917,7.268534956776716E-08,-0.5409792953108962));
#1553=DIRECTION('',(NaN,NaN,NaN));
#1554=DIRECTION('',(-0.8410359100804917,-7.268534956776716E-08,0.5409792953108962));
#1555=FACE_SURFACE('',(#1560),#1556,.T.);
#1556=PLANE('',#1557);
#1557=AXIS2_PLACEMENT_3D('',#683,#1558,#1559);
#1558=DIRECTION('',(0,0.999999999999991,1.3435883793522603E-07));
#1559=DIRECTION('',(-1,0,0));
#1560=FACE_BOUND('',#1561,.T.);
#1561=EDGE_LOOP('',(#1562,#1563,#1564));
#1562=ORIENTED_EDGE('',*,*,#1565,.T.);
#1563=ORIENTED_EDGE('',*,*,#1566,.T.);
#1564=ORIENTED_EDGE('',*,*,#1567,.T.);
#1565=EDGE_CURVE('',#684,#700,#1568,.F.);
#1566=EDGE_CURVE('',#700,#702,#1569,.T.);
#1567=EDGE_CURVE('',#702,#684,#1570,.T.);
#1568=LINE('',#683,#1571);
#1569=LINE('',#699,#1572);
#1570=LINE('',#701,#1573);
#1571=VECTOR('',#1574,1.0);
#1572=VECTOR('',#1575,1.0);
#1573=VECTOR('',#1576,1.0);
#1574=DIRECTION('',(-1,0,0));
#1575=DIRECTION('',(0.9998986798429766,-1.912573627255356E-09,0.014234818167878058));
#1576=DIRECTION('',(0.9731208582636175,3.094217097060665E-08,-0.23029501777563377));
#1577=FACE_SURFACE('',(#1582),#1578,.T.);
#1578=PLANE('',#1579);
#1579=AXIS2_PLACEMENT_3D('',#701,#1580,#1581);
#1580=DIRECTION('',(7.113119718244972E-17,0.9999999999999911,1.3435883823579376E-07));
#1581=DIRECTION('',(0,-1.3435883823579374E-07,0.999999999999991));
#1582=FACE_BOUND('',#1583,.T.);
#1583=EDGE_LOOP('',(#1584,#1585,#1586));
#1584=ORIENTED_EDGE('',*,*,#1587,.T.);
#1585=ORIENTED_EDGE('',*,*,#1588,.T.);
#1586=ORIENTED_EDGE('',*,*,#1589,.T.);
#1587=EDGE_CURVE('',#702,#686,#1590,.F.);
#1588=EDGE_CURVE('',#686,#684,#1591,.T.);
#1589=EDGE_CURVE('',#684,#702,#1592,.T.);
#1590=LINE('',#701,#1593);
#1591=LINE('',#685,#1594);
#1592=LINE('',#683,#1595);
#1593=VECTOR('',#1596,1.0);
#1594=VECTOR('',#1597,1.0);
#1595=VECTOR('',#1598,1.0);
#1596=DIRECTION('',(0,-1.3435883823579374E-07,0.999999999999991));
#1597=DIRECTION('',(0.8410359100804917,7.268534956776716E-08,-0.5409792953108962));
#1598=DIRECTION('',(-0.9731208582636175,-3.094217097060665E-08,0.23029501777563377));
#1599=FACE_SURFACE('',(#1604),#1600,.T.);
#1600=PLANE('',#1601);
#1601=AXIS2_PLACEMENT_3D('',#703,#1602,#1603);
#1602=DIRECTION('',(-1,-0,0));
#1603=DIRECTION('',(0,-0.9999999999999909,-1.3435885213863858E-07));
#1604=FACE_BOUND('',#1605,.T.);
#1605=EDGE_LOOP('',(#1606,#1607,#1608));
#1606=ORIENTED_EDGE('',*,*,#1609,.T.);
#1607=ORIENTED_EDGE('',*,*,#1610,.T.);
#1608=ORIENTED_EDGE('',*,*,#1611,.T.);
#1609=EDGE_CURVE('',#704,#706,#1612,.F.);
#1610=EDGE_CURVE('',#706,#708,#1613,.T.);
#1611=EDGE_CURVE('',#708,#704,#1614,.T.);
#1612=LINE('',#703,#1615);
#1613=LINE('',#705,#1616);
#1614=LINE('',#707,#1617);
#1615=VECTOR('',#1618,1.0);
#1616=VECTOR('',#1619,1.0);
#1617=VECTOR('',#1620,1.0);
#1618=DIRECTION('',(0,-0.9999999999999909,-1.3435885213863858E-07));
#1619=DIRECTION('',(0,-1.3435883837055218E-07,0.999999999999991));
#1620=DIRECTION('',(0,0.003642420369949628,-0.9999933663649218));
#1621=FACE_SURFACE('',(#1626),#1622,.T.);
#1622=PLANE('',#1623);
#1623=AXIS2_PLACEMENT_3D('',#703,#1624,#1625);
#1624=DIRECTION('',(-1,0,0));
#1625=DIRECTION('',(0,-0.003642420369949628,0.9999933663649218));
#1626=FACE_BOUND('',#1627,.T.);
#1627=EDGE_LOOP('',(#1628,#1629,#1630));
#1628=ORIENTED_EDGE('',*,*,#1631,.T.);
#1629=ORIENTED_EDGE('',*,*,#1632,.T.);
#1630=ORIENTED_EDGE('',*,*,#1633,.T.);
#1631=EDGE_CURVE('',#704,#708,#1634,.F.);
#1632=EDGE_CURVE('',#708,#710,#1635,.T.);
#1633=EDGE_CURVE('',#710,#704,#1636,.T.);
#1634=LINE('',#703,#1637);
#1635=LINE('',#707,#1638);
#1636=LINE('',#709,#1639);
#1637=VECTOR('',#1640,1.0);
#1638=VECTOR('',#1641,1.0);
#1639=VECTOR('',#1642,1.0);
#1640=DIRECTION('',(0,-0.003642420369949628,0.9999933663649218));
#1641=DIRECTION('',(0,0.9999999999999909,1.3435888962444866E-07));
#1642=DIRECTION('',(0,1.3435883837055218E-07,-0.999999999999991));
#1643=FACE_SURFACE('',(#1648),#1644,.T.);
#1644=PLANE('',#1645);
#1645=AXIS2_PLACEMENT_3D('',#709,#1646,#1647);
#1646=DIRECTION('',(0,-1.3435888962444866E-07,0.999999999999991));
#1647=DIRECTION('',(0,-0.9999999999999909,-1.3435888962444866E-07));
#1648=FACE_BOUND('',#1649,.T.);
#1649=EDGE_LOOP('',(#1650,#1651,#1652));
#1650=ORIENTED_EDGE('',*,*,#1653,.T.);
#1651=ORIENTED_EDGE('',*,*,#1654,.T.);
#1652=ORIENTED_EDGE('',*,*,#1655,.T.);
#1653=EDGE_CURVE('',#710,#708,#1656,.F.);
#1654=EDGE_CURVE('',#708,#712,#1657,.T.);
#1655=EDGE_CURVE('',#712,#710,#1658,.T.);
#1656=LINE('',#709,#1659);
#1657=LINE('',#707,#1660);
#1658=LINE('',#711,#1661);
#1659=VECTOR('',#1662,1.0);
#1660=VECTOR('',#1663,1.0);
#1661=VECTOR('',#1664,1.0);
#1662=DIRECTION('',(0,-0.9999999999999909,-1.3435888962444866E-07));
#1663=DIRECTION('',(1,0,0));
#1664=DIRECTION('',(-0.9999973522294717,0.0023012027389409445,3.091870448048481E-10));
#1665=FACE_SURFACE('',(#1670),#1666,.T.);
#1666=PLANE('',#1667);
#1667=AXIS2_PLACEMENT_3D('',#709,#1668,#1669);
#1668=DIRECTION('',(0,-1.3435888962444866E-07,0.999999999999991));
#1669=DIRECTION('',(0.9999973522294717,-0.0023012027389409445,-3.091870448048481E-10));
#1670=FACE_BOUND('',#1671,.T.);
#1671=EDGE_LOOP('',(#1672,#1673,#1674));
#1672=ORIENTED_EDGE('',*,*,#1675,.T.);
#1673=ORIENTED_EDGE('',*,*,#1676,.T.);
#1674=ORIENTED_EDGE('',*,*,#1677,.T.);
#1675=EDGE_CURVE('',#710,#712,#1678,.F.);
#1676=EDGE_CURVE('',#712,#714,#1679,.T.);
#1677=EDGE_CURVE('',#714,#710,#1680,.T.);
#1678=LINE('',#709,#1681);
#1679=LINE('',#711,#1682);
#1680=LINE('',#713,#1683);
#1681=VECTOR('',#1684,1.0);
#1682=VECTOR('',#1685,1.0);
#1683=VECTOR('',#1686,1.0);
#1684=DIRECTION('',(0.9999973522294717,-0.0023012027389409445,-3.091870448048481E-10));
#1685=DIRECTION('',(0,0.9999999999999909,1.3435888962444866E-07));
#1686=DIRECTION('',(-1,0,0));
#1687=FACE_SURFACE('',(#1692),#1688,.T.);
#1688=PLANE('',#1689);
#1689=AXIS2_PLACEMENT_3D('',#713,#1690,#1691);
#1690=DIRECTION('',(1,0,0));
#1691=DIRECTION('',(0,-0.9999999999999909,-1.3435888962444866E-07));
#1692=FACE_BOUND('',#1693,.T.);
#1693=EDGE_LOOP('',(#1694,#1695,#1696));
#1694=ORIENTED_EDGE('',*,*,#1697,.T.);
#1695=ORIENTED_EDGE('',*,*,#1698,.T.);
#1696=ORIENTED_EDGE('',*,*,#1699,.T.);
#1697=EDGE_CURVE('',#714,#712,#1700,.F.);
#1698=EDGE_CURVE('',#712,#716,#1701,.T.);
#1699=EDGE_CURVE('',#716,#714,#1702,.T.);
#1700=LINE('',#713,#1703);
#1701=LINE('',#711,#1704);
#1702=LINE('',#715,#1705);
#1703=VECTOR('',#1706,1.0);
#1704=VECTOR('',#1707,1.0);
#1705=VECTOR('',#1708,1.0);
#1706=DIRECTION('',(0,-0.9999999999999909,-1.3435888962444866E-07));
#1707=DIRECTION('',(0,1.3435883837055218E-07,-0.999999999999991));
#1708=DIRECTION('',(0,0.003642151654055329,0.9999933673436684));
#1709=FACE_SURFACE('',(#1714),#1710,.T.);
#1710=PLANE('',#1711);
#1711=AXIS2_PLACEMENT_3D('',#713,#1712,#1713);
#1712=DIRECTION('',(1,0,0));
#1713=DIRECTION('',(0,-0.003642151654055329,-0.9999933673436684));
#1714=FACE_BOUND('',#1715,.T.);
#1715=EDGE_LOOP('',(#1716,#1717,#1718));
#1716=ORIENTED_EDGE('',*,*,#1719,.T.);
#1717=ORIENTED_EDGE('',*,*,#1720,.T.);
#1718=ORIENTED_EDGE('',*,*,#1721,.T.);
#1719=EDGE_CURVE('',#714,#716,#1722,.F.);
#1720=EDGE_CURVE('',#716,#718,#1723,.T.);
#1721=EDGE_CURVE('',#718,#714,#1724,.T.);
#1722=LINE('',#713,#1725);
#1723=LINE('',#715,#1726);
#1724=LINE('',#717,#1727);
#1725=VECTOR('',#1728,1.0);
#1726=VECTOR('',#1729,1.0);
#1727=VECTOR('',#1730,1.0);
#1728=DIRECTION('',(0,-0.003642151654055329,-0.9999933673436684));
#1729=DIRECTION('',(0,0.9999999999999909,1.3435885213863858E-07));
#1730=DIRECTION('',(0,-1.3435883837055218E-07,0.999999999999991));
ENDSEC;
END-ISO-10303-21;
