ISO-10303-21;
HEADER;
FILE_DESCRIPTION((''),'2;1');
FILE_NAME('frame', '2026-10-07T13:42:41', (''), (''), 'ImageToStl.com STEP Converter','', '');
FILE_SCHEMA(('AUTOMOTIVE_DESIGN_CC2'));
ENDSEC;
DATA;
#1=PRODUCT_DEFINITION_CONTEXT('',#4,'design');
#2=APPLICATION_PROTOCOL_DEFINITION('INTERNATIONAL STANDARD','automotive_design',1994,#4);
#3=(GEOMETRIC_REPRESENTATION_CONTEXT(3)GLOBAL_UNCERTAINTY_ASSIGNED_CONTEXT((#5))GLOBAL_UNIT_ASSIGNED_CONTEXT((#6,#7,#8))REPRESENTATION_CONTEXT('NONE','WORKSPACE'));
#4=APPLICATION_CONTEXT(' ');
#5=UNCERTAINTY_MEASURE_WITH_UNIT(LENGTH_MEASURE(1.0E-006),#6,'','');
#6=(CONVERSION_BASED_UNIT('METRE',#10)LENGTH_UNIT()NAMED_UNIT(#11));
#7=(NAMED_UNIT(#12)PLANE_ANGLE_UNIT()SI_UNIT($,.RADIAN.));
#8=(NAMED_UNIT(#12)SOLID_ANGLE_UNIT()SI_UNIT($,.STERADIAN.));
#9=AXIS2_PLACEMENT_3D('',#14,#15,#16);
#10=LENGTH_MEASURE_WITH_UNIT(LENGTH_MEASURE(1.0),#17);
#11=DIMENSIONAL_EXPONENTS(1.0,0.0,0.0,0.0,0.0,0.0,0.0);
#12=DIMENSIONAL_EXPONENTS(0.0,0.0,0.0,0.0,0.0,0.0,0.0);
#13=PRODUCT_CONTEXT('',#4,'mechanical');
#14=CARTESIAN_POINT('',(0.0,0.0,0.0));
#15=DIRECTION('',(0.0,0.0,1.0));
#16=DIRECTION('',(1.0,0.0,0.0));
#17=(NAMED_UNIT(#11)LENGTH_UNIT()SI_UNIT(.MILLI.,.METRE.));
#18=PRESENTATION_STYLE_ASSIGNMENT((#19));
#19=SURFACE_STYLE_USAGE(.BOTH.,#20);
#20=SURFACE_SIDE_STYLE('',(#21));
#21=SURFACE_STYLE_FILL_AREA(#22);
#22=FILL_AREA_STYLE('',(#23));
#23=FILL_AREA_STYLE_COLOUR('',#24);
#24=COLOUR_RGB('',0.9,0.9,0.9);
#25=SHAPE_DEFINITION_REPRESENTATION(#26,#27);
#26=PRODUCT_DEFINITION_SHAPE('productshape0','',#30);
#27=MANIFOLD_SURFACE_SHAPE_REPRESENTATION('',(#28,#9),#3);
#28=SHELL_BASED_SURFACE_MODEL('shell0',(#33));
#29=PRODUCT('product0','','',(#13));
#30=PRODUCT_DEFINITION('mesh0','',#31,#2);
#31=PRODUCT_DEFINITION_FORMATION_WITH_SPECIFIED_SOURCE('prodsource0','',#29,.NOT_KNOWN.);
#32=STYLED_ITEM('',(#18),#33);
#33=CLOSED_SHELL('',(#70,#92,#114,#136,#158,#180,#202,#224,#246,#268,#290,#312,#334,#356,#378,#400));
#34=CARTESIAN_POINT('',(-185.51201175417737,-69.3964344611483,106.39269841084226));
#35=VERTEX_POINT('',#34);
#36=CARTESIAN_POINT('',(-185.51201175417737,-69.39646690465449,347.86178659466395));
#37=VERTEX_POINT('',#36);
#38=CARTESIAN_POINT('',(-185.51201175417737,-63.588022068632675,347.86178737507987));
#39=VERTEX_POINT('',#38);
#40=CARTESIAN_POINT('',(-185.51201175417737,-63.58798962512648,106.39269919125816));
#41=VERTEX_POINT('',#40);
#42=CARTESIAN_POINT('',(189.88958142962292,-69.39646690465449,347.86178659466395));
#43=VERTEX_POINT('',#42);
#44=CARTESIAN_POINT('',(189.88958142962292,-63.588022068632675,347.86178737507987));
#45=VERTEX_POINT('',#44);
#46=CARTESIAN_POINT('',(-185.51201175417737,-63.588022068632675,347.86178737507987));
#47=VERTEX_POINT('',#46);
#48=CARTESIAN_POINT('',(189.88958142962292,-69.3964344611483,106.39269841084226));
#49=VERTEX_POINT('',#48);
#50=CARTESIAN_POINT('',(189.88958142962292,-63.58798962512648,106.39269919125816));
#51=VERTEX_POINT('',#50);
#52=CARTESIAN_POINT('',(189.88958142962292,-63.58798962512648,106.39269919125816));
#53=VERTEX_POINT('',#52);
#54=CARTESIAN_POINT('',(-185.51201175417737,-69.3964344611483,106.39269841084226));
#55=VERTEX_POINT('',#54);
#56=CARTESIAN_POINT('',(-185.51201175417737,-63.58798962512648,106.39269919125816));
#57=VERTEX_POINT('',#56);
#58=CARTESIAN_POINT('',(-173.85934762484612,-69.39643752749664,129.21477978193968));
#59=VERTEX_POINT('',#58);
#60=CARTESIAN_POINT('',(-173.85934762484612,-69.39646478626271,330.21597836182355));
#61=VERTEX_POINT('',#60);
#62=CARTESIAN_POINT('',(-185.51201175417737,-69.39646690465449,347.86178659466395));
#63=VERTEX_POINT('',#62);
#64=CARTESIAN_POINT('',(178.77160798103068,-69.39646478626271,330.21597836182355));
#65=VERTEX_POINT('',#64);
#66=CARTESIAN_POINT('',(178.77160798103068,-69.39643752749664,129.21477978193968));
#67=VERTEX_POINT('',#66);
#68=CARTESIAN_POINT('',(-185.51201175417737,-69.3964344611483,106.39269841084226));
#69=VERTEX_POINT('',#68);
#70=FACE_SURFACE('',(#75),#71,.T.);
#71=PLANE('',#72);
#72=AXIS2_PLACEMENT_3D('',#34,#73,#74);
#73=DIRECTION('',(-1,0,0));
#74=DIRECTION('',(0,-1.3435883834906518E-07,0.9999999999999909));
#75=FACE_BOUND('',#76,.T.);
#76=EDGE_LOOP('',(#77,#78,#79));
#77=ORIENTED_EDGE('',*,*,#80,.T.);
#78=ORIENTED_EDGE('',*,*,#81,.T.);
#79=ORIENTED_EDGE('',*,*,#82,.T.);
#80=EDGE_CURVE('',#35,#37,#83,.F.);
#81=EDGE_CURVE('',#37,#39,#84,.T.);
#82=EDGE_CURVE('',#39,#35,#85,.T.);
#83=LINE('',#34,#86);
#84=LINE('',#36,#87);
#85=LINE('',#38,#88);
#86=VECTOR('',#89,1.0);
#87=VECTOR('',#90,1.0);
#88=VECTOR('',#91,1.0);
#89=DIRECTION('',(0,-1.3435883834906518E-07,0.9999999999999909));
#90=DIRECTION('',(0,0.999999999999991,1.343588411030719E-07));
#91=DIRECTION('',(0,-0.02404751979177414,-0.9997108165824077));
#92=FACE_SURFACE('',(#97),#93,.T.);
#93=PLANE('',#94);
#94=AXIS2_PLACEMENT_3D('',#34,#95,#96);
#95=DIRECTION('',(-1,0,0));
#96=DIRECTION('',(0,0.02404751979177414,0.9997108165824077));
#97=FACE_BOUND('',#98,.T.);
#98=EDGE_LOOP('',(#99,#100,#101));
#99=ORIENTED_EDGE('',*,*,#102,.T.);
#100=ORIENTED_EDGE('',*,*,#103,.T.);
#101=ORIENTED_EDGE('',*,*,#104,.T.);
#102=EDGE_CURVE('',#35,#39,#105,.F.);
#103=EDGE_CURVE('',#39,#41,#106,.T.);
#104=EDGE_CURVE('',#41,#35,#107,.T.);
#105=LINE('',#34,#108);
#106=LINE('',#38,#109);
#107=LINE('',#40,#110);
#108=VECTOR('',#111,1.0);
#109=VECTOR('',#112,1.0);
#110=VECTOR('',#113,1.0);
#111=DIRECTION('',(0,0.02404751979177414,0.9997108165824077));
#112=DIRECTION('',(0,1.34358838378491E-07,-0.9999999999999909));
#113=DIRECTION('',(0,-0.999999999999991,-1.343588386564866E-07));
#114=FACE_SURFACE('',(#119),#115,.T.);
#115=PLANE('',#116);
#116=AXIS2_PLACEMENT_3D('',#36,#117,#118);
#117=DIRECTION('',(0,-1.343588411030719E-07,0.999999999999991));
#118=DIRECTION('',(1,0,0));
#119=FACE_BOUND('',#120,.T.);
#120=EDGE_LOOP('',(#121,#122,#123));
#121=ORIENTED_EDGE('',*,*,#124,.T.);
#122=ORIENTED_EDGE('',*,*,#125,.T.);
#123=ORIENTED_EDGE('',*,*,#126,.T.);
#124=EDGE_CURVE('',#37,#43,#127,.F.);
#125=EDGE_CURVE('',#43,#45,#128,.T.);
#126=EDGE_CURVE('',#45,#37,#129,.T.);
#127=LINE('',#36,#130);
#128=LINE('',#42,#131);
#129=LINE('',#44,#132);
#130=VECTOR('',#133,1.0);
#131=VECTOR('',#134,1.0);
#132=VECTOR('',#135,1.0);
#133=DIRECTION('',(1,0,0));
#134=DIRECTION('',(0,0.999999999999991,1.343588411030719E-07));
#135=DIRECTION('',(-0.9998803205595149,-0.015470764615935497,-2.0786340047755233E-09));
#136=FACE_SURFACE('',(#141),#137,.T.);
#137=PLANE('',#138);
#138=AXIS2_PLACEMENT_3D('',#36,#139,#140);
#139=DIRECTION('',(0,-1.343588411030719E-07,0.999999999999991));
#140=DIRECTION('',(0.9998803205595149,0.015470764615935497,2.0786340047755233E-09));
#141=FACE_BOUND('',#142,.T.);
#142=EDGE_LOOP('',(#143,#144,#145));
#143=ORIENTED_EDGE('',*,*,#146,.T.);
#144=ORIENTED_EDGE('',*,*,#147,.T.);
#145=ORIENTED_EDGE('',*,*,#148,.T.);
#146=EDGE_CURVE('',#37,#45,#149,.F.);
#147=EDGE_CURVE('',#45,#47,#150,.T.);
#148=EDGE_CURVE('',#47,#37,#151,.T.);
#149=LINE('',#36,#152);
#150=LINE('',#44,#153);
#151=LINE('',#46,#154);
#152=VECTOR('',#155,1.0);
#153=VECTOR('',#156,1.0);
#154=VECTOR('',#157,1.0);
#155=DIRECTION('',(0.9998803205595149,0.015470764615935497,2.0786340047755233E-09));
#156=DIRECTION('',(-1,0,0));
#157=DIRECTION('',(0,-0.999999999999991,-1.343588411030719E-07));
#158=FACE_SURFACE('',(#163),#159,.T.);
#159=PLANE('',#160);
#160=AXIS2_PLACEMENT_3D('',#44,#161,#162);
#161=DIRECTION('',(1,0,0));
#162=DIRECTION('',(0,-0.999999999999991,-1.343588411030719E-07));
#163=FACE_BOUND('',#164,.T.);
#164=EDGE_LOOP('',(#165,#166,#167));
#165=ORIENTED_EDGE('',*,*,#168,.T.);
#166=ORIENTED_EDGE('',*,*,#169,.T.);
#167=ORIENTED_EDGE('',*,*,#170,.T.);
#168=EDGE_CURVE('',#45,#43,#171,.F.);
#169=EDGE_CURVE('',#43,#49,#172,.T.);
#170=EDGE_CURVE('',#49,#45,#173,.T.);
#171=LINE('',#44,#174);
#172=LINE('',#42,#175);
#173=LINE('',#48,#176);
#174=VECTOR('',#177,1.0);
#175=VECTOR('',#178,1.0);
#176=VECTOR('',#179,1.0);
#177=DIRECTION('',(0,-0.999999999999991,-1.343588411030719E-07));
#178=DIRECTION('',(0,1.3435883834906518E-07,-0.9999999999999909));
#179=DIRECTION('',(0,0.02404751979177414,0.9997108165824077));
#180=FACE_SURFACE('',(#185),#181,.T.);
#181=PLANE('',#182);
#182=AXIS2_PLACEMENT_3D('',#44,#183,#184);
#183=DIRECTION('',(1,0,0));
#184=DIRECTION('',(0,-0.02404751979177414,-0.9997108165824077));
#185=FACE_BOUND('',#186,.T.);
#186=EDGE_LOOP('',(#187,#188,#189));
#187=ORIENTED_EDGE('',*,*,#190,.T.);
#188=ORIENTED_EDGE('',*,*,#191,.T.);
#189=ORIENTED_EDGE('',*,*,#192,.T.);
#190=EDGE_CURVE('',#45,#49,#193,.F.);
#191=EDGE_CURVE('',#49,#51,#194,.T.);
#192=EDGE_CURVE('',#51,#45,#195,.T.);
#193=LINE('',#44,#196);
#194=LINE('',#48,#197);
#195=LINE('',#50,#198);
#196=VECTOR('',#199,1.0);
#197=VECTOR('',#200,1.0);
#198=VECTOR('',#201,1.0);
#199=DIRECTION('',(0,-0.02404751979177414,-0.9997108165824077));
#200=DIRECTION('',(0,0.999999999999991,1.343588386564866E-07));
#201=DIRECTION('',(0,-1.34358838378491E-07,0.9999999999999909));
#202=FACE_SURFACE('',(#207),#203,.T.);
#203=PLANE('',#204);
#204=AXIS2_PLACEMENT_3D('',#52,#205,#206);
#205=DIRECTION('',(0,1.343588386564866E-07,-0.999999999999991));
#206=DIRECTION('',(0,-0.999999999999991,-1.343588386564866E-07));
#207=FACE_BOUND('',#208,.T.);
#208=EDGE_LOOP('',(#209,#210,#211));
#209=ORIENTED_EDGE('',*,*,#212,.T.);
#210=ORIENTED_EDGE('',*,*,#213,.T.);
#211=ORIENTED_EDGE('',*,*,#214,.T.);
#212=EDGE_CURVE('',#53,#49,#215,.F.);
#213=EDGE_CURVE('',#49,#55,#216,.T.);
#214=EDGE_CURVE('',#55,#53,#217,.T.);
#215=LINE('',#52,#218);
#216=LINE('',#48,#219);
#217=LINE('',#54,#220);
#218=VECTOR('',#221,1.0);
#219=VECTOR('',#222,1.0);
#220=VECTOR('',#223,1.0);
#221=DIRECTION('',(0,-0.999999999999991,-1.343588386564866E-07));
#222=DIRECTION('',(-1,0,0));
#223=DIRECTION('',(0.9998803205595149,0.015470764615935516,2.078633966924981E-09));
#224=FACE_SURFACE('',(#229),#225,.T.);
#225=PLANE('',#226);
#226=AXIS2_PLACEMENT_3D('',#52,#227,#228);
#227=DIRECTION('',(0,1.343588386564866E-07,-0.999999999999991));
#228=DIRECTION('',(-0.9998803205595149,-0.015470764615935516,-2.078633966924981E-09));
#229=FACE_BOUND('',#230,.T.);
#230=EDGE_LOOP('',(#231,#232,#233));
#231=ORIENTED_EDGE('',*,*,#234,.T.);
#232=ORIENTED_EDGE('',*,*,#235,.T.);
#233=ORIENTED_EDGE('',*,*,#236,.T.);
#234=EDGE_CURVE('',#53,#55,#237,.F.);
#235=EDGE_CURVE('',#55,#57,#238,.T.);
#236=EDGE_CURVE('',#57,#53,#239,.T.);
#237=LINE('',#52,#240);
#238=LINE('',#54,#241);
#239=LINE('',#56,#242);
#240=VECTOR('',#243,1.0);
#241=VECTOR('',#244,1.0);
#242=VECTOR('',#245,1.0);
#243=DIRECTION('',(-0.9998803205595149,-0.015470764615935516,-2.078633966924981E-09));
#244=DIRECTION('',(0,0.999999999999991,1.343588386564866E-07));
#245=DIRECTION('',(1,0,0));
#246=FACE_SURFACE('',(#251),#247,.T.);
#247=PLANE('',#248);
#248=AXIS2_PLACEMENT_3D('',#58,#249,#250);
#249=DIRECTION('',(-2.3569159476507416E-08,-0.9999999999999905,-1.3561494289611407E-07));
#250=DIRECTION('',(0,-1.356149428961141E-07,0.9999999999999908));
#251=FACE_BOUND('',#252,.T.);
#252=EDGE_LOOP('',(#253,#254,#255));
#253=ORIENTED_EDGE('',*,*,#256,.T.);
#254=ORIENTED_EDGE('',*,*,#257,.T.);
#255=ORIENTED_EDGE('',*,*,#258,.T.);
#256=EDGE_CURVE('',#59,#61,#259,.F.);
#257=EDGE_CURVE('',#61,#63,#260,.T.);
#258=EDGE_CURVE('',#63,#59,#261,.T.);
#259=LINE('',#58,#262);
#260=LINE('',#60,#263);
#261=LINE('',#62,#264);
#262=VECTOR('',#265,1.0);
#263=VECTOR('',#266,1.0);
#264=VECTOR('',#267,1.0);
#265=DIRECTION('',(0,-1.356149428961141E-07,0.9999999999999908));
#266=DIRECTION('',(-0.551054023509545,-1.0017866291716072E-07,0.834469569950835));
#267=DIRECTION('',(0.05321888905918751,1.341684345166472E-07,-0.9985828707960536));
#268=FACE_SURFACE('',(#273),#269,.T.);
#269=PLANE('',#270);
#270=AXIS2_PLACEMENT_3D('',#48,#271,#272);
#271=DIRECTION('',(2.2709041391417278E-08,-0.9999999999999907,-1.3435883834906515E-07));
#272=DIRECTION('',(0,-1.3435883834906518E-07,0.9999999999999909));
#273=FACE_BOUND('',#274,.T.);
#274=EDGE_LOOP('',(#275,#276,#277));
#275=ORIENTED_EDGE('',*,*,#278,.T.);
#276=ORIENTED_EDGE('',*,*,#279,.T.);
#277=ORIENTED_EDGE('',*,*,#280,.T.);
#278=EDGE_CURVE('',#49,#43,#281,.F.);
#279=EDGE_CURVE('',#43,#65,#282,.T.);
#280=EDGE_CURVE('',#65,#49,#283,.T.);
#281=LINE('',#48,#284);
#282=LINE('',#42,#285);
#283=LINE('',#64,#286);
#284=VECTOR('',#287,1.0);
#285=VECTOR('',#288,1.0);
#286=VECTOR('',#289,1.0);
#287=DIRECTION('',(0,-1.3435883834906518E-07,0.9999999999999909));
#288=DIRECTION('',(-0.5330759017637234,1.015709932978815E-07,-0.8460674222299207));
#289=DIRECTION('',(0.04961182992291084,1.3532002261067399E-07,-0.9987685749620289));
#290=FACE_SURFACE('',(#295),#291,.T.);
#291=PLANE('',#292);
#292=AXIS2_PLACEMENT_3D('',#48,#293,#294);
#293=DIRECTION('',(-2.5784303750703603E-09,-0.9999999999999907,-1.3561494289611407E-07));
#294=DIRECTION('',(-0.04961182992291084,-1.3532002261067399E-07,0.9987685749620289));
#295=FACE_BOUND('',#296,.T.);
#296=EDGE_LOOP('',(#297,#298,#299));
#297=ORIENTED_EDGE('',*,*,#300,.T.);
#298=ORIENTED_EDGE('',*,*,#301,.T.);
#299=ORIENTED_EDGE('',*,*,#302,.T.);
#300=EDGE_CURVE('',#49,#65,#303,.F.);
#301=EDGE_CURVE('',#65,#67,#304,.T.);
#302=EDGE_CURVE('',#67,#49,#305,.T.);
#303=LINE('',#48,#306);
#304=LINE('',#64,#307);
#305=LINE('',#66,#308);
#306=VECTOR('',#309,1.0);
#307=VECTOR('',#310,1.0);
#308=VECTOR('',#311,1.0);
#309=DIRECTION('',(-0.04961182992291084,-1.3532002261067399E-07,0.9987685749620289));
#310=DIRECTION('',(0,1.356149428961141E-07,-0.9999999999999908));
#311=DIRECTION('',(0.4379542551524438,1.2078822729094686E-07,-0.8989972582793864));
#312=FACE_SURFACE('',(#317),#313,.T.);
#313=PLANE('',#314);
#314=AXIS2_PLACEMENT_3D('',#58,#315,#316);
#315=DIRECTION('',(2.2803340021573523E-17,-0.9999999999999909,-1.3435883834906518E-07));
#316=DIRECTION('',(-0.05321888905918751,-1.341684345166472E-07,0.9985828707960536));
#317=FACE_BOUND('',#318,.T.);
#318=EDGE_LOOP('',(#319,#320,#321));
#319=ORIENTED_EDGE('',*,*,#322,.T.);
#320=ORIENTED_EDGE('',*,*,#323,.T.);
#321=ORIENTED_EDGE('',*,*,#324,.T.);
#322=EDGE_CURVE('',#59,#63,#325,.F.);
#323=EDGE_CURVE('',#63,#69,#326,.T.);
#324=EDGE_CURVE('',#69,#59,#327,.T.);
#325=LINE('',#58,#328);
#326=LINE('',#62,#329);
#327=LINE('',#68,#330);
#328=VECTOR('',#331,1.0);
#329=VECTOR('',#332,1.0);
#330=VECTOR('',#333,1.0);
#331=DIRECTION('',(-0.05321888905918751,-1.341684345166472E-07,0.9985828707960536));
#332=DIRECTION('',(0,1.3435883834906518E-07,-0.9999999999999909));
#333=DIRECTION('',(0.45474110602110285,-1.196631620689125E-07,0.8906236727679597));
#334=FACE_SURFACE('',(#339),#335,.T.);
#335=PLANE('',#336);
#336=AXIS2_PLACEMENT_3D('',#48,#337,#338);
#337=DIRECTION('',(0,-0.999999999999991,-1.343588383374221E-07));
#338=DIRECTION('',(-0.4379542551524438,-1.2078822729094686E-07,0.8989972582793864));
#339=FACE_BOUND('',#340,.T.);
#340=EDGE_LOOP('',(#341,#342,#343));
#341=ORIENTED_EDGE('',*,*,#344,.T.);
#342=ORIENTED_EDGE('',*,*,#345,.T.);
#343=ORIENTED_EDGE('',*,*,#346,.T.);
#344=EDGE_CURVE('',#49,#67,#347,.F.);
#345=EDGE_CURVE('',#67,#59,#348,.T.);
#346=EDGE_CURVE('',#59,#49,#349,.T.);
#347=LINE('',#48,#350);
#348=LINE('',#66,#351);
#349=LINE('',#58,#352);
#350=VECTOR('',#353,1.0);
#351=VECTOR('',#354,1.0);
#352=VECTOR('',#355,1.0);
#353=DIRECTION('',(-0.4379542551524438,-1.2078822729094686E-07,0.8989972582793864));
#354=DIRECTION('',(-1,0,0));
#355=DIRECTION('',(0.998037556448053,8.41330533642288E-09,-0.06261817562975686));
#356=FACE_SURFACE('',(#361),#357,.T.);
#357=PLANE('',#358);
#358=AXIS2_PLACEMENT_3D('',#68,#359,#360);
#359=DIRECTION('',(0,-0.9999999999999909,-1.3435883833742207E-07));
#360=DIRECTION('',(1,0,0));
#361=FACE_BOUND('',#362,.T.);
#362=EDGE_LOOP('',(#363,#364,#365));
#363=ORIENTED_EDGE('',*,*,#366,.T.);
#364=ORIENTED_EDGE('',*,*,#367,.T.);
#365=ORIENTED_EDGE('',*,*,#368,.T.);
#366=EDGE_CURVE('',#69,#49,#369,.F.);
#367=EDGE_CURVE('',#49,#59,#370,.T.);
#368=EDGE_CURVE('',#59,#69,#371,.T.);
#369=LINE('',#68,#372);
#370=LINE('',#48,#373);
#371=LINE('',#58,#374);
#372=VECTOR('',#375,1.0);
#373=VECTOR('',#376,1.0);
#374=VECTOR('',#377,1.0);
#375=DIRECTION('',(1,0,0));
#376=DIRECTION('',(-0.998037556448053,-8.41330533642288E-09,0.06261817562975686));
#377=DIRECTION('',(-0.45474110602110285,1.196631620689125E-07,-0.8906236727679597));
#378=FACE_SURFACE('',(#383),#379,.T.);
#379=PLANE('',#380);
#380=AXIS2_PLACEMENT_3D('',#64,#381,#382);
#381=DIRECTION('',(0,-0.9999999999999927,-1.2005070828773574E-07));
#382=DIRECTION('',(0.5330759017637234,-1.015709932978815E-07,0.8460674222299207));
#383=FACE_BOUND('',#384,.T.);
#384=EDGE_LOOP('',(#385,#386,#387));
#385=ORIENTED_EDGE('',*,*,#388,.T.);
#386=ORIENTED_EDGE('',*,*,#389,.T.);
#387=ORIENTED_EDGE('',*,*,#390,.T.);
#388=EDGE_CURVE('',#65,#43,#391,.F.);
#389=EDGE_CURVE('',#43,#63,#392,.T.);
#390=EDGE_CURVE('',#63,#65,#393,.T.);
#391=LINE('',#64,#394);
#392=LINE('',#42,#395);
#393=LINE('',#62,#396);
#394=VECTOR('',#397,1.0);
#395=VECTOR('',#398,1.0);
#396=VECTOR('',#399,1.0);
#397=DIRECTION('',(0.5330759017637234,-1.015709932978815E-07,0.8460674222299207));
#398=DIRECTION('',(-1,0,0));
#399=DIRECTION('',(0.9988288557938779,5.808416079604548E-09,-0.04838302216162674));
#400=FACE_SURFACE('',(#405),#401,.T.);
#401=PLANE('',#402);
#402=AXIS2_PLACEMENT_3D('',#64,#403,#404);
#403=DIRECTION('',(-0,-0.9999999999999927,-1.2005070828773576E-07));
#404=DIRECTION('',(-0.9988288557938779,-5.808416079604548E-09,0.04838302216162674));
#405=FACE_BOUND('',#406,.T.);
#406=EDGE_LOOP('',(#407,#408,#409));
#407=ORIENTED_EDGE('',*,*,#410,.T.);
#408=ORIENTED_EDGE('',*,*,#411,.T.);
#409=ORIENTED_EDGE('',*,*,#412,.T.);
#410=EDGE_CURVE('',#65,#63,#413,.F.);
#411=EDGE_CURVE('',#63,#61,#414,.T.);
#412=EDGE_CURVE('',#61,#65,#415,.T.);
#413=LINE('',#64,#416);
#414=LINE('',#62,#417);
#415=LINE('',#60,#418);
#416=VECTOR('',#419,1.0);
#417=VECTOR('',#420,1.0);
#418=VECTOR('',#421,1.0);
#419=DIRECTION('',(-0.9988288557938779,-5.808416079604548E-09,0.04838302216162674));
#420=DIRECTION('',(0.551054023509545,1.0017866291716072E-07,-0.834469569950835));
#421=DIRECTION('',(1,0,0));
#422=SHAPE_DEFINITION_REPRESENTATION(#423,#424);
#423=PRODUCT_DEFINITION_SHAPE('productshape1','',#427);
#424=MANIFOLD_SURFACE_SHAPE_REPRESENTATION('',(#425,#9),#3);
#425=SHELL_BASED_SURFACE_MODEL('shell1',(#430));
#426=PRODUCT('product1','','',(#13));
#427=PRODUCT_DEFINITION('mesh1','',#428,#2);
#428=PRODUCT_DEFINITION_FORMATION_WITH_SPECIFIED_SOURCE('prodsource1','',#426,.NOT_KNOWN.);
#429=STYLED_ITEM('',(#18),#430);
#430=CLOSED_SHELL('',(#483,#505,#527,#549,#571,#593,#615,#637,#659,#681,#703,#725,#747,#769,#791,#813,#835,#857,#879,#901,#923,#945,#967,#989,#1011,#1033));
#431=CARTESIAN_POINT('',(-173.85934762484612,-63.588019824001634,330.21597914223946));
#432=VERTEX_POINT('',#431);
#433=CARTESIAN_POINT('',(-173.85934762484612,-69.39646478626271,330.21597836182355));
#434=VERTEX_POINT('',#433);
#435=CARTESIAN_POINT('',(-173.85934762484612,-69.39643752749664,129.21477978193968));
#436=VERTEX_POINT('',#435);
#437=CARTESIAN_POINT('',(-173.85934762484612,-63.58799236551398,126.78873367560163));
#438=VERTEX_POINT('',#437);
#439=CARTESIAN_POINT('',(178.77160798103068,-63.588019824001634,330.21597914223946));
#440=VERTEX_POINT('',#439);
#441=CARTESIAN_POINT('',(178.77160798103068,-69.39646478626271,330.21597836182355));
#442=VERTEX_POINT('',#441);
#443=CARTESIAN_POINT('',(178.77160798103068,-69.39643752749664,129.21477978193968));
#444=VERTEX_POINT('',#443);
#445=CARTESIAN_POINT('',(178.77160798103068,-63.58799236551398,126.78873367560163));
#446=VERTEX_POINT('',#445);
#447=CARTESIAN_POINT('',(-173.85934762484612,-63.58799236551398,126.78873367560163));
#448=VERTEX_POINT('',#447);
#449=CARTESIAN_POINT('',(-173.85934762484612,-69.39643752749664,129.21477978193968));
#450=VERTEX_POINT('',#449);
#451=CARTESIAN_POINT('',(168.76616050103985,-63.58799256523557,129.2147805623556));
#452=VERTEX_POINT('',#451);
#453=CARTESIAN_POINT('',(-164.3885908255943,-63.58799256523557,129.2147805623556));
#454=VERTEX_POINT('',#453);
#455=CARTESIAN_POINT('',(-164.21078830234546,-63.58799030243822,111.43376495125514));
#456=VERTEX_POINT('',#455);
#457=CARTESIAN_POINT('',(168.58835797779102,-63.58799030243822,111.43376495125514));
#458=VERTEX_POINT('',#457);
#459=CARTESIAN_POINT('',(189.88958142962292,-63.58798962512648,106.39269919125816));
#460=VERTEX_POINT('',#459);
#461=CARTESIAN_POINT('',(-185.51201175417737,-63.58798962512648,106.39269919125816));
#462=VERTEX_POINT('',#461);
#463=CARTESIAN_POINT('',(-173.85934762484612,-63.58799236551398,126.78873367560163));
#464=VERTEX_POINT('',#463);
#465=CARTESIAN_POINT('',(-164.3885908255943,-63.58799256523557,129.2147805623556));
#466=VERTEX_POINT('',#465);
#467=CARTESIAN_POINT('',(-164.21078830234546,-63.587992315216184,127.35394738390372));
#468=VERTEX_POINT('',#467);
#469=CARTESIAN_POINT('',(168.58835797779102,-63.587992315216184,127.35394738390372));
#470=VERTEX_POINT('',#469);
#471=CARTESIAN_POINT('',(168.76616050103985,-63.58799256523557,129.2147805623556));
#472=VERTEX_POINT('',#471);
#473=CARTESIAN_POINT('',(178.77160798103068,-63.58799236551398,126.78873367560163));
#474=VERTEX_POINT('',#473);
#475=CARTESIAN_POINT('',(-173.85934762484612,-63.588019824001634,330.21597914223946));
#476=VERTEX_POINT('',#475);
#477=CARTESIAN_POINT('',(189.88958142962292,-63.588022068632675,347.86178737507987));
#478=VERTEX_POINT('',#477);
#479=CARTESIAN_POINT('',(178.77160798103068,-63.588019824001634,330.21597914223946));
#480=VERTEX_POINT('',#479);
#481=CARTESIAN_POINT('',(-185.51201175417737,-63.588022068632675,347.86178737507987));
#482=VERTEX_POINT('',#481);
#483=FACE_SURFACE('',(#488),#484,.T.);
#484=PLANE('',#485);
#485=AXIS2_PLACEMENT_3D('',#431,#486,#487);
#486=DIRECTION('',(1,0,0));
#487=DIRECTION('',(0,-0.999999999999991,-1.3435883818295103E-07));
#488=FACE_BOUND('',#489,.T.);
#489=EDGE_LOOP('',(#490,#491,#492));
#490=ORIENTED_EDGE('',*,*,#493,.T.);
#491=ORIENTED_EDGE('',*,*,#494,.T.);
#492=ORIENTED_EDGE('',*,*,#495,.T.);
#493=EDGE_CURVE('',#432,#434,#496,.F.);
#494=EDGE_CURVE('',#434,#436,#497,.T.);
#495=EDGE_CURVE('',#436,#432,#498,.T.);
#496=LINE('',#431,#499);
#497=LINE('',#433,#500);
#498=LINE('',#435,#501);
#499=VECTOR('',#502,1.0);
#500=VECTOR('',#503,1.0);
#501=VECTOR('',#504,1.0);
#502=DIRECTION('',(0,-0.999999999999991,-1.3435883818295103E-07));
#503=DIRECTION('',(0,1.356149428961141E-07,-0.9999999999999908));
#504=DIRECTION('',(0,0.028885370073616596,0.9995827306409962));
#505=FACE_SURFACE('',(#510),#506,.T.);
#506=PLANE('',#507);
#507=AXIS2_PLACEMENT_3D('',#431,#508,#509);
#508=DIRECTION('',(1,0,0));
#509=DIRECTION('',(0,-0.028885370073616596,-0.9995827306409962));
#510=FACE_BOUND('',#511,.T.);
#511=EDGE_LOOP('',(#512,#513,#514));
#512=ORIENTED_EDGE('',*,*,#515,.T.);
#513=ORIENTED_EDGE('',*,*,#516,.T.);
#514=ORIENTED_EDGE('',*,*,#517,.T.);
#515=EDGE_CURVE('',#432,#436,#518,.F.);
#516=EDGE_CURVE('',#436,#438,#519,.T.);
#517=EDGE_CURVE('',#438,#432,#520,.T.);
#518=LINE('',#431,#521);
#519=LINE('',#435,#522);
#520=LINE('',#437,#523);
#521=VECTOR('',#524,1.0);
#522=VECTOR('',#525,1.0);
#523=VECTOR('',#526,1.0);
#524=DIRECTION('',(0,-0.028885370073616596,-0.9995827306409962));
#525=DIRECTION('',(0,0.9227460372061604,-0.38540855052830275));
#526=DIRECTION('',(0,-1.3497940056036537E-07,0.9999999999999908));
#527=FACE_SURFACE('',(#532),#528,.T.);
#528=PLANE('',#529);
#529=AXIS2_PLACEMENT_3D('',#439,#530,#531);
#530=DIRECTION('',(0,1.3435883818295106E-07,-0.9999999999999911));
#531=DIRECTION('',(0,-0.999999999999991,-1.3435883818295103E-07));
#532=FACE_BOUND('',#533,.T.);
#533=EDGE_LOOP('',(#534,#535,#536));
#534=ORIENTED_EDGE('',*,*,#537,.T.);
#535=ORIENTED_EDGE('',*,*,#538,.T.);
#536=ORIENTED_EDGE('',*,*,#539,.T.);
#537=EDGE_CURVE('',#440,#442,#540,.F.);
#538=EDGE_CURVE('',#442,#434,#541,.T.);
#539=EDGE_CURVE('',#434,#440,#542,.T.);
#540=LINE('',#439,#543);
#541=LINE('',#441,#544);
#542=LINE('',#433,#545);
#543=VECTOR('',#546,1.0);
#544=VECTOR('',#547,1.0);
#545=VECTOR('',#548,1.0);
#546=DIRECTION('',(0,-0.999999999999991,-1.3435883818295103E-07));
#547=DIRECTION('',(-1,0,0));
#548=DIRECTION('',(0.9998643685107554,0.016469504624862442,2.212823506845277E-09));
#549=FACE_SURFACE('',(#554),#550,.T.);
#550=PLANE('',#551);
#551=AXIS2_PLACEMENT_3D('',#439,#552,#553);
#552=DIRECTION('',(0,1.3435883818295106E-07,-0.9999999999999911));
#553=DIRECTION('',(-0.9998643685107554,-0.016469504624862442,-2.212823506845277E-09));
#554=FACE_BOUND('',#555,.T.);
#555=EDGE_LOOP('',(#556,#557,#558));
#556=ORIENTED_EDGE('',*,*,#559,.T.);
#557=ORIENTED_EDGE('',*,*,#560,.T.);
#558=ORIENTED_EDGE('',*,*,#561,.T.);
#559=EDGE_CURVE('',#440,#434,#562,.F.);
#560=EDGE_CURVE('',#434,#432,#563,.T.);
#561=EDGE_CURVE('',#432,#440,#564,.T.);
#562=LINE('',#439,#565);
#563=LINE('',#433,#566);
#564=LINE('',#431,#567);
#565=VECTOR('',#568,1.0);
#566=VECTOR('',#569,1.0);
#567=VECTOR('',#570,1.0);
#568=DIRECTION('',(-0.9998643685107554,-0.016469504624862442,-2.212823506845277E-09));
#569=DIRECTION('',(0,0.999999999999991,1.3435883818295103E-07));
#570=DIRECTION('',(1,0,0));
#571=FACE_SURFACE('',(#576),#572,.T.);
#572=PLANE('',#573);
#573=AXIS2_PLACEMENT_3D('',#443,#574,#575);
#574=DIRECTION('',(-1,0,0));
#575=DIRECTION('',(0,-1.356149428961141E-07,0.9999999999999908));
#576=FACE_BOUND('',#577,.T.);
#577=EDGE_LOOP('',(#578,#579,#580));
#578=ORIENTED_EDGE('',*,*,#581,.T.);
#579=ORIENTED_EDGE('',*,*,#582,.T.);
#580=ORIENTED_EDGE('',*,*,#583,.T.);
#581=EDGE_CURVE('',#444,#442,#584,.F.);
#582=EDGE_CURVE('',#442,#440,#585,.T.);
#583=EDGE_CURVE('',#440,#444,#586,.T.);
#584=LINE('',#443,#587);
#585=LINE('',#441,#588);
#586=LINE('',#439,#589);
#587=VECTOR('',#590,1.0);
#588=VECTOR('',#591,1.0);
#589=VECTOR('',#592,1.0);
#590=DIRECTION('',(0,-1.356149428961141E-07,0.9999999999999908));
#591=DIRECTION('',(0,0.999999999999991,1.3435883818295103E-07));
#592=DIRECTION('',(0,-0.028885370073616596,-0.9995827306409962));
#593=FACE_SURFACE('',(#598),#594,.T.);
#594=PLANE('',#595);
#595=AXIS2_PLACEMENT_3D('',#443,#596,#597);
#596=DIRECTION('',(-1,0,0));
#597=DIRECTION('',(0,0.028885370073616596,0.9995827306409962));
#598=FACE_BOUND('',#599,.T.);
#599=EDGE_LOOP('',(#600,#601,#602));
#600=ORIENTED_EDGE('',*,*,#603,.T.);
#601=ORIENTED_EDGE('',*,*,#604,.T.);
#602=ORIENTED_EDGE('',*,*,#605,.T.);
#603=EDGE_CURVE('',#444,#440,#606,.F.);
#604=EDGE_CURVE('',#440,#446,#607,.T.);
#605=EDGE_CURVE('',#446,#444,#608,.T.);
#606=LINE('',#443,#609);
#607=LINE('',#439,#610);
#608=LINE('',#445,#611);
#609=VECTOR('',#612,1.0);
#610=VECTOR('',#613,1.0);
#611=VECTOR('',#614,1.0);
#612=DIRECTION('',(0,0.028885370073616596,0.9995827306409962));
#613=DIRECTION('',(0,1.3497940056036537E-07,-0.9999999999999908));
#614=DIRECTION('',(0,-0.9227460372061604,0.38540855052830275));
#615=FACE_SURFACE('',(#620),#616,.T.);
#616=PLANE('',#617);
#617=AXIS2_PLACEMENT_3D('',#447,#618,#619);
#618=DIRECTION('',(0,0.38540855052830275,0.9227460372061604));
#619=DIRECTION('',(0,-0.9227460372061604,0.38540855052830275));
#620=FACE_BOUND('',#621,.T.);
#621=EDGE_LOOP('',(#622,#623,#624));
#622=ORIENTED_EDGE('',*,*,#625,.T.);
#623=ORIENTED_EDGE('',*,*,#626,.T.);
#624=ORIENTED_EDGE('',*,*,#627,.T.);
#625=EDGE_CURVE('',#448,#450,#628,.F.);
#626=EDGE_CURVE('',#450,#444,#629,.T.);
#627=EDGE_CURVE('',#444,#448,#630,.T.);
#628=LINE('',#447,#631);
#629=LINE('',#449,#632);
#630=LINE('',#443,#633);
#631=VECTOR('',#634,1.0);
#632=VECTOR('',#635,1.0);
#633=VECTOR('',#636,1.0);
#634=DIRECTION('',(0,-0.9227460372061604,0.38540855052830275));
#635=DIRECTION('',(1,0,0));
#636=DIRECTION('',(-0.9998407128397612,0.016469115541116207,-0.006878748532372853));
#637=FACE_SURFACE('',(#642),#638,.T.);
#638=PLANE('',#639);
#639=AXIS2_PLACEMENT_3D('',#443,#640,#641);
#640=DIRECTION('',(0.21834226791552683,0.3761095105030994,0.9004822542119434));
#641=DIRECTION('',(0,0.9227460372061604,-0.38540855052830275));
#642=FACE_BOUND('',#643,.T.);
#643=EDGE_LOOP('',(#644,#645,#646));
#644=ORIENTED_EDGE('',*,*,#647,.T.);
#645=ORIENTED_EDGE('',*,*,#648,.T.);
#646=ORIENTED_EDGE('',*,*,#649,.T.);
#647=EDGE_CURVE('',#444,#446,#650,.F.);
#648=EDGE_CURVE('',#446,#452,#651,.T.);
#649=EDGE_CURVE('',#452,#444,#652,.T.);
#650=LINE('',#443,#653);
#651=LINE('',#445,#654);
#652=LINE('',#451,#655);
#653=VECTOR('',#656,1.0);
#654=VECTOR('',#657,1.0);
#655=VECTOR('',#658,1.0);
#656=DIRECTION('',(0,0.9227460372061604,-0.38540855052830275));
#657=DIRECTION('',(-0.9718393436542059,-1.9399161585571233E-08,0.2356444145863892));
#658=DIRECTION('',(0.8648328471473811,-0.5020599032933719,-6.745618530474282E-08));
#659=FACE_SURFACE('',(#664),#660,.T.);
#660=PLANE('',#661);
#661=AXIS2_PLACEMENT_3D('',#453,#662,#663);
#662=DIRECTION('',(-0.016887097188081852,-0.9976817749721508,0.06592345437686853));
#663=DIRECTION('',(-0.968721727566619,2.042863535409618E-08,-0.2481495809795873));
#664=FACE_BOUND('',#665,.T.);
#665=EDGE_LOOP('',(#666,#667,#668));
#666=ORIENTED_EDGE('',*,*,#669,.T.);
#667=ORIENTED_EDGE('',*,*,#670,.T.);
#668=ORIENTED_EDGE('',*,*,#671,.T.);
#669=EDGE_CURVE('',#454,#448,#672,.F.);
#670=EDGE_CURVE('',#448,#444,#673,.T.);
#671=EDGE_CURVE('',#444,#454,#674,.T.);
#672=LINE('',#453,#675);
#673=LINE('',#447,#676);
#674=LINE('',#443,#677);
#675=VECTOR('',#678,1.0);
#676=VECTOR('',#679,1.0);
#677=VECTOR('',#680,1.0);
#678=DIRECTION('',(-0.968721727566619,2.042863535409618E-08,-0.2481495809795873));
#679=DIRECTION('',(0.9998407128397612,-0.016469115541116207,0.006878748532372853));
#680=DIRECTION('',(-0.9998567803418095,0.01692391221055221,2.273877182120074E-09));
#681=FACE_SURFACE('',(#686),#682,.T.);
#682=PLANE('',#683);
#683=AXIS2_PLACEMENT_3D('',#443,#684,#685);
#684=DIRECTION('',(0,-1.3435883818295103E-07,0.999999999999991));
#685=DIRECTION('',(-0.8648328471473811,0.5020599032933719,6.745618530474282E-08));
#686=FACE_BOUND('',#687,.T.);
#687=EDGE_LOOP('',(#688,#689,#690));
#688=ORIENTED_EDGE('',*,*,#691,.T.);
#689=ORIENTED_EDGE('',*,*,#692,.T.);
#690=ORIENTED_EDGE('',*,*,#693,.T.);
#691=EDGE_CURVE('',#444,#452,#694,.F.);
#692=EDGE_CURVE('',#452,#454,#695,.T.);
#693=EDGE_CURVE('',#454,#444,#696,.T.);
#694=LINE('',#443,#697);
#695=LINE('',#451,#698);
#696=LINE('',#453,#699);
#697=VECTOR('',#700,1.0);
#698=VECTOR('',#701,1.0);
#699=VECTOR('',#702,1.0);
#700=DIRECTION('',(-0.8648328471473811,0.5020599032933719,6.745618530474282E-08));
#701=DIRECTION('',(-1,0,0));
#702=DIRECTION('',(0.9998567803418095,-0.01692391221055221,-2.273877182120074E-09));
#703=FACE_SURFACE('',(#708),#704,.T.);
#704=PLANE('',#705);
#705=AXIS2_PLACEMENT_3D('',#455,#706,#707);
#706=DIRECTION('',(-0,0.999999999999991,1.3435883826664966E-07));
#707=DIRECTION('',(1,0,0));
#708=FACE_BOUND('',#709,.T.);
#709=EDGE_LOOP('',(#710,#711,#712));
#710=ORIENTED_EDGE('',*,*,#713,.T.);
#711=ORIENTED_EDGE('',*,*,#714,.T.);
#712=ORIENTED_EDGE('',*,*,#715,.T.);
#713=EDGE_CURVE('',#456,#458,#716,.F.);
#714=EDGE_CURVE('',#458,#460,#717,.T.);
#715=EDGE_CURVE('',#460,#456,#718,.T.);
#716=LINE('',#455,#719);
#717=LINE('',#457,#720);
#718=LINE('',#459,#721);
#719=VECTOR('',#722,1.0);
#720=VECTOR('',#723,1.0);
#721=VECTOR('',#724,1.0);
#722=DIRECTION('',(1,0,0));
#723=DIRECTION('',(0.9731208518938361,3.094217466330286E-08,-0.23029504469139936));
#724=DIRECTION('',(-0.9998986798179703,-1.9125738679767996E-09,0.014234819924395837));
#725=FACE_SURFACE('',(#730),#726,.T.);
#726=PLANE('',#727);
#727=AXIS2_PLACEMENT_3D('',#455,#728,#729);
#728=DIRECTION('',(0,0.999999999999991,1.3435883826664964E-07));
#729=DIRECTION('',(0.9998986798179703,1.9125738679767996E-09,-0.014234819924395837));
#730=FACE_BOUND('',#731,.T.);
#731=EDGE_LOOP('',(#732,#733,#734));
#732=ORIENTED_EDGE('',*,*,#735,.T.);
#733=ORIENTED_EDGE('',*,*,#736,.T.);
#734=ORIENTED_EDGE('',*,*,#737,.T.);
#735=EDGE_CURVE('',#456,#460,#738,.F.);
#736=EDGE_CURVE('',#460,#462,#739,.T.);
#737=EDGE_CURVE('',#462,#456,#740,.T.);
#738=LINE('',#455,#741);
#739=LINE('',#459,#742);
#740=LINE('',#461,#743);
#741=VECTOR('',#744,1.0);
#742=VECTOR('',#745,1.0);
#743=VECTOR('',#746,1.0);
#744=DIRECTION('',(0.9998986798179703,1.9125738679767996E-09,-0.014234819924395837));
#745=DIRECTION('',(-1,0,0));
#746=DIRECTION('',(0.9731208518938361,-3.094217466330286E-08,0.23029504469139936));
#747=FACE_SURFACE('',(#752),#748,.T.);
#748=PLANE('',#749);
#749=AXIS2_PLACEMENT_3D('',#463,#750,#751);
#750=DIRECTION('',(-1.3010915209503886E-08,0.9999999999999909,1.3311564534048778E-07));
#751=DIRECTION('',(0.968721727566619,-2.042863535409618E-08,0.2481495809795873));
#752=FACE_BOUND('',#753,.T.);
#753=EDGE_LOOP('',(#754,#755,#756));
#754=ORIENTED_EDGE('',*,*,#757,.T.);
#755=ORIENTED_EDGE('',*,*,#758,.T.);
#756=ORIENTED_EDGE('',*,*,#759,.T.);
#757=EDGE_CURVE('',#464,#466,#760,.F.);
#758=EDGE_CURVE('',#466,#468,#761,.T.);
#759=EDGE_CURVE('',#468,#464,#762,.T.);
#760=LINE('',#463,#763);
#761=LINE('',#465,#764);
#762=LINE('',#467,#765);
#763=VECTOR('',#766,1.0);
#764=VECTOR('',#767,1.0);
#765=VECTOR('',#768,1.0);
#766=DIRECTION('',(0.968721727566619,-2.042863535409618E-08,0.2481495809795873));
#767=DIRECTION('',(0.09511674170045822,1.3374967146684527E-07,-0.9954661247115697));
#768=DIRECTION('',(-0.9982885885425773,-5.204063922290784E-09,-0.05847985965842236));
#769=FACE_SURFACE('',(#774),#770,.T.);
#770=PLANE('',#771);
#771=AXIS2_PLACEMENT_3D('',#467,#772,#773);
#772=DIRECTION('',(1.8765675229737457E-09,0.999999999999992,1.2642932771621842E-07));
#773=DIRECTION('',(0,1.2642932771621844E-07,-0.999999999999992));
#774=FACE_BOUND('',#775,.T.);
#775=EDGE_LOOP('',(#776,#777,#778));
#776=ORIENTED_EDGE('',*,*,#779,.T.);
#777=ORIENTED_EDGE('',*,*,#780,.T.);
#778=ORIENTED_EDGE('',*,*,#781,.T.);
#779=EDGE_CURVE('',#468,#456,#782,.F.);
#780=EDGE_CURVE('',#456,#462,#783,.T.);
#781=EDGE_CURVE('',#462,#468,#784,.T.);
#782=LINE('',#467,#785);
#783=LINE('',#455,#786);
#784=LINE('',#461,#787);
#785=VECTOR('',#788,1.0);
#786=VECTOR('',#789,1.0);
#787=VECTOR('',#790,1.0);
#788=DIRECTION('',(0,1.2642932771621844E-07,-0.999999999999992));
#789=DIRECTION('',(-0.9731208518938361,3.094217466330286E-08,-0.23029504469139936));
#790=DIRECTION('',(0.7127719527087851,-9.001457092992802E-08,0.7013958535888969));
#791=FACE_SURFACE('',(#796),#792,.T.);
#792=PLANE('',#793);
#793=AXIS2_PLACEMENT_3D('',#459,#794,#795);
#794=DIRECTION('',(-1.8765675229737408E-09,0.999999999999992,1.2642932771621844E-07));
#795=DIRECTION('',(-0.9731208518938361,-3.094217466330286E-08,0.23029504469139936));
#796=FACE_BOUND('',#797,.T.);
#797=EDGE_LOOP('',(#798,#799,#800));
#798=ORIENTED_EDGE('',*,*,#801,.T.);
#799=ORIENTED_EDGE('',*,*,#802,.T.);
#800=ORIENTED_EDGE('',*,*,#803,.T.);
#801=EDGE_CURVE('',#460,#458,#804,.F.);
#802=EDGE_CURVE('',#458,#470,#805,.T.);
#803=EDGE_CURVE('',#470,#460,#806,.T.);
#804=LINE('',#459,#807);
#805=LINE('',#457,#808);
#806=LINE('',#469,#809);
#807=VECTOR('',#810,1.0);
#808=VECTOR('',#811,1.0);
#809=VECTOR('',#812,1.0);
#810=DIRECTION('',(-0.9731208518938361,-3.094217466330286E-08,0.23029504469139936));
#811=DIRECTION('',(0,-1.2642932771621844E-07,0.999999999999992));
#812=DIRECTION('',(0.7127719527087851,9.001457092992802E-08,-0.7013958535888969));
#813=FACE_SURFACE('',(#818),#814,.T.);
#814=PLANE('',#815);
#815=AXIS2_PLACEMENT_3D('',#469,#816,#817);
#816=DIRECTION('',(1.2331356643151227E-08,0.999999999999991,1.3318057712974867E-07));
#817=DIRECTION('',(0.09511674170045822,-1.3374967146684527E-07,0.9954661247115697));
#818=FACE_BOUND('',#819,.T.);
#819=EDGE_LOOP('',(#820,#821,#822));
#820=ORIENTED_EDGE('',*,*,#823,.T.);
#821=ORIENTED_EDGE('',*,*,#824,.T.);
#822=ORIENTED_EDGE('',*,*,#825,.T.);
#823=EDGE_CURVE('',#470,#472,#826,.F.);
#824=EDGE_CURVE('',#472,#474,#827,.T.);
#825=EDGE_CURVE('',#474,#470,#828,.T.);
#826=LINE('',#469,#829);
#827=LINE('',#471,#830);
#828=LINE('',#473,#831);
#829=VECTOR('',#832,1.0);
#830=VECTOR('',#833,1.0);
#831=VECTOR('',#834,1.0);
#832=DIRECTION('',(0.09511674170045822,-1.3374967146684527E-07,0.9954661247115697));
#833=DIRECTION('',(0.9718393436542059,1.9399161585571233E-08,-0.2356444145863892));
#834=DIRECTION('',(-0.9984631887762748,4.931677162390566E-09,0.05541895577068432));
#835=FACE_SURFACE('',(#840),#836,.T.);
#836=PLANE('',#837);
#837=AXIS2_PLACEMENT_3D('',#459,#838,#839);
#838=DIRECTION('',(1.2783528853233929E-08,0.99999999999999,1.4132719953496585E-07));
#839=DIRECTION('',(-0.7127719527087851,-9.001457092992802E-08,0.7013958535888969));
#840=FACE_BOUND('',#841,.T.);
#841=EDGE_LOOP('',(#842,#843,#844));
#842=ORIENTED_EDGE('',*,*,#845,.T.);
#843=ORIENTED_EDGE('',*,*,#846,.T.);
#844=ORIENTED_EDGE('',*,*,#847,.T.);
#845=EDGE_CURVE('',#460,#470,#848,.F.);
#846=EDGE_CURVE('',#470,#474,#849,.T.);
#847=EDGE_CURVE('',#474,#460,#850,.T.);
#848=LINE('',#459,#851);
#849=LINE('',#469,#852);
#850=LINE('',#473,#853);
#851=VECTOR('',#854,1.0);
#852=VECTOR('',#855,1.0);
#853=VECTOR('',#856,1.0);
#854=DIRECTION('',(-0.7127719527087851,-9.001457092992802E-08,0.7013958535888969));
#855=DIRECTION('',(0.9984631887762748,-4.931677162390566E-09,-0.05541895577068432));
#856=DIRECTION('',(0.478615348000959,1.1797037683850628E-07,-0.8780246856768363));
#857=FACE_SURFACE('',(#862),#858,.T.);
#858=PLANE('',#859);
#859=AXIS2_PLACEMENT_3D('',#463,#860,#861);
#860=DIRECTION('',(-1.3536790860064685E-08,0.9999999999999898,1.4209267886987051E-07));
#861=DIRECTION('',(0.9982885885425773,5.204063922290784E-09,0.05847985965842236));
#862=FACE_BOUND('',#863,.T.);
#863=EDGE_LOOP('',(#864,#865,#866));
#864=ORIENTED_EDGE('',*,*,#867,.T.);
#865=ORIENTED_EDGE('',*,*,#868,.T.);
#866=ORIENTED_EDGE('',*,*,#869,.T.);
#867=EDGE_CURVE('',#464,#468,#870,.F.);
#868=EDGE_CURVE('',#468,#462,#871,.T.);
#869=EDGE_CURVE('',#462,#464,#872,.T.);
#870=LINE('',#463,#873);
#871=LINE('',#467,#874);
#872=LINE('',#461,#875);
#873=VECTOR('',#876,1.0);
#874=VECTOR('',#877,1.0);
#875=VECTOR('',#878,1.0);
#876=DIRECTION('',(0.9982885885425773,5.204063922290784E-09,0.05847985965842236));
#877=DIRECTION('',(-0.7127719527087851,9.001457092992802E-08,-0.7013958535888969));
#878=DIRECTION('',(0.4960679258197012,-1.1666159158423196E-07,0.8682837168650152));
#879=FACE_SURFACE('',(#884),#880,.T.);
#880=PLANE('',#881);
#881=AXIS2_PLACEMENT_3D('',#475,#882,#883);
#882=DIRECTION('',(-1.0861900286024108E-09,0.9999999999999908,1.3497940056036537E-07));
#883=DIRECTION('',(0,1.3497940056036537E-07,-0.9999999999999908));
#884=FACE_BOUND('',#885,.T.);
#885=EDGE_LOOP('',(#886,#887,#888));
#886=ORIENTED_EDGE('',*,*,#889,.T.);
#887=ORIENTED_EDGE('',*,*,#890,.T.);
#888=ORIENTED_EDGE('',*,*,#891,.T.);
#889=EDGE_CURVE('',#476,#464,#892,.F.);
#890=EDGE_CURVE('',#464,#462,#893,.T.);
#891=EDGE_CURVE('',#462,#476,#894,.T.);
#892=LINE('',#475,#895);
#893=LINE('',#463,#896);
#894=LINE('',#461,#897);
#895=VECTOR('',#898,1.0);
#896=VECTOR('',#899,1.0);
#897=VECTOR('',#900,1.0);
#898=DIRECTION('',(0,1.3497940056036537E-07,-0.9999999999999908));
#899=DIRECTION('',(-0.4960679258197012,1.1666159158423196E-07,-0.8682837168650152));
#900=DIRECTION('',(0.05199148289216884,-1.3474037210579963E-07,0.9986475282634285));
#901=FACE_SURFACE('',(#906),#902,.T.);
#902=PLANE('',#903);
#903=AXIS2_PLACEMENT_3D('',#477,#904,#905);
#904=DIRECTION('',(-6.94885282069562E-18,0.999999999999991,1.34358838378491E-07));
#905=DIRECTION('',(0,1.34358838378491E-07,-0.9999999999999909));
#906=FACE_BOUND('',#907,.T.);
#907=EDGE_LOOP('',(#908,#909,#910));
#908=ORIENTED_EDGE('',*,*,#911,.T.);
#909=ORIENTED_EDGE('',*,*,#912,.T.);
#910=ORIENTED_EDGE('',*,*,#913,.T.);
#911=EDGE_CURVE('',#478,#460,#914,.F.);
#912=EDGE_CURVE('',#460,#474,#915,.T.);
#913=EDGE_CURVE('',#474,#478,#916,.T.);
#914=LINE('',#477,#917);
#915=LINE('',#459,#918);
#916=LINE('',#473,#919);
#917=VECTOR('',#920,1.0);
#918=VECTOR('',#921,1.0);
#919=VECTOR('',#922,1.0);
#920=DIRECTION('',(0,1.34358838378491E-07,-0.9999999999999909));
#921=DIRECTION('',(-0.478615348000959,-1.1797037683850628E-07,0.8780246856768363));
#922=DIRECTION('',(0.050227470970701654,-1.3418925119119828E-07,0.9987378040105768));
#923=FACE_SURFACE('',(#928),#924,.T.);
#924=PLANE('',#925);
#925=AXIS2_PLACEMENT_3D('',#477,#926,#927);
#926=DIRECTION('',(-1.2339440930398455E-08,0.9999999999999908,1.3497940056036534E-07));
#927=DIRECTION('',(-0.050227470970701654,1.3418925119119828E-07,-0.9987378040105768));
#928=FACE_BOUND('',#929,.T.);
#929=EDGE_LOOP('',(#930,#931,#932));
#930=ORIENTED_EDGE('',*,*,#933,.T.);
#931=ORIENTED_EDGE('',*,*,#934,.T.);
#932=ORIENTED_EDGE('',*,*,#935,.T.);
#933=EDGE_CURVE('',#478,#474,#936,.F.);
#934=EDGE_CURVE('',#474,#480,#937,.T.);
#935=EDGE_CURVE('',#480,#478,#938,.T.);
#936=LINE('',#477,#939);
#937=LINE('',#473,#940);
#938=LINE('',#479,#941);
#939=VECTOR('',#942,1.0);
#940=VECTOR('',#943,1.0);
#941=VECTOR('',#944,1.0);
#942=DIRECTION('',(-0.050227470970701654,1.3418925119119828E-07,-0.9987378040105768));
#943=DIRECTION('',(0,-1.3497940056036537E-07,0.9999999999999908));
#944=DIRECTION('',(0.5330759017637231,-1.0762381488501681E-07,0.84606742222992));
#945=FACE_SURFACE('',(#950),#946,.T.);
#946=PLANE('',#947);
#947=AXIS2_PLACEMENT_3D('',#475,#948,#949);
#948=DIRECTION('',(1.08335101720621E-08,0.9999999999999909,1.3435883837849097E-07));
#949=DIRECTION('',(-0.05199148289216884,1.3474037210579963E-07,-0.9986475282634285));
#950=FACE_BOUND('',#951,.T.);
#951=EDGE_LOOP('',(#952,#953,#954));
#952=ORIENTED_EDGE('',*,*,#955,.T.);
#953=ORIENTED_EDGE('',*,*,#956,.T.);
#954=ORIENTED_EDGE('',*,*,#957,.T.);
#955=EDGE_CURVE('',#476,#462,#958,.F.);
#956=EDGE_CURVE('',#462,#482,#959,.T.);
#957=EDGE_CURVE('',#482,#476,#960,.T.);
#958=LINE('',#475,#961);
#959=LINE('',#461,#962);
#960=LINE('',#481,#963);
#961=VECTOR('',#964,1.0);
#962=VECTOR('',#965,1.0);
#963=VECTOR('',#966,1.0);
#964=DIRECTION('',(-0.05199148289216884,1.3474037210579963E-07,-0.9986475282634285));
#965=DIRECTION('',(0,-1.34358838378491E-07,0.9999999999999909));
#966=DIRECTION('',(0.5510540235095448,1.0614851271174761E-07,-0.8344695699508345));
#967=FACE_SURFACE('',(#972),#968,.T.);
#968=PLANE('',#969);
#969=AXIS2_PLACEMENT_3D('',#477,#970,#971);
#970=DIRECTION('',(0,0.9999999999999918,1.2720477358809E-07));
#971=DIRECTION('',(-0.5330759017637231,1.0762381488501681E-07,-0.84606742222992));
#972=FACE_BOUND('',#973,.T.);
#973=EDGE_LOOP('',(#974,#975,#976));
#974=ORIENTED_EDGE('',*,*,#977,.T.);
#975=ORIENTED_EDGE('',*,*,#978,.T.);
#976=ORIENTED_EDGE('',*,*,#979,.T.);
#977=EDGE_CURVE('',#478,#480,#980,.F.);
#978=EDGE_CURVE('',#480,#476,#981,.T.);
#979=EDGE_CURVE('',#476,#478,#982,.T.);
#980=LINE('',#477,#983);
#981=LINE('',#479,#984);
#982=LINE('',#475,#985);
#983=VECTOR('',#986,1.0);
#984=VECTOR('',#987,1.0);
#985=VECTOR('',#988,1.0);
#986=DIRECTION('',(-0.5330759017637231,1.0762381488501681E-07,-0.84606742222992));
#987=DIRECTION('',(-1,0,0));
#988=DIRECTION('',(0.9988254162980235,-6.163577003037333E-09,0.04845397565814598));
#989=FACE_SURFACE('',(#994),#990,.T.);
#990=PLANE('',#991);
#991=AXIS2_PLACEMENT_3D('',#481,#992,#993);
#992=DIRECTION('',(-0,0.9999999999999919,1.2720477358809003E-07));
#993=DIRECTION('',(1,0,0));
#994=FACE_BOUND('',#995,.T.);
#995=EDGE_LOOP('',(#996,#997,#998));
#996=ORIENTED_EDGE('',*,*,#999,.T.);
#997=ORIENTED_EDGE('',*,*,#1000,.T.);
#998=ORIENTED_EDGE('',*,*,#1001,.T.);
#999=EDGE_CURVE('',#482,#478,#1002,.F.);
#1000=EDGE_CURVE('',#478,#476,#1003,.T.);
#1001=EDGE_CURVE('',#476,#482,#1004,.T.);
#1002=LINE('',#481,#1005);
#1003=LINE('',#477,#1006);
#1004=LINE('',#475,#1007);
#1005=VECTOR('',#1008,1.0);
#1006=VECTOR('',#1009,1.0);
#1007=VECTOR('',#1010,1.0);
#1008=DIRECTION('',(1,0,0));
#1009=DIRECTION('',(-0.9988254162980235,6.163577003037333E-09,-0.04845397565814598));
#1010=DIRECTION('',(-0.5510540235095448,-1.0614851271174761E-07,0.8344695699508345));
#1011=FACE_SURFACE('',(#1016),#1012,.T.);
#1012=PLANE('',#1013);
#1013=AXIS2_PLACEMENT_3D('',#469,#1014,#1015);
#1014=DIRECTION('',(0,0.999999999999991,1.3435883768078718E-07));
#1015=DIRECTION('',(-1,0,0));
#1016=FACE_BOUND('',#1017,.T.);
#1017=EDGE_LOOP('',(#1018,#1019,#1020));
#1018=ORIENTED_EDGE('',*,*,#1021,.T.);
#1019=ORIENTED_EDGE('',*,*,#1022,.T.);
#1020=ORIENTED_EDGE('',*,*,#1023,.T.);
#1021=EDGE_CURVE('',#470,#468,#1024,.F.);
#1022=EDGE_CURVE('',#468,#466,#1025,.T.);
#1023=EDGE_CURVE('',#466,#470,#1026,.T.);
#1024=LINE('',#469,#1027);
#1025=LINE('',#467,#1028);
#1026=LINE('',#465,#1029);
#1027=VECTOR('',#1030,1.0);
#1028=VECTOR('',#1031,1.0);
#1029=VECTOR('',#1032,1.0);
#1030=DIRECTION('',(-1,0,0));
#1031=DIRECTION('',(-0.09511674170045822,-1.3374967146684527E-07,0.9954661247115697));
#1032=DIRECTION('',(0.9999843848422901,7.508492097757029E-10,-0.005588387207989853));
#1033=FACE_SURFACE('',(#1038),#1034,.T.);
#1034=PLANE('',#1035);
#1035=AXIS2_PLACEMENT_3D('',#469,#1036,#1037);
#1036=DIRECTION('',(0,0.999999999999991,1.3435883768078718E-07));
#1037=DIRECTION('',(-0.9999843848422901,-7.508492097757029E-10,0.005588387207989853));
#1038=FACE_BOUND('',#1039,.T.);
#1039=EDGE_LOOP('',(#1040,#1041,#1042));
#1040=ORIENTED_EDGE('',*,*,#1043,.T.);
#1041=ORIENTED_EDGE('',*,*,#1044,.T.);
#1042=ORIENTED_EDGE('',*,*,#1045,.T.);
#1043=EDGE_CURVE('',#470,#466,#1046,.F.);
#1044=EDGE_CURVE('',#466,#472,#1047,.T.);
#1045=EDGE_CURVE('',#472,#470,#1048,.T.);
#1046=LINE('',#469,#1049);
#1047=LINE('',#465,#1050);
#1048=LINE('',#471,#1051);
#1049=VECTOR('',#1052,1.0);
#1050=VECTOR('',#1053,1.0);
#1051=VECTOR('',#1054,1.0);
#1052=DIRECTION('',(-0.9999843848422901,-7.508492097757029E-10,0.005588387207989853));
#1053=DIRECTION('',(1,0,0));
#1054=DIRECTION('',(-0.09511674170045822,1.3374967146684527E-07,-0.9954661247115697));
ENDSEC;
END-ISO-10303-21;
