ISO-10303-21;
HEADER;
FILE_DESCRIPTION((''),'2;1');
FILE_NAME('adapter mount', '2026-10-07T13:42:33', (''), (''), 'ImageToStl.com STEP Converter','', '');
FILE_SCHEMA(('AUTOMOTIVE_DESIGN_CC2'));
ENDSEC;
DATA;
#1=PRODUCT_DEFINITION_CONTEXT('',#4,'design');
#2=APPLICATION_PROTOCOL_DEFINITION('INTERNATIONAL STANDARD','automotive_design',1994,#4);
#3=(GEOMETRIC_REPRESENTATION_CONTEXT(3)GLOBAL_UNCERTAINTY_ASSIGNED_CONTEXT((#5))GLOBAL_UNIT_ASSIGNED_CONTEXT((#6,#7,#8))REPRESENTATION_CONTEXT('NONE','WORKSPACE'));
#4=APPLICATION_CONTEXT(' ');
#5=UNCERTAINTY_MEASURE_WITH_UNIT(LENGTH_MEASURE(1.0E-006),#6,'','');
#6=(CONVERSION_BASED_UNIT('METRE',#10)LENGTH_UNIT()NAMED_UNIT(#11));
#7=(NAMED_UNIT(#12)PLANE_ANGLE_UNIT()SI_UNIT($,.RADIAN.));
#8=(NAMED_UNIT(#12)SOLID_ANGLE_UNIT()SI_UNIT($,.STERADIAN.));
#9=AXIS2_PLACEMENT_3D('',#14,#15,#16);
#10=LENGTH_MEASURE_WITH_UNIT(LENGTH_MEASURE(1.0),#17);
#11=DIMENSIONAL_EXPONENTS(1.0,0.0,0.0,0.0,0.0,0.0,0.0);
#12=DIMENSIONAL_EXPONENTS(0.0,0.0,0.0,0.0,0.0,0.0,0.0);
#13=PRODUCT_CONTEXT('',#4,'mechanical');
#14=CARTESIAN_POINT('',(0.0,0.0,0.0));
#15=DIRECTION('',(0.0,0.0,1.0));
#16=DIRECTION('',(1.0,0.0,0.0));
#17=(NAMED_UNIT(#11)LENGTH_UNIT()SI_UNIT(.MILLI.,.METRE.));
#18=PRESENTATION_STYLE_ASSIGNMENT((#19));
#19=SURFACE_STYLE_USAGE(.BOTH.,#20);
#20=SURFACE_SIDE_STYLE('',(#21));
#21=SURFACE_STYLE_FILL_AREA(#22);
#22=FILL_AREA_STYLE('',(#23));
#23=FILL_AREA_STYLE_COLOUR('',#24);
#24=COLOUR_RGB('',0,0,0);
#25=SHAPE_DEFINITION_REPRESENTATION(#26,#27);
#26=PRODUCT_DEFINITION_SHAPE('productshape0','',#30);
#27=MANIFOLD_SURFACE_SHAPE_REPRESENTATION('',(#28,#9),#3);
#28=SHELL_BASED_SURFACE_MODEL('shell0',(#33));
#29=PRODUCT('product0','','',(#13));
#30=PRODUCT_DEFINITION('mesh0','',#31,#2);
#31=PRODUCT_DEFINITION_FORMATION_WITH_SPECIFIED_SOURCE('prodsource0','',#29,.NOT_KNOWN.);
#32=STYLED_ITEM('',(#18),#33);
#33=CLOSED_SHELL('',(#110,#132,#154,#176,#198,#220,#242,#264,#286,#308,#330,#352,#374,#396,#418,#440,#462,#484,#506,#528,#550,#572,#594,#616,#638,#660,#682,#704,#726,#748,#770,#792));
#34=CARTESIAN_POINT('',(-40.720224913483435,-45.55137976807674,250.72178760413527));
#35=VERTEX_POINT('',#34);
#36=CARTESIAN_POINT('',(-42.26830533003431,-44.61334908273197,250.72178811066308));
#37=VERTEX_POINT('',#36);
#38=CARTESIAN_POINT('',(-42.26830533003431,-44.613323601063854,203.5326984798491));
#39=VERTEX_POINT('',#38);
#40=CARTESIAN_POINT('',(-40.720224913483435,-45.551354286408625,203.5326979733213));
#41=VERTEX_POINT('',#40);
#42=CARTESIAN_POINT('',(46.645875005479866,-44.613323601063854,203.5326984798491));
#43=VERTEX_POINT('',#42);
#44=CARTESIAN_POINT('',(44.492517130393935,-45.551354286408625,203.5326979733213));
#45=VERTEX_POINT('',#44);
#46=CARTESIAN_POINT('',(46.645875005479866,-44.61334908273197,250.72178811066308));
#47=VERTEX_POINT('',#46);
#48=CARTESIAN_POINT('',(44.492517130393935,-45.55137976807674,250.72178760413527));
#49=VERTEX_POINT('',#48);
#50=CARTESIAN_POINT('',(-42.26830533003431,-44.61334908273197,250.72178811066308));
#51=VERTEX_POINT('',#50);
#52=CARTESIAN_POINT('',(-40.720224913483435,-45.55137976807674,250.72178760413527));
#53=VERTEX_POINT('',#52);
#54=CARTESIAN_POINT('',(-40.720224913483435,-45.551354286408625,203.5326979733213));
#55=VERTEX_POINT('',#54);
#56=CARTESIAN_POINT('',(-40.720224913483435,-45.55137976807674,250.72178760413527));
#57=VERTEX_POINT('',#56);
#58=CARTESIAN_POINT('',(-42.26830533003431,-44.613323601063854,203.5326984798491));
#59=VERTEX_POINT('',#58);
#60=CARTESIAN_POINT('',(-42.26830533003431,-44.61334908273197,250.72178811066308));
#61=VERTEX_POINT('',#60);
#62=CARTESIAN_POINT('',(46.645875005479866,-49.416814407476224,250.72178551683663));
#63=VERTEX_POINT('',#62);
#64=CARTESIAN_POINT('',(46.645875005479866,-49.416788925808106,203.53269588602265));
#65=VERTEX_POINT('',#64);
#66=CARTESIAN_POINT('',(44.492517130393935,-49.41586630023151,250.7217855173486));
#67=VERTEX_POINT('',#66);
#68=CARTESIAN_POINT('',(44.492517130393935,-49.41584081856339,203.5326958865346));
#69=VERTEX_POINT('',#68);
#70=CARTESIAN_POINT('',(46.645875005479866,-49.416814407476224,250.72178551683663));
#71=VERTEX_POINT('',#70);
#72=CARTESIAN_POINT('',(46.645875005479866,-44.61334908273197,250.72178811066308));
#73=VERTEX_POINT('',#72);
#74=CARTESIAN_POINT('',(44.492517130393935,-45.55137976807674,250.72178760413527));
#75=VERTEX_POINT('',#74);
#76=CARTESIAN_POINT('',(44.492517130393935,-49.41586630023151,250.7217855173486));
#77=VERTEX_POINT('',#76);
#78=CARTESIAN_POINT('',(46.645875005479866,-49.416788925808106,203.53269588602265));
#79=VERTEX_POINT('',#78);
#80=CARTESIAN_POINT('',(46.645875005479866,-44.613323601063854,203.5326984798491));
#81=VERTEX_POINT('',#80);
#82=CARTESIAN_POINT('',(44.492517130393935,-45.551354286408625,203.5326979733213));
#83=VERTEX_POINT('',#82);
#84=CARTESIAN_POINT('',(44.492517130393935,-49.41584081856339,203.5326958865346));
#85=VERTEX_POINT('',#84);
#86=CARTESIAN_POINT('',(-40.720224913483435,-49.40968482420509,250.72178552068655));
#87=VERTEX_POINT('',#86);
#88=CARTESIAN_POINT('',(-40.720224913483435,-49.409659342536976,203.53269588987254));
#89=VERTEX_POINT('',#88);
#90=CARTESIAN_POINT('',(-42.26830533003431,-49.42037799265332,203.53269588408457));
#91=VERTEX_POINT('',#90);
#92=CARTESIAN_POINT('',(-42.26830533003431,-49.42040347432143,250.72178551489856));
#93=VERTEX_POINT('',#92);
#94=CARTESIAN_POINT('',(-40.720224913483435,-49.40968482420509,250.72178552068655));
#95=VERTEX_POINT('',#94);
#96=CARTESIAN_POINT('',(-40.720224913483435,-45.55137976807674,250.72178760413527));
#97=VERTEX_POINT('',#96);
#98=CARTESIAN_POINT('',(-42.26830533003431,-44.61334908273197,250.72178811066308));
#99=VERTEX_POINT('',#98);
#100=CARTESIAN_POINT('',(-42.26830533003431,-49.42040347432143,250.72178551489856));
#101=VERTEX_POINT('',#100);
#102=CARTESIAN_POINT('',(-42.26830533003431,-49.42037799265332,203.53269588408457));
#103=VERTEX_POINT('',#102);
#104=CARTESIAN_POINT('',(-42.26830533003431,-44.613323601063854,203.5326984798491));
#105=VERTEX_POINT('',#104);
#106=CARTESIAN_POINT('',(-40.720224913483435,-45.551354286408625,203.5326979733213));
#107=VERTEX_POINT('',#106);
#108=CARTESIAN_POINT('',(-40.720224913483435,-49.409659342536976,203.53269588987254));
#109=VERTEX_POINT('',#108);
#110=FACE_SURFACE('',(#115),#111,.T.);
#111=PLANE('',#112);
#112=AXIS2_PLACEMENT_3D('',#34,#113,#114);
#113=DIRECTION('',(-0.5182209569964875,-0.8552467712475922,-4.618252768632434E-07));
#114=DIRECTION('',(-0.855246771247717,0.518220956996412,2.798344781494296E-07));
#115=FACE_BOUND('',#116,.T.);
#116=EDGE_LOOP('',(#117,#118,#119));
#117=ORIENTED_EDGE('',*,*,#120,.T.);
#118=ORIENTED_EDGE('',*,*,#121,.T.);
#119=ORIENTED_EDGE('',*,*,#122,.T.);
#120=EDGE_CURVE('',#35,#37,#123,.F.);
#121=EDGE_CURVE('',#37,#39,#124,.T.);
#122=EDGE_CURVE('',#39,#35,#125,.T.);
#123=LINE('',#34,#126);
#124=LINE('',#36,#127);
#125=LINE('',#38,#128);
#126=VECTOR('',#129,1.0);
#127=VECTOR('',#130,1.0);
#128=VECTOR('',#131,1.0);
#129=DIRECTION('',(-0.855246771247717,0.518220956996412,2.798344781494296E-07));
#130=DIRECTION('',(0,5.399906698164869E-07,-0.9999999999998542));
#131=DIRECTION('',(0.032781788902063624,-0.019864058040220598,0.9992651167305678));
#132=FACE_SURFACE('',(#137),#133,.T.);
#133=PLANE('',#134);
#134=AXIS2_PLACEMENT_3D('',#34,#135,#136);
#135=DIRECTION('',(-0.5182209569964875,-0.8552467712475922,-4.618252768644423E-07));
#136=DIRECTION('',(-0.032781788902063624,0.019864058040220598,-0.9992651167305678));
#137=FACE_BOUND('',#138,.T.);
#138=EDGE_LOOP('',(#139,#140,#141));
#139=ORIENTED_EDGE('',*,*,#142,.T.);
#140=ORIENTED_EDGE('',*,*,#143,.T.);
#141=ORIENTED_EDGE('',*,*,#144,.T.);
#142=EDGE_CURVE('',#35,#39,#145,.F.);
#143=EDGE_CURVE('',#39,#41,#146,.T.);
#144=EDGE_CURVE('',#41,#35,#147,.T.);
#145=LINE('',#34,#148);
#146=LINE('',#38,#149);
#147=LINE('',#40,#150);
#148=VECTOR('',#151,1.0);
#149=VECTOR('',#152,1.0);
#150=VECTOR('',#153,1.0);
#151=DIRECTION('',(-0.032781788902063624,0.019864058040220598,-0.9992651167305678));
#152=DIRECTION('',(0.855246771247717,-0.518220956996412,-2.798344781494296E-07));
#153=DIRECTION('',(0,-5.399906698164869E-07,0.9999999999998542));
#154=FACE_SURFACE('',(#159),#155,.T.);
#155=PLANE('',#156);
#156=AXIS2_PLACEMENT_3D('',#40,#157,#158);
#157=DIRECTION('',(0,5.399906630007754E-07,-0.9999999999998543));
#158=DIRECTION('',(-0.855246771247717,0.518220956996412,2.798344781494296E-07));
#159=FACE_BOUND('',#160,.T.);
#160=EDGE_LOOP('',(#161,#162,#163));
#161=ORIENTED_EDGE('',*,*,#164,.T.);
#162=ORIENTED_EDGE('',*,*,#165,.T.);
#163=ORIENTED_EDGE('',*,*,#166,.T.);
#164=EDGE_CURVE('',#41,#39,#167,.F.);
#165=EDGE_CURVE('',#39,#43,#168,.T.);
#166=EDGE_CURVE('',#43,#41,#169,.T.);
#167=LINE('',#40,#170);
#168=LINE('',#38,#171);
#169=LINE('',#42,#172);
#170=VECTOR('',#173,1.0);
#171=VECTOR('',#174,1.0);
#172=VECTOR('',#175,1.0);
#173=DIRECTION('',(-0.855246771247717,0.518220956996412,2.798344781494296E-07));
#174=DIRECTION('',(1,0,0));
#175=DIRECTION('',(-0.9999423657493687,-0.010736162235915015,-5.797427363856481E-09));
#176=FACE_SURFACE('',(#181),#177,.T.);
#177=PLANE('',#178);
#178=AXIS2_PLACEMENT_3D('',#40,#179,#180);
#179=DIRECTION('',(0,5.399906630007755E-07,-0.9999999999998542));
#180=DIRECTION('',(0.9999423657493687,0.010736162235915015,5.797427363856481E-09));
#181=FACE_BOUND('',#182,.T.);
#182=EDGE_LOOP('',(#183,#184,#185));
#183=ORIENTED_EDGE('',*,*,#186,.T.);
#184=ORIENTED_EDGE('',*,*,#187,.T.);
#185=ORIENTED_EDGE('',*,*,#188,.T.);
#186=EDGE_CURVE('',#41,#43,#189,.F.);
#187=EDGE_CURVE('',#43,#45,#190,.T.);
#188=EDGE_CURVE('',#45,#41,#191,.T.);
#189=LINE('',#40,#192);
#190=LINE('',#42,#193);
#191=LINE('',#44,#194);
#192=VECTOR('',#195,1.0);
#193=VECTOR('',#196,1.0);
#194=VECTOR('',#197,1.0);
#195=DIRECTION('',(0.9999423657493687,0.010736162235915015,5.797427363856481E-09));
#196=DIRECTION('',(-0.9167914573468213,-0.39936627766480853,-2.1565406105640317E-07));
#197=DIRECTION('',(-1,0,0));
#198=FACE_SURFACE('',(#203),#199,.T.);
#199=PLANE('',#200);
#200=AXIS2_PLACEMENT_3D('',#44,#201,#202);
#201=DIRECTION('',(0.39936627766486676,-0.9167914573466878,-4.950588331331611E-07));
#202=DIRECTION('',(0.9167914573468213,0.39936627766480853,2.1565406105640317E-07));
#203=FACE_BOUND('',#204,.T.);
#204=EDGE_LOOP('',(#205,#206,#207));
#205=ORIENTED_EDGE('',*,*,#208,.T.);
#206=ORIENTED_EDGE('',*,*,#209,.T.);
#207=ORIENTED_EDGE('',*,*,#210,.T.);
#208=EDGE_CURVE('',#45,#43,#211,.F.);
#209=EDGE_CURVE('',#43,#47,#212,.T.);
#210=EDGE_CURVE('',#47,#45,#213,.T.);
#211=LINE('',#44,#214);
#212=LINE('',#42,#215);
#213=LINE('',#46,#216);
#214=VECTOR('',#217,1.0);
#215=VECTOR('',#218,1.0);
#216=VECTOR('',#219,1.0);
#217=DIRECTION('',(0.9167914573468213,0.39936627766480853,2.1565406105640317E-07));
#218=DIRECTION('',(0,-5.399906698164869E-07,0.9999999999998542));
#219=DIRECTION('',(-0.0455761151592126,-0.019853008957464547,-0.9987635735059268));
#220=FACE_SURFACE('',(#225),#221,.T.);
#221=PLANE('',#222);
#222=AXIS2_PLACEMENT_3D('',#44,#223,#224);
#223=DIRECTION('',(0.39936627766486676,-0.9167914573466878,-4.950588331347432E-07));
#224=DIRECTION('',(0.0455761151592126,0.019853008957464547,0.9987635735059268));
#225=FACE_BOUND('',#226,.T.);
#226=EDGE_LOOP('',(#227,#228,#229));
#227=ORIENTED_EDGE('',*,*,#230,.T.);
#228=ORIENTED_EDGE('',*,*,#231,.T.);
#229=ORIENTED_EDGE('',*,*,#232,.T.);
#230=EDGE_CURVE('',#45,#47,#233,.F.);
#231=EDGE_CURVE('',#47,#49,#234,.T.);
#232=EDGE_CURVE('',#49,#45,#235,.T.);
#233=LINE('',#44,#236);
#234=LINE('',#46,#237);
#235=LINE('',#48,#238);
#236=VECTOR('',#239,1.0);
#237=VECTOR('',#240,1.0);
#238=VECTOR('',#241,1.0);
#239=DIRECTION('',(0.0455761151592126,0.019853008957464547,0.9987635735059268));
#240=DIRECTION('',(-0.9167914573468213,-0.39936627766480853,-2.1565406105640317E-07));
#241=DIRECTION('',(0,5.399906698164869E-07,-0.9999999999998542));
#242=FACE_SURFACE('',(#247),#243,.T.);
#243=PLANE('',#244);
#244=AXIS2_PLACEMENT_3D('',#48,#245,#246);
#245=DIRECTION('',(0,-5.399906630007754E-07,0.9999999999998543));
#246=DIRECTION('',(0.9167914573468213,0.39936627766480853,2.1565406105640317E-07));
#247=FACE_BOUND('',#248,.T.);
#248=EDGE_LOOP('',(#249,#250,#251));
#249=ORIENTED_EDGE('',*,*,#252,.T.);
#250=ORIENTED_EDGE('',*,*,#253,.T.);
#251=ORIENTED_EDGE('',*,*,#254,.T.);
#252=EDGE_CURVE('',#49,#47,#255,.F.);
#253=EDGE_CURVE('',#47,#51,#256,.T.);
#254=EDGE_CURVE('',#51,#49,#257,.T.);
#255=LINE('',#48,#258);
#256=LINE('',#46,#259);
#257=LINE('',#50,#260);
#258=VECTOR('',#261,1.0);
#259=VECTOR('',#262,1.0);
#260=VECTOR('',#263,1.0);
#261=DIRECTION('',(0.9167914573468213,0.39936627766480853,2.1565406105640317E-07));
#262=DIRECTION('',(-1,0,0));
#263=DIRECTION('',(0.9999415588568612,-0.010811053182293565,-5.837867775644196E-09));
#264=FACE_SURFACE('',(#269),#265,.T.);
#265=PLANE('',#266);
#266=AXIS2_PLACEMENT_3D('',#48,#267,#268);
#267=DIRECTION('',(0,-5.399906630007755E-07,0.9999999999998542));
#268=DIRECTION('',(-0.9999415588568612,0.010811053182293565,5.837867775644196E-09));
#269=FACE_BOUND('',#270,.T.);
#270=EDGE_LOOP('',(#271,#272,#273));
#271=ORIENTED_EDGE('',*,*,#274,.T.);
#272=ORIENTED_EDGE('',*,*,#275,.T.);
#273=ORIENTED_EDGE('',*,*,#276,.T.);
#274=EDGE_CURVE('',#49,#51,#277,.F.);
#275=EDGE_CURVE('',#51,#53,#278,.T.);
#276=EDGE_CURVE('',#53,#49,#279,.T.);
#277=LINE('',#48,#280);
#278=LINE('',#50,#281);
#279=LINE('',#52,#282);
#280=VECTOR('',#283,1.0);
#281=VECTOR('',#284,1.0);
#282=VECTOR('',#285,1.0);
#283=DIRECTION('',(-0.9999415588568612,0.010811053182293565,5.837867775644196E-09));
#284=DIRECTION('',(0.855246771247717,-0.518220956996412,-2.798344781494296E-07));
#285=DIRECTION('',(1,0,0));
#286=FACE_SURFACE('',(#291),#287,.T.);
#287=PLANE('',#288);
#288=AXIS2_PLACEMENT_3D('',#54,#289,#290);
#289=DIRECTION('',(0,-0.9999999999998542,-5.399906698164868E-07));
#290=DIRECTION('',(1,0,0));
#291=FACE_BOUND('',#292,.T.);
#292=EDGE_LOOP('',(#293,#294,#295));
#293=ORIENTED_EDGE('',*,*,#296,.T.);
#294=ORIENTED_EDGE('',*,*,#297,.T.);
#295=ORIENTED_EDGE('',*,*,#298,.T.);
#296=EDGE_CURVE('',#55,#45,#299,.F.);
#297=EDGE_CURVE('',#45,#49,#300,.T.);
#298=EDGE_CURVE('',#49,#55,#301,.T.);
#299=LINE('',#54,#302);
#300=LINE('',#44,#303);
#301=LINE('',#48,#304);
#302=VECTOR('',#305,1.0);
#303=VECTOR('',#306,1.0);
#304=VECTOR('',#307,1.0);
#305=DIRECTION('',(1,0,0));
#306=DIRECTION('',(0,-5.399906698164869E-07,0.9999999999998542));
#307=DIRECTION('',(-0.8748159819855483,2.6160137536243944E-07,-0.4844553618885772));
#308=FACE_SURFACE('',(#313),#309,.T.);
#309=PLANE('',#310);
#310=AXIS2_PLACEMENT_3D('',#54,#311,#312);
#311=DIRECTION('',(0,-0.9999999999998542,-5.399906698164868E-07));
#312=DIRECTION('',(0.8748159819855483,-2.6160137536243944E-07,0.4844553618885772));
#313=FACE_BOUND('',#314,.T.);
#314=EDGE_LOOP('',(#315,#316,#317));
#315=ORIENTED_EDGE('',*,*,#318,.T.);
#316=ORIENTED_EDGE('',*,*,#319,.T.);
#317=ORIENTED_EDGE('',*,*,#320,.T.);
#318=EDGE_CURVE('',#55,#49,#321,.F.);
#319=EDGE_CURVE('',#49,#57,#322,.T.);
#320=EDGE_CURVE('',#57,#55,#323,.T.);
#321=LINE('',#54,#324);
#322=LINE('',#48,#325);
#323=LINE('',#56,#326);
#324=VECTOR('',#327,1.0);
#325=VECTOR('',#328,1.0);
#326=VECTOR('',#329,1.0);
#327=DIRECTION('',(0.8748159819855483,-2.6160137536243944E-07,0.4844553618885772));
#328=DIRECTION('',(-1,0,0));
#329=DIRECTION('',(0,5.399906698164869E-07,-0.9999999999998542));
#330=FACE_SURFACE('',(#335),#331,.T.);
#331=PLANE('',#332);
#332=AXIS2_PLACEMENT_3D('',#42,#333,#334);
#333=DIRECTION('',(0,0.9999999999998541,5.399906698164868E-07));
#334=DIRECTION('',(-1,0,0));
#335=FACE_BOUND('',#336,.T.);
#336=EDGE_LOOP('',(#337,#338,#339));
#337=ORIENTED_EDGE('',*,*,#340,.T.);
#338=ORIENTED_EDGE('',*,*,#341,.T.);
#339=ORIENTED_EDGE('',*,*,#342,.T.);
#340=EDGE_CURVE('',#43,#59,#343,.F.);
#341=EDGE_CURVE('',#59,#61,#344,.T.);
#342=EDGE_CURVE('',#61,#43,#345,.T.);
#343=LINE('',#42,#346);
#344=LINE('',#58,#347);
#345=LINE('',#60,#348);
#346=VECTOR('',#349,1.0);
#347=VECTOR('',#350,1.0);
#348=VECTOR('',#351,1.0);
#349=DIRECTION('',(-1,0,0));
#350=DIRECTION('',(0,-5.399906698164869E-07,0.9999999999998542));
#351=DIRECTION('',(0.883307322236261,2.5314459343035355E-07,-0.46879438401472123));
#352=FACE_SURFACE('',(#357),#353,.T.);
#353=PLANE('',#354);
#354=AXIS2_PLACEMENT_3D('',#42,#355,#356);
#355=DIRECTION('',(0,0.9999999999998541,5.399906698164868E-07));
#356=DIRECTION('',(-0.883307322236261,-2.5314459343035355E-07,0.46879438401472123));
#357=FACE_BOUND('',#358,.T.);
#358=EDGE_LOOP('',(#359,#360,#361));
#359=ORIENTED_EDGE('',*,*,#362,.T.);
#360=ORIENTED_EDGE('',*,*,#363,.T.);
#361=ORIENTED_EDGE('',*,*,#364,.T.);
#362=EDGE_CURVE('',#43,#61,#365,.F.);
#363=EDGE_CURVE('',#61,#47,#366,.T.);
#364=EDGE_CURVE('',#47,#43,#367,.T.);
#365=LINE('',#42,#368);
#366=LINE('',#60,#369);
#367=LINE('',#46,#370);
#368=VECTOR('',#371,1.0);
#369=VECTOR('',#372,1.0);
#370=VECTOR('',#373,1.0);
#371=DIRECTION('',(-0.883307322236261,-2.5314459343035355E-07,0.46879438401472123));
#372=DIRECTION('',(1,0,0));
#373=DIRECTION('',(0,5.399906698164869E-07,-0.9999999999998542));
#374=FACE_SURFACE('',(#379),#375,.T.);
#375=PLANE('',#376);
#376=AXIS2_PLACEMENT_3D('',#42,#377,#378);
#377=DIRECTION('',(1,0,0));
#378=DIRECTION('',(0,-5.399906698164869E-07,0.9999999999998542));
#379=FACE_BOUND('',#380,.T.);
#380=EDGE_LOOP('',(#381,#382,#383));
#381=ORIENTED_EDGE('',*,*,#384,.T.);
#382=ORIENTED_EDGE('',*,*,#385,.T.);
#383=ORIENTED_EDGE('',*,*,#386,.T.);
#384=EDGE_CURVE('',#43,#47,#387,.F.);
#385=EDGE_CURVE('',#47,#63,#388,.T.);
#386=EDGE_CURVE('',#63,#43,#389,.T.);
#387=LINE('',#42,#390);
#388=LINE('',#46,#391);
#389=LINE('',#62,#392);
#390=VECTOR('',#393,1.0);
#391=VECTOR('',#394,1.0);
#392=VECTOR('',#395,1.0);
#393=DIRECTION('',(0,-5.399906698164869E-07,0.9999999999998542));
#394=DIRECTION('',(0,-0.9999999999998541,-5.399906684119168E-07));
#395=DIRECTION('',(0,0.1012691004803921,-0.9948590700636409));
#396=FACE_SURFACE('',(#401),#397,.T.);
#397=PLANE('',#398);
#398=AXIS2_PLACEMENT_3D('',#42,#399,#400);
#399=DIRECTION('',(1,0,0));
#400=DIRECTION('',(0,-0.1012691004803921,0.9948590700636409));
#401=FACE_BOUND('',#402,.T.);
#402=EDGE_LOOP('',(#403,#404,#405));
#403=ORIENTED_EDGE('',*,*,#406,.T.);
#404=ORIENTED_EDGE('',*,*,#407,.T.);
#405=ORIENTED_EDGE('',*,*,#408,.T.);
#406=EDGE_CURVE('',#43,#63,#409,.F.);
#407=EDGE_CURVE('',#63,#65,#410,.T.);
#408=EDGE_CURVE('',#65,#43,#411,.T.);
#409=LINE('',#42,#412);
#410=LINE('',#62,#413);
#411=LINE('',#64,#414);
#412=VECTOR('',#415,1.0);
#413=VECTOR('',#416,1.0);
#414=VECTOR('',#417,1.0);
#415=DIRECTION('',(0,-0.1012691004803921,0.9948590700636409));
#416=DIRECTION('',(0,5.399906698164869E-07,-0.9999999999998542));
#417=DIRECTION('',(0,0.9999999999998541,5.399906684119168E-07));
#418=FACE_SURFACE('',(#423),#419,.T.);
#419=PLANE('',#420);
#420=AXIS2_PLACEMENT_3D('',#44,#421,#422);
#421=DIRECTION('',(1,0,0));
#422=DIRECTION('',(0,-5.399906698164869E-07,0.9999999999998542));
#423=FACE_BOUND('',#424,.T.);
#424=EDGE_LOOP('',(#425,#426,#427));
#425=ORIENTED_EDGE('',*,*,#428,.T.);
#426=ORIENTED_EDGE('',*,*,#429,.T.);
#427=ORIENTED_EDGE('',*,*,#430,.T.);
#428=EDGE_CURVE('',#45,#49,#431,.F.);
#429=EDGE_CURVE('',#49,#67,#432,.T.);
#430=EDGE_CURVE('',#67,#45,#433,.T.);
#431=LINE('',#44,#434);
#432=LINE('',#48,#435);
#433=LINE('',#66,#436);
#434=VECTOR('',#437,1.0);
#435=VECTOR('',#438,1.0);
#436=VECTOR('',#439,1.0);
#437=DIRECTION('',(0,-5.399906698164869E-07,0.9999999999998542));
#438=DIRECTION('',(0,-0.9999999999998543,-5.399906720058351E-07));
#439=DIRECTION('',(0,0.08162094364148072,-0.996663444478162));
#440=FACE_SURFACE('',(#445),#441,.T.);
#441=PLANE('',#442);
#442=AXIS2_PLACEMENT_3D('',#44,#443,#444);
#443=DIRECTION('',(1,0,0));
#444=DIRECTION('',(0,-0.08162094364148072,0.996663444478162));
#445=FACE_BOUND('',#446,.T.);
#446=EDGE_LOOP('',(#447,#448,#449));
#447=ORIENTED_EDGE('',*,*,#450,.T.);
#448=ORIENTED_EDGE('',*,*,#451,.T.);
#449=ORIENTED_EDGE('',*,*,#452,.T.);
#450=EDGE_CURVE('',#45,#67,#453,.F.);
#451=EDGE_CURVE('',#67,#69,#454,.T.);
#452=EDGE_CURVE('',#69,#45,#455,.T.);
#453=LINE('',#44,#456);
#454=LINE('',#66,#457);
#455=LINE('',#68,#458);
#456=VECTOR('',#459,1.0);
#457=VECTOR('',#460,1.0);
#458=VECTOR('',#461,1.0);
#459=DIRECTION('',(0,-0.08162094364148072,0.996663444478162));
#460=DIRECTION('',(0,5.399906698164869E-07,-0.9999999999998542));
#461=DIRECTION('',(0,0.9999999999998543,5.399906720058351E-07));
#462=FACE_SURFACE('',(#467),#463,.T.);
#463=PLANE('',#464);
#464=AXIS2_PLACEMENT_3D('',#64,#465,#466);
#465=DIRECTION('',(-0.00044029242133324754,-0.9999999030711414,-5.399906174758863E-07));
#466=DIRECTION('',(0,-5.399906698164869E-07,0.9999999999998542));
#467=FACE_BOUND('',#468,.T.);
#468=EDGE_LOOP('',(#469,#470,#471));
#469=ORIENTED_EDGE('',*,*,#472,.T.);
#470=ORIENTED_EDGE('',*,*,#473,.T.);
#471=ORIENTED_EDGE('',*,*,#474,.T.);
#472=EDGE_CURVE('',#65,#63,#475,.F.);
#473=EDGE_CURVE('',#63,#67,#476,.T.);
#474=EDGE_CURVE('',#67,#65,#477,.T.);
#475=LINE('',#64,#478);
#476=LINE('',#62,#479);
#477=LINE('',#66,#480);
#478=VECTOR('',#481,1.0);
#479=VECTOR('',#482,1.0);
#480=VECTOR('',#483,1.0);
#481=DIRECTION('',(0,-5.399906698164869E-07,0.9999999999998542));
#482=DIRECTION('',(-0.999999903071287,0.0004402924213331833,2.3774970629338106E-10));
#483=DIRECTION('',(0.04558510002403327,-1.9531346684461944E-05,-0.9989604588142242));
#484=FACE_SURFACE('',(#489),#485,.T.);
#485=PLANE('',#486);
#486=AXIS2_PLACEMENT_3D('',#64,#487,#488);
#487=DIRECTION('',(-0.0004402924213332476,-0.9999999030711414,-5.399906174758848E-07));
#488=DIRECTION('',(-0.04558510002403327,1.9531346684461944E-05,0.9989604588142242));
#489=FACE_BOUND('',#490,.T.);
#490=EDGE_LOOP('',(#491,#492,#493));
#491=ORIENTED_EDGE('',*,*,#494,.T.);
#492=ORIENTED_EDGE('',*,*,#495,.T.);
#493=ORIENTED_EDGE('',*,*,#496,.T.);
#494=EDGE_CURVE('',#65,#67,#497,.F.);
#495=EDGE_CURVE('',#67,#69,#498,.T.);
#496=EDGE_CURVE('',#69,#65,#499,.T.);
#497=LINE('',#64,#500);
#498=LINE('',#66,#501);
#499=LINE('',#68,#502);
#500=VECTOR('',#503,1.0);
#501=VECTOR('',#504,1.0);
#502=VECTOR('',#505,1.0);
#503=DIRECTION('',(-0.04558510002403327,1.9531346684461944E-05,0.9989604588142242));
#504=DIRECTION('',(0,5.399906698164869E-07,-0.9999999999998542));
#505=DIRECTION('',(0.999999903071287,-0.0004402924213331833,-2.3774970629338106E-10));
#506=FACE_SURFACE('',(#511),#507,.T.);
#507=PLANE('',#508);
#508=AXIS2_PLACEMENT_3D('',#70,#509,#510);
#509=DIRECTION('',(2.3571635669097537E-15,-5.399906684119169E-07,0.9999999999998542));
#510=DIRECTION('',(0,0.9999999999998541,5.399906684119168E-07));
#511=FACE_BOUND('',#512,.T.);
#512=EDGE_LOOP('',(#513,#514,#515));
#513=ORIENTED_EDGE('',*,*,#516,.T.);
#514=ORIENTED_EDGE('',*,*,#517,.T.);
#515=ORIENTED_EDGE('',*,*,#518,.T.);
#516=EDGE_CURVE('',#71,#73,#519,.F.);
#517=EDGE_CURVE('',#73,#75,#520,.T.);
#518=EDGE_CURVE('',#75,#71,#521,.T.);
#519=LINE('',#70,#522);
#520=LINE('',#72,#523);
#521=LINE('',#74,#524);
#522=VECTOR('',#525,1.0);
#523=VECTOR('',#526,1.0);
#524=VECTOR('',#527,1.0);
#525=DIRECTION('',(0,0.9999999999998541,5.399906684119168E-07));
#526=DIRECTION('',(-0.9167914573468213,-0.39936627766480853,-2.1565406105640317E-07));
#527=DIRECTION('',(0.48666052024642387,-0.8735911732803037,-4.717310827255891E-07));
#528=FACE_SURFACE('',(#533),#529,.T.);
#529=PLANE('',#530);
#530=AXIS2_PLACEMENT_3D('',#70,#531,#532);
#531=DIRECTION('',(-4.094181832356482E-15,-5.39990672005835E-07,0.9999999999998542));
#532=DIRECTION('',(-0.48666052024642387,0.8735911732803037,4.717310827255891E-07));
#533=FACE_BOUND('',#534,.T.);
#534=EDGE_LOOP('',(#535,#536,#537));
#535=ORIENTED_EDGE('',*,*,#538,.T.);
#536=ORIENTED_EDGE('',*,*,#539,.T.);
#537=ORIENTED_EDGE('',*,*,#540,.T.);
#538=EDGE_CURVE('',#71,#75,#541,.F.);
#539=EDGE_CURVE('',#75,#77,#542,.T.);
#540=EDGE_CURVE('',#77,#71,#543,.T.);
#541=LINE('',#70,#544);
#542=LINE('',#74,#545);
#543=LINE('',#76,#546);
#544=VECTOR('',#547,1.0);
#545=VECTOR('',#548,1.0);
#546=VECTOR('',#549,1.0);
#547=DIRECTION('',(-0.48666052024642387,0.8735911732803037,4.717310827255891E-07));
#548=DIRECTION('',(0,-0.9999999999998543,-5.399906720058351E-07));
#549=DIRECTION('',(0.999999903071287,-0.0004402924213331833,-2.3774970629338106E-10));
#550=FACE_SURFACE('',(#555),#551,.T.);
#551=PLANE('',#552);
#552=AXIS2_PLACEMENT_3D('',#78,#553,#554);
#553=DIRECTION('',(2.3571635669097537E-15,-5.399906684119169E-07,0.9999999999998542));
#554=DIRECTION('',(0,0.9999999999998541,5.399906684119168E-07));
#555=FACE_BOUND('',#556,.T.);
#556=EDGE_LOOP('',(#557,#558,#559));
#557=ORIENTED_EDGE('',*,*,#560,.T.);
#558=ORIENTED_EDGE('',*,*,#561,.T.);
#559=ORIENTED_EDGE('',*,*,#562,.T.);
#560=EDGE_CURVE('',#79,#81,#563,.F.);
#561=EDGE_CURVE('',#81,#83,#564,.T.);
#562=EDGE_CURVE('',#83,#79,#565,.T.);
#563=LINE('',#78,#566);
#564=LINE('',#80,#567);
#565=LINE('',#82,#568);
#566=VECTOR('',#569,1.0);
#567=VECTOR('',#570,1.0);
#568=VECTOR('',#571,1.0);
#569=DIRECTION('',(0,0.9999999999998541,5.399906684119168E-07));
#570=DIRECTION('',(-0.9167914573468213,-0.39936627766480853,-2.1565406105640317E-07));
#571=DIRECTION('',(0.48666052024642387,-0.8735911732803037,-4.717310827255891E-07));
#572=FACE_SURFACE('',(#577),#573,.T.);
#573=PLANE('',#574);
#574=AXIS2_PLACEMENT_3D('',#78,#575,#576);
#575=DIRECTION('',(-4.094181832356482E-15,-5.39990672005835E-07,0.9999999999998542));
#576=DIRECTION('',(-0.48666052024642387,0.8735911732803037,4.717310827255891E-07));
#577=FACE_BOUND('',#578,.T.);
#578=EDGE_LOOP('',(#579,#580,#581));
#579=ORIENTED_EDGE('',*,*,#582,.T.);
#580=ORIENTED_EDGE('',*,*,#583,.T.);
#581=ORIENTED_EDGE('',*,*,#584,.T.);
#582=EDGE_CURVE('',#79,#83,#585,.F.);
#583=EDGE_CURVE('',#83,#85,#586,.T.);
#584=EDGE_CURVE('',#85,#79,#587,.T.);
#585=LINE('',#78,#588);
#586=LINE('',#82,#589);
#587=LINE('',#84,#590);
#588=VECTOR('',#591,1.0);
#589=VECTOR('',#592,1.0);
#590=VECTOR('',#593,1.0);
#591=DIRECTION('',(-0.48666052024642387,0.8735911732803037,4.717310827255891E-07));
#592=DIRECTION('',(0,-0.9999999999998543,-5.399906720058351E-07));
#593=DIRECTION('',(0.999999903071287,-0.0004402924213331833,-2.3774970629338106E-10));
#594=FACE_SURFACE('',(#599),#595,.T.);
#595=PLANE('',#596);
#596=AXIS2_PLACEMENT_3D('',#40,#597,#598);
#597=DIRECTION('',(1,0,0));
#598=DIRECTION('',(0,-5.399906698164869E-07,0.9999999999998542));
#599=FACE_BOUND('',#600,.T.);
#600=EDGE_LOOP('',(#601,#602,#603));
#601=ORIENTED_EDGE('',*,*,#604,.T.);
#602=ORIENTED_EDGE('',*,*,#605,.T.);
#603=ORIENTED_EDGE('',*,*,#606,.T.);
#604=EDGE_CURVE('',#41,#35,#607,.F.);
#605=EDGE_CURVE('',#35,#87,#608,.T.);
#606=EDGE_CURVE('',#87,#41,#609,.T.);
#607=LINE('',#40,#610);
#608=LINE('',#34,#611);
#609=LINE('',#86,#612);
#610=VECTOR('',#613,1.0);
#611=VECTOR('',#614,1.0);
#612=VECTOR('',#615,1.0);
#613=DIRECTION('',(0,-5.399906698164869E-07,0.9999999999998542));
#614=DIRECTION('',(0,-0.9999999999998541,-5.39990666861387E-07));
#615=DIRECTION('',(0,0.0814912546373182,-0.9966740567595986));
#616=FACE_SURFACE('',(#621),#617,.T.);
#617=PLANE('',#618);
#618=AXIS2_PLACEMENT_3D('',#40,#619,#620);
#619=DIRECTION('',(1,0,0));
#620=DIRECTION('',(0,-0.0814912546373182,0.9966740567595986));
#621=FACE_BOUND('',#622,.T.);
#622=EDGE_LOOP('',(#623,#624,#625));
#623=ORIENTED_EDGE('',*,*,#626,.T.);
#624=ORIENTED_EDGE('',*,*,#627,.T.);
#625=ORIENTED_EDGE('',*,*,#628,.T.);
#626=EDGE_CURVE('',#41,#87,#629,.F.);
#627=EDGE_CURVE('',#87,#89,#630,.T.);
#628=EDGE_CURVE('',#89,#41,#631,.T.);
#629=LINE('',#40,#632);
#630=LINE('',#86,#633);
#631=LINE('',#88,#634);
#632=VECTOR('',#635,1.0);
#633=VECTOR('',#636,1.0);
#634=VECTOR('',#637,1.0);
#635=DIRECTION('',(0,-0.0814912546373182,0.9966740567595986));
#636=DIRECTION('',(0,5.399906696659129E-07,-0.9999999999998541));
#637=DIRECTION('',(0,0.9999999999998541,5.399906742277578E-07));
#638=FACE_SURFACE('',(#643),#639,.T.);
#639=PLANE('',#640);
#640=AXIS2_PLACEMENT_3D('',#36,#641,#642);
#641=DIRECTION('',(-1,0,-0));
#642=DIRECTION('',(0,5.399906698164869E-07,-0.9999999999998542));
#643=FACE_BOUND('',#644,.T.);
#644=EDGE_LOOP('',(#645,#646,#647));
#645=ORIENTED_EDGE('',*,*,#648,.T.);
#646=ORIENTED_EDGE('',*,*,#649,.T.);
#647=ORIENTED_EDGE('',*,*,#650,.T.);
#648=EDGE_CURVE('',#37,#39,#651,.F.);
#649=EDGE_CURVE('',#39,#91,#652,.T.);
#650=EDGE_CURVE('',#91,#37,#653,.T.);
#651=LINE('',#36,#654);
#652=LINE('',#38,#655);
#653=LINE('',#90,#656);
#654=VECTOR('',#657,1.0);
#655=VECTOR('',#658,1.0);
#656=VECTOR('',#659,1.0);
#657=DIRECTION('',(0,5.399906698164869E-07,-0.9999999999998542));
#658=DIRECTION('',(0,-0.9999999999998542,-5.399906712746546E-07));
#659=DIRECTION('',(0,0.10134291534601683,0.9948515535039236));
#660=FACE_SURFACE('',(#665),#661,.T.);
#661=PLANE('',#662);
#662=AXIS2_PLACEMENT_3D('',#36,#663,#664);
#663=DIRECTION('',(-1,0,0));
#664=DIRECTION('',(0,-0.10134291534601683,-0.9948515535039236));
#665=FACE_BOUND('',#666,.T.);
#666=EDGE_LOOP('',(#667,#668,#669));
#667=ORIENTED_EDGE('',*,*,#670,.T.);
#668=ORIENTED_EDGE('',*,*,#671,.T.);
#669=ORIENTED_EDGE('',*,*,#672,.T.);
#670=EDGE_CURVE('',#37,#91,#673,.F.);
#671=EDGE_CURVE('',#91,#93,#674,.T.);
#672=EDGE_CURVE('',#93,#37,#675,.T.);
#673=LINE('',#36,#676);
#674=LINE('',#90,#677);
#675=LINE('',#92,#678);
#676=VECTOR('',#679,1.0);
#677=VECTOR('',#680,1.0);
#678=VECTOR('',#681,1.0);
#679=DIRECTION('',(0,-0.10134291534601683,-0.9948515535039236));
#680=DIRECTION('',(0,-5.399906696659133E-07,0.9999999999998542));
#681=DIRECTION('',(0,0.9999999999998542,5.399906712746555E-07));
#682=FACE_SURFACE('',(#687),#683,.T.);
#683=PLANE('',#684);
#684=AXIS2_PLACEMENT_3D('',#88,#685,#686);
#685=DIRECTION('',(0.0069236669412205635,-0.9999760311306444,-5.399777267001772E-07));
#686=DIRECTION('',(0,-5.399906696659129E-07,0.9999999999998541));
#687=FACE_BOUND('',#688,.T.);
#688=EDGE_LOOP('',(#689,#690,#691));
#689=ORIENTED_EDGE('',*,*,#692,.T.);
#690=ORIENTED_EDGE('',*,*,#693,.T.);
#691=ORIENTED_EDGE('',*,*,#694,.T.);
#692=EDGE_CURVE('',#89,#87,#695,.F.);
#693=EDGE_CURVE('',#87,#93,#696,.T.);
#694=EDGE_CURVE('',#93,#89,#697,.T.);
#695=LINE('',#88,#698);
#696=LINE('',#86,#699);
#697=LINE('',#92,#700);
#698=VECTOR('',#701,1.0);
#699=VECTOR('',#702,1.0);
#700=VECTOR('',#703,1.0);
#701=DIRECTION('',(0,-5.399906696659129E-07,0.9999999999998541));
#702=DIRECTION('',(-0.9999760311307903,-0.006923666941219554,-3.738731571550447E-09));
#703=DIRECTION('',(0.03278825715244067,0.0002275601138430143,-0.9994622946411236));
#704=FACE_SURFACE('',(#709),#705,.T.);
#705=PLANE('',#706);
#706=AXIS2_PLACEMENT_3D('',#88,#707,#708);
#707=DIRECTION('',(0.006923666941220563,-0.9999760311306444,-5.399777267001751E-07));
#708=DIRECTION('',(-0.03278825715244067,-0.0002275601138430143,0.9994622946411236));
#709=FACE_BOUND('',#710,.T.);
#710=EDGE_LOOP('',(#711,#712,#713));
#711=ORIENTED_EDGE('',*,*,#714,.T.);
#712=ORIENTED_EDGE('',*,*,#715,.T.);
#713=ORIENTED_EDGE('',*,*,#716,.T.);
#714=EDGE_CURVE('',#89,#93,#717,.F.);
#715=EDGE_CURVE('',#93,#91,#718,.T.);
#716=EDGE_CURVE('',#91,#89,#719,.T.);
#717=LINE('',#88,#720);
#718=LINE('',#92,#721);
#719=LINE('',#90,#722);
#720=VECTOR('',#723,1.0);
#721=VECTOR('',#724,1.0);
#722=VECTOR('',#725,1.0);
#723=DIRECTION('',(-0.03278825715244067,-0.0002275601138430143,0.9994622946411236));
#724=DIRECTION('',(0,5.399906696659133E-07,-0.9999999999998542));
#725=DIRECTION('',(0.9999760311307903,0.006923666941219554,3.738713212666832E-09));
#726=FACE_SURFACE('',(#731),#727,.T.);
#727=PLANE('',#728);
#728=AXIS2_PLACEMENT_3D('',#94,#729,#730);
#729=DIRECTION('',(-2.339266265757376E-15,-5.399906668613871E-07,0.9999999999998542));
#730=DIRECTION('',(0,0.9999999999998541,5.39990666861387E-07));
#731=FACE_BOUND('',#732,.T.);
#732=EDGE_LOOP('',(#733,#734,#735));
#733=ORIENTED_EDGE('',*,*,#736,.T.);
#734=ORIENTED_EDGE('',*,*,#737,.T.);
#735=ORIENTED_EDGE('',*,*,#738,.T.);
#736=EDGE_CURVE('',#95,#97,#739,.F.);
#737=EDGE_CURVE('',#97,#99,#740,.T.);
#738=EDGE_CURVE('',#99,#95,#741,.T.);
#739=LINE('',#94,#742);
#740=LINE('',#96,#743);
#741=LINE('',#98,#744);
#742=VECTOR('',#745,1.0);
#743=VECTOR('',#746,1.0);
#744=VECTOR('',#747,1.0);
#745=DIRECTION('',(0,0.9999999999998541,5.39990666861387E-07));
#746=DIRECTION('',(-0.855246771247717,0.518220956996412,2.798344781494296E-07));
#747=DIRECTION('',(0.3071600853824122,-0.9516578597098881,-5.138863615701685E-07));
#748=FACE_SURFACE('',(#753),#749,.T.);
#749=PLANE('',#750);
#750=AXIS2_PLACEMENT_3D('',#94,#751,#752);
#751=DIRECTION('',(-1.6012662419806972E-14,-5.399906712746554E-07,0.9999999999998541));
#752=DIRECTION('',(-0.3071600853824122,0.9516578597098881,5.138863615701685E-07));
#753=FACE_BOUND('',#754,.T.);
#754=EDGE_LOOP('',(#755,#756,#757));
#755=ORIENTED_EDGE('',*,*,#758,.T.);
#756=ORIENTED_EDGE('',*,*,#759,.T.);
#757=ORIENTED_EDGE('',*,*,#760,.T.);
#758=EDGE_CURVE('',#95,#99,#761,.F.);
#759=EDGE_CURVE('',#99,#101,#762,.T.);
#760=EDGE_CURVE('',#101,#95,#763,.T.);
#761=LINE('',#94,#764);
#762=LINE('',#98,#765);
#763=LINE('',#100,#766);
#764=VECTOR('',#767,1.0);
#765=VECTOR('',#768,1.0);
#766=VECTOR('',#769,1.0);
#767=DIRECTION('',(-0.3071600853824122,0.9516578597098881,5.138863615701685E-07));
#768=DIRECTION('',(0,-0.9999999999998542,-5.399906712746555E-07));
#769=DIRECTION('',(0.9999760311307903,0.006923666941219554,3.738731571550447E-09));
#770=FACE_SURFACE('',(#775),#771,.T.);
#771=PLANE('',#772);
#772=AXIS2_PLACEMENT_3D('',#102,#773,#774);
#773=DIRECTION('',(5.013404038920375E-15,5.399906712746546E-07,-0.9999999999998541));
#774=DIRECTION('',(0,0.9999999999998542,5.399906712746546E-07));
#775=FACE_BOUND('',#776,.T.);
#776=EDGE_LOOP('',(#777,#778,#779));
#777=ORIENTED_EDGE('',*,*,#780,.T.);
#778=ORIENTED_EDGE('',*,*,#781,.T.);
#779=ORIENTED_EDGE('',*,*,#782,.T.);
#780=EDGE_CURVE('',#103,#105,#783,.F.);
#781=EDGE_CURVE('',#105,#107,#784,.T.);
#782=EDGE_CURVE('',#107,#103,#785,.T.);
#783=LINE('',#102,#786);
#784=LINE('',#104,#787);
#785=LINE('',#106,#788);
#786=VECTOR('',#789,1.0);
#787=VECTOR('',#790,1.0);
#788=VECTOR('',#791,1.0);
#789=DIRECTION('',(0,0.9999999999998542,5.399906712746546E-07));
#790=DIRECTION('',(0.855246771247717,-0.518220956996412,-2.798344781494296E-07));
#791=DIRECTION('',(-0.3714880955131551,-0.9284377172927422,-5.013477080601089E-07));
#792=FACE_SURFACE('',(#797),#793,.T.);
#793=PLANE('',#794);
#794=AXIS2_PLACEMENT_3D('',#102,#795,#796);
#795=DIRECTION('',(-2.3671080350718166E-15,5.399906742277578E-07,-0.9999999999998541));
#796=DIRECTION('',(0.3714880955131551,0.9284377172927422,5.013477080601089E-07));
#797=FACE_BOUND('',#798,.T.);
#798=EDGE_LOOP('',(#799,#800,#801));
#799=ORIENTED_EDGE('',*,*,#802,.T.);
#800=ORIENTED_EDGE('',*,*,#803,.T.);
#801=ORIENTED_EDGE('',*,*,#804,.T.);
#802=EDGE_CURVE('',#103,#107,#805,.F.);
#803=EDGE_CURVE('',#107,#109,#806,.T.);
#804=EDGE_CURVE('',#109,#103,#807,.T.);
#805=LINE('',#102,#808);
#806=LINE('',#106,#809);
#807=LINE('',#108,#810);
#808=VECTOR('',#811,1.0);
#809=VECTOR('',#812,1.0);
#810=VECTOR('',#813,1.0);
#811=DIRECTION('',(0.3714880955131551,0.9284377172927422,5.013477080601089E-07));
#812=DIRECTION('',(0,-0.9999999999998541,-5.399906742277578E-07));
#813=DIRECTION('',(-0.9999760311307903,-0.006923666941219554,-3.738713212666832E-09));
ENDSEC;
END-ISO-10303-21;
